<?xml version="1.0" standalone="no"?>
<!DOCTYPE svg PUBLIC "-//W3C//DTD SVG 20010904//EN"
 "http://www.w3.org/TR/2001/REC-SVG-20010904/DTD/svg10.dtd">
<svg version="1.0" xmlns="http://www.w3.org/2000/svg"
 width="218.000000pt" height="300.000000pt" viewBox="0 0 218.000000 300.000000"
 preserveAspectRatio="xMidYMid meet">
<metadata>
Created by potrace 1.10, written by Peter Selinger 2001-2011
</metadata>
<g transform="translate(0.000000,300.000000) scale(0.050000,-0.050000)"
fill="#ffffff" stroke="none">
<path d="M0 3656 c0 -2340 0 -2344 39 -2268 22 42 57 89 78 104 21 15 58 88
80 163 56 183 116 248 417 450 456 305 581 443 845 935 161 300 302 499 490
691 199 203 195 194 69 177 -102 -14 -106 -12 -79 21 28 33 25 33 -50 2 -102
-43 -169 -87 -169 -111 0 -32 40 -23 53 12 10 24 16 25 28 6 32 -52 -29 -109
-91 -85 -36 14 -40 109 -6 143 14 14 16 24 3 24 -11 0 -41 -22 -67 -50 -54
-57 -98 -62 -178 -21 -98 51 -134 211 -48 211 31 -1 31 -3 6 -20 -23 -14 -25
-27 -9 -53 36 -57 85 -79 112 -52 25 25 26 23 -162 270 -77 101 -131 324 -111
461 8 57 17 173 21 257 8 198 41 258 274 499 52 54 95 113 95 132 0 31 2 31
25 0 40 -54 168 20 254 147 122 180 211 237 411 268 109 16 49 -20 -81 -49
-104 -23 -269 -141 -269 -192 0 -33 -115 -268 -131 -268 -5 0 4 27 21 60 36
69 21 75 -50 20 -27 -22 -62 -39 -76 -40 -42 0 -171 -72 -212 -118 -42 -46
-31 -54 29 -21 69 37 41 6 -71 -79 -138 -105 -164 -145 -181 -282 -17 -135 31
-110 80 41 l28 89 -12 -89 -11 -88 58 40 c87 61 388 214 399 202 17 -16 -10
-65 -51 -90 -32 -20 -37 -19 -27 5 15 40 -244 -75 -313 -139 -27 -25 -60 -42
-72 -38 -79 30 -145 -347 -82 -466 25 -48 27 -66 9 -73 -34 -11 19 -110 140
-263 137 -173 131 -100 -14 183 -67 130 -126 268 -132 306 -7 50 0 39 27 -40
45 -136 180 -380 217 -394 55 -21 35 -220 -28 -280 l-55 -52 69 13 c38 8 92
34 120 59 28 26 92 71 141 101 l90 55 -75 -66 c-79 -69 -104 -133 -40 -99 82
43 307 100 284 71 -16 -18 -17 -28 -3 -28 12 0 27 9 34 20 7 11 21 20 32 20
11 0 15 -9 8 -20 -7 -11 1 -20 18 -20 37 0 92 99 92 165 0 26 -46 122 -103
214 l-103 167 -40 -55 c-119 -164 -413 -124 -562 76 l-41 55 44 124 c25 68 45
138 46 154 1 50 138 140 214 140 49 0 87 18 138 66 l70 67 -34 106 -35 106 54
110 c67 136 96 122 32 -16 -46 -98 -47 -102 -15 -202 43 -134 -24 -230 -255
-366 -51 -30 -54 -30 -20 -2 22 19 53 41 70 51 51 29 11 40 -67 18 -55 -15
-82 -37 -102 -84 -15 -35 -42 -97 -59 -137 -68 -156 -21 -232 128 -207 117 20
418 470 360 539 -28 35 0 43 34 9 63 -63 94 76 46 206 -45 124 -64 309 -34
346 8 11 29 38 45 60 27 37 28 36 9 -16 -27 -76 -25 -154 3 -154 14 0 10 -15
-10 -37 -36 -39 -45 -93 -13 -73 12 7 20 -13 20 -49 0 -41 10 -61 30 -61 36 0
39 23 7 55 -37 37 -3 85 92 127 101 44 151 103 151 176 l0 49 55 -51 c81 -76
316 -156 457 -156 31 0 -4 -90 -62 -160 -120 -144 -82 -227 121 -260 64 -11
120 -16 124 -11 20 19 -79 51 -124 40 -63 -16 -157 70 -147 136 5 38 22 47
103 56 106 12 153 53 153 133 0 53 -87 236 -123 258 -15 9 -18 5 -7 -12 12
-20 7 -23 -18 -13 -20 7 -41 13 -49 14 -7 0 8 12 34 27 l47 26 -72 42 c-65 38
-89 41 -231 28 -190 -19 -193 -2 -5 26 149 22 161 40 68 103 -117 79 -259 87
-1491 87 l-1173 0 0 -2344z m1786 1682 c-34 -60 -232 -218 -271 -218 -11 0 34
39 98 87 65 47 134 110 153 140 48 74 64 67 20 -9z m-77 6 c-10 -9 -55 -41
-99 -72 l-80 -55 78 72 c43 39 88 71 99 71 13 0 14 -6 2 -16z m-166 -749 c-32
-32 -48 58 -19 109 26 45 26 45 32 -22 4 -37 -2 -76 -13 -87z m137 -312 c0
-19 9 -44 20 -55 12 -12 14 -49 6 -89 l-15 -69 -13 100 c-8 55 -21 117 -29
138 -11 27 -9 34 8 24 12 -8 23 -30 23 -49z"/>
<path d="M2616 5970 c96 -42 320 -265 376 -373 107 -212 82 -308 -87 -334
-164 -26 -162 -79 4 -121 155 -39 206 -175 99 -264 -25 -20 -21 -32 27 -76 32
-29 42 -41 25 -27 -48 36 -109 31 -149 -14 -35 -38 -34 -39 40 -27 54 9 71 6
61 -11 -8 -13 -36 -23 -63 -23 -58 0 -60 -14 -11 -78 22 -29 49 -44 67 -37 23
9 28 1 20 -31 -18 -75 41 -3 68 82 17 56 23 63 25 28 1 -26 -7 -64 -19 -85
-38 -72 14 -39 128 80 123 128 140 190 84 299 -17 32 -23 76 -16 104 12 44 14
43 28 -22 61 -295 103 -370 155 -277 29 51 27 57 -44 135 -82 91 -100 133 -28
65 26 -23 57 -43 70 -43 49 0 51 -105 5 -193 -127 -239 -346 -547 -388 -547
-12 0 7 29 41 65 167 175 292 423 249 492 -31 48 -147 -114 -138 -192 4 -40
-1 -63 -14 -58 -12 3 -18 26 -15 50 10 67 -24 52 -137 -62 -57 -58 -93 -84
-80 -59 26 52 -5 115 -45 90 -13 -8 -16 0 -8 21 8 21 -20 76 -82 158 -52 69
-105 150 -119 181 -14 31 -34 51 -45 44 -29 -18 -24 -55 5 -38 14 8 18 7 9 -3
-43 -47 -73 -26 -44 32 39 75 39 73 -29 108 -77 40 -82 40 -170 -20 -99 -67
-251 18 -251 140 0 11 22 -12 49 -52 27 -40 64 -78 82 -85 68 -26 309 116 309
182 0 16 38 82 85 148 97 137 93 146 -79 166 -110 13 -207 51 -271 108 -32 27
-35 27 -35 -3 0 -63 -134 -189 -190 -178 -37 7 -50 1 -50 -23 0 -17 12 -32 28
-32 57 0 51 -120 -6 -122 -34 -2 -40 -6 -17 -12 24 -6 35 -29 35 -71 0 -44 24
-91 82 -159 55 -65 77 -109 69 -131 -11 -29 -16 -30 -32 -4 -15 24 -18 23 -19
-6 0 -19 -9 -35 -20 -35 -27 0 -25 47 3 75 65 65 -154 158 -223 95 -75 -68 36
-189 176 -190 29 -1 30 -3 4 -20 -16 -11 -51 -20 -76 -20 -25 0 -70 -15 -100
-34 l-54 -34 38 44 c37 42 37 45 2 84 -54 59 -81 50 -140 -51 -85 -146 -41
-186 116 -106 66 34 78 36 56 9 -15 -18 -21 -39 -13 -47 8 -8 22 1 33 19 53
96 127 119 268 87 152 -36 197 -39 181 -12 -14 21 24 48 73 52 30 2 29 -5 -9
-59 -23 -34 -43 -64 -45 -67 -1 -2 -67 13 -145 35 -156 43 -188 39 -270 -37
-73 -67 -72 -75 55 -312 61 -113 110 -221 110 -240 0 -36 223 -280 287 -315
62 -33 94 24 124 216 15 98 46 235 68 305 59 184 56 362 -8 422 -51 48 -117
31 -108 -27 2 -12 -4 -38 -12 -58 -11 -25 -3 -48 26 -76 24 -22 42 -55 41 -74
-2 -31 -3 -31 -12 1 -17 66 -44 35 -51 -60 l-8 -95 -3 106 c-5 132 -40 174
-130 157 -51 -10 -57 -8 -28 9 20 11 59 23 88 27 53 5 60 20 72 143 6 61 55
52 136 -25 l71 -69 -9 -154 -9 -155 88 -71 c48 -39 105 -82 127 -94 22 -13 28
-23 14 -23 -14 -1 -59 22 -100 49 -136 92 -204 28 -204 -194 -1 -65 -17 -141
-43 -196 -72 -156 -67 -219 62 -716 118 -460 151 -554 210 -603 41 -34 39 -12
-4 54 -19 29 -24 46 -10 38 41 -25 91 -133 61 -133 -26 0 103 -118 131 -119 9
-1 -1 28 -23 64 -21 36 -85 141 -142 233 -56 93 -102 177 -102 187 0 18 253
-388 375 -600 l49 -86 -62 -70 c-92 -105 -70 -143 145 -252 163 -83 164 -76
18 193 -128 236 -282 553 -255 526 8 -8 106 -188 218 -400 192 -362 303 -512
348 -467 12 12 -71 210 -105 251 -14 17 -54 125 -90 240 -169 545 -465 1242
-646 1525 -116 182 -103 176 -156 73 -60 -117 -69 -84 -11 41 l48 104 92 -128
c185 -260 431 -819 693 -1572 76 -219 98 -260 199 -371 231 -255 310 -387 310
-516 0 -114 1 -116 123 -240 67 -69 137 -153 154 -186 29 -55 31 163 32 2515
l1 2575 -905 -1 c-805 0 -898 -4 -839 -29z m-106 -574 c14 -14 0 -16 -45 -7
-52 11 -65 8 -65 -17 0 -40 -47 -41 -80 -2 -50 60 133 86 190 26z m155 -90
c-25 -5 -45 -22 -45 -37 0 -16 -13 -29 -30 -29 -16 0 -30 7 -30 16 0 33 50 64
99 61 47 -2 48 -3 6 -11z m732 -148 c5 -38 1 -43 -19 -23 -20 19 -31 19 -55 0
-17 -14 -26 -16 -20 -5 6 11 17 36 24 57 18 49 61 31 70 -29z m-941 -47 l46
-23 -41 -37 c-47 -42 -106 -9 -127 71 -12 43 24 40 122 -11z m1017 -60 c-3
-122 -28 -123 -33 -1 -5 103 -4 110 18 110 10 0 17 -49 15 -109z m-874 -904
c-25 -89 -59 -135 -59 -79 0 16 8 35 19 41 10 7 25 54 34 106 8 52 18 78 23
58 4 -21 -3 -77 -17 -126z m200 -587 c71 -36 163 -160 119 -160 -10 0 -28 20
-40 45 -22 50 -152 148 -171 129 -6 -6 6 -37 28 -68 48 -69 89 -146 78 -146
-15 0 -133 192 -133 217 0 33 30 29 119 -17z m610 -1317 c73 -103 129 -191
125 -195 -8 -9 -216 279 -254 352 -38 75 -16 48 129 -157z"/>
<path d="M2699 5101 c20 -36 73 -83 154 -135 34 -22 34 -24 2 -25 -19 0 -73
33 -119 74 -73 65 -80 68 -51 21 19 -30 35 -68 35 -85 0 -17 18 -32 40 -33 57
-4 64 -6 117 -36 63 -34 113 6 58 47 -38 27 -47 71 -16 71 11 0 29 -18 41 -40
25 -47 60 -53 60 -11 0 40 -79 91 -142 91 -29 0 -85 22 -126 50 -62 42 -70 44
-53 11z"/>
<path d="M2809 4822 c32 -35 68 -54 85 -48 23 9 16 22 -27 58 -84 68 -127 61
-58 -10z"/>
<path d="M1958 4630 c-2 -5 -4 -20 -5 -33 -2 -13 -57 -35 -123 -48 -236 -49
-263 -70 -165 -129 147 -90 390 37 345 181 -11 35 -46 54 -52 29z"/>
<path d="M2240 4018 c0 -9 -87 -109 -193 -222 -330 -351 -417 -475 -598 -845
-165 -338 -356 -790 -340 -806 14 -14 259 240 388 403 68 85 123 148 123 140
0 -31 -178 -248 -360 -438 -176 -184 -202 -222 -319 -465 -71 -145 -131 -261
-135 -258 -4 4 39 104 94 223 121 260 119 270 -22 91 -60 -76 -191 -210 -290
-299 -273 -241 -298 -286 -298 -532 l0 -200 84 -6 c75 -6 94 3 177 79 l92 85
-67 34 c-94 48 -144 109 -126 152 13 30 18 26 32 -25 12 -44 41 -72 105 -104
l89 -43 107 80 c59 44 110 88 114 99 3 10 17 19 30 19 13 0 85 62 160 137
l137 138 -31 59 c-19 38 -24 68 -12 87 14 22 19 17 19 -21 2 -130 44 -123 181
28 l89 98 -90 -11 c-49 -6 -108 -18 -130 -26 -22 -9 101 123 273 293 172 169
332 335 356 368 l44 60 -37 -67 c-47 -87 -310 -368 -453 -483 -133 -108 -136
-120 -35 -120 63 0 89 12 130 62 58 69 69 62 20 -13 -61 -92 8 -49 82 51 40
55 78 100 84 100 6 0 -4 -20 -22 -45 -97 -133 -93 -162 19 -134 189 49 210 85
134 221 l-55 98 46 85 c25 47 113 166 196 265 82 99 213 274 289 388 76 114
139 199 139 189 0 -45 -289 -447 -491 -682 -41 -48 -61 -85 -46 -85 15 0 -2
-28 -38 -61 -74 -70 -76 -79 -34 -160 42 -82 53 -76 105 66 77 209 77 210 32
175 -21 -16 2 15 50 70 49 55 92 104 96 109 5 6 2 -7 -6 -27 -48 -125 164 103
268 288 144 256 244 823 171 966 l-32 64 42 -38 c24 -21 43 -32 43 -23 0 8
-85 98 -190 199 -104 102 -190 179 -190 170z m131 -162 l79 -83 -85 65 c-89
68 -119 102 -90 102 9 0 52 -38 96 -84z m138 -243 c-97 -66 -317 -155 -280
-114 21 23 49 41 64 41 15 0 27 8 27 18 0 19 146 78 199 80 21 2 18 -6 -10
-25z m-29 -219 c-35 -57 -86 -131 -114 -164 l-52 -60 37 60 c20 33 67 107 105
165 90 136 75 147 -58 42 -190 -148 -453 -424 -413 -432 41 -9 27 -45 -16 -45
-65 0 -20 74 146 244 337 346 517 439 365 190z m-241 -838 c-122 -159 -128
-149 -14 20 33 48 64 82 69 76 6 -5 -19 -49 -55 -96z m-839 -613 c0 -30 -379
-355 -570 -488 -224 -158 -240 -168 -222 -138 8 12 99 82 202 154 104 72 277
211 384 309 213 194 206 188 206 163z m-590 -735 c73 -24 74 -25 10 -12 -38 8
-130 14 -203 14 -101 0 -129 6 -114 24 23 28 184 14 307 -26z"/>
<path d="M2604 3295 c-12 -69 -28 -174 -36 -235 -7 -60 -25 -132 -38 -160 -14
-27 -58 -119 -98 -203 -58 -122 -103 -182 -222 -293 -160 -149 -202 -222 -270
-471 -44 -158 -69 -182 -220 -215 -149 -33 -162 -48 -271 -304 -131 -311 -209
-363 -442 -296 -75 22 -125 -5 -343 -183 l-147 -120 107 -43 c58 -24 264 -151
456 -281 368 -250 641 -394 817 -432 221 -48 816 0 651 52 -122 38 -123 67
-23 539 69 324 136 734 166 1006 7 70 17 122 23 117 31 -32 -181 -1332 -245
-1499 -15 -39 19 -49 233 -71 348 -35 426 1 828 377 335 314 418 367 593 377
l139 8 -216 222 c-119 123 -279 293 -356 379 -110 124 -172 174 -295 238 -182
95 -222 139 -256 281 -43 185 -100 314 -179 405 -87 100 -131 222 -220 600
-94 396 -100 405 -136 205z m-154 -1059 c-58 -319 -157 -714 -249 -986 -79
-234 -67 -181 58 270 56 204 132 527 167 719 35 191 67 334 70 316 4 -18 -17
-162 -46 -319z m861 -946 c14 -183 -19 -553 -53 -610 -11 -19 -12 4 -3 60 8
50 15 264 15 476 0 386 16 414 41 74z"/>
<path d="M1090 2452 c-102 -104 -260 -231 -439 -352 -291 -198 -393 -300 -430
-434 -28 -102 -15 -105 126 -27 589 326 680 403 788 668 83 206 125 313 120
311 -3 -1 -77 -76 -165 -166z"/>
<path d="M3100 2349 c0 -13 55 -216 73 -269 8 -24 18 -20 48 17 50 61 49 105
-3 170 -41 53 -118 106 -118 82z"/>
<path d="M780 1871 c-71 -47 -219 -139 -329 -203 -215 -128 -243 -157 -225
-230 41 -162 81 -140 494 265 247 241 271 308 60 168z"/>
<path d="M3710 1791 c37 -94 80 -145 155 -184 84 -43 67 -9 -65 133 -120 129
-121 130 -90 51z"/>
<path d="M1399 1595 c-127 -146 -127 -147 -77 -228 l44 -71 44 107 c24 59 63
145 87 191 76 148 30 148 -98 1z"/>
<path d="M3640 1667 c0 -16 142 -175 165 -184 27 -11 -41 113 -86 158 -38 38
-79 52 -79 26z"/>
<path d="M3841 1498 c96 -190 199 -271 199 -156 0 48 -98 247 -114 231 -6 -6
-36 2 -68 18 -83 43 -84 40 -17 -93z"/>
<path d="M114 1464 c-134 -148 -97 -421 79 -586 l47 -45 0 113 c0 61 10 157
21 212 20 91 17 109 -35 220 -62 134 -66 137 -112 86z"/>
<path d="M1091 1281 c-136 -137 -135 -141 22 -155 189 -17 270 73 196 215 -44
85 -86 74 -218 -60z"/>
<path d="M2 575 l-2 -575 1015 3 c558 1 993 6 965 10 -110 17 -238 58 -400
128 -93 40 -203 79 -242 87 -40 7 -134 52 -208 100 -130 84 -137 86 -189 56
-50 -29 -62 -27 -192 31 -77 33 -175 73 -218 88 -56 20 -105 61 -164 138 -46
60 -120 145 -163 189 -93 95 -150 178 -180 260 -16 45 -21 -83 -22 -515z"/>
<path d="M4145 887 c74 -80 70 -108 -32 -202 -123 -113 -163 -131 -263 -116
-97 14 -210 -57 -210 -132 0 -40 0 -40 65 -1 36 21 153 72 261 113 368 140
482 351 210 385 l-86 11 55 -58z"/>
<path d="M3900 857 c-102 -59 -570 -493 -552 -512 15 -15 223 128 373 257 80
69 140 115 132 102 -28 -44 18 -25 88 38 38 33 53 56 34 50 -19 -6 -35 -7 -35
-2 0 17 119 70 154 68 24 -1 17 -8 -20 -22 -42 -15 -51 -26 -34 -46 16 -20 6
-31 -44 -51 -50 -19 -57 -27 -30 -33 20 -5 47 -2 61 7 14 10 8 1 -13 -18 -22
-20 -56 -31 -81 -25 -56 14 -102 -17 -86 -58 23 -62 293 92 310 177 23 117
-110 152 -257 68z"/>
<path d="M4331 763 c-17 -54 -85 -111 -226 -191 -69 -38 -169 -107 -223 -152
-130 -110 -231 -128 -265 -48 -14 32 -26 60 -28 63 -2 3 -79 -34 -171 -83
-320 -170 -417 -199 -619 -187 -178 10 -178 10 -167 -36 14 -55 -33 -86 -169
-109 -52 -8 349 -16 902 -18 l995 -2 0 400 c0 387 -4 441 -29 363z"/>
<path d="M335 768 c-23 -22 40 -121 118 -186 80 -65 116 -68 58 -3 -19 21 -47
73 -61 115 -24 72 -81 108 -115 74z"/>
<path d="M472 744 c-8 -13 -7 -24 2 -24 9 0 34 -32 55 -71 41 -76 138 -162
245 -216 70 -36 155 -44 136 -13 -7 12 2 14 22 6 27 -10 32 -5 22 22 -15 38
-2 33 96 -39 91 -67 290 -175 302 -164 6 6 -76 72 -181 148 -106 75 -235 169
-287 207 -151 111 -299 173 -344 145 -28 -18 -39 -18 -45 0 -6 17 -11 17 -23
-1z m238 -77 c160 -107 186 -187 60 -187 -38 0 -210 155 -210 190 0 26 43 4
120 -60 46 -38 74 -70 62 -70 -12 0 -22 -9 -22 -20 0 -25 40 -25 79 -1 37 24
9 59 -114 140 -51 34 -83 61 -73 61 10 0 55 -24 98 -53z"/>
<path d="M3776 449 c-92 -48 -129 -82 -110 -101 21 -22 116 20 188 83 90 80
56 88 -78 18z"/>
<path d="M2480 160 c39 -25 120 -25 120 0 0 11 -34 20 -75 20 -56 -1 -67 -6
-45 -20z"/>
</g>
</svg>
