<?xml version="1.0" encoding="UTF-8"?>
<svg width="1148px" height="1434px" viewBox="0 0 1148 1434" version="1.1" xmlns="http://www.w3.org/2000/svg" xmlns:xlink="http://www.w3.org/1999/xlink">
    <!-- Generator: Sketch 48.2 (47327) - http://www.bohemiancoding.com/sketch -->
    <title>P0x564GD4b</title>
    <desc>Created with Sketch.</desc>
    <defs></defs>
    <g id="Page-1" stroke="none" stroke-width="1" fill="none" fill-rule="evenodd">
        <g id="wHMtGRJK8U" transform="translate(3.000000, 0.000000)" fill="#FFFFFF" fill-rule="nonzero">
            <g id="Group" transform="translate(570.500000, 717.000000) scale(-1, 1) rotate(-180.000000) translate(-570.500000, -717.000000) ">
                <path d="M0.380143262,990.416 C0.380143262,666.1408 1.52057305,546.832 4.56171914,546.832 C7.03265034,546.832 41.2455439,553.1416 80.5903715,560.7896 L152.437448,574.556 L152.437448,585.072 C152.437448,628.092 127.157921,899.7872 114.993337,986.592 L108.34083,1034.392 L90.8542395,1036.4952 C68.8059304,1038.9808 63.1037814,1043.952 57.9718474,1064.4104 C52.8399134,1084.6776 29.841246,1288.8792 32.3121772,1291.3648 C36.3036815,1295.5712 238.349825,1326.3544 317.799767,1334.9584 C405.802932,1344.3272 716.570048,1338.7824 746.981509,1327.1192 C760.476595,1321.9568 761.426953,1314.5 757.055306,1249.8744 C747.171581,1106.6656 745.460936,1098.8264 722.842412,1095.1936 L707.826753,1092.708 L727.594203,1077.0296 C738.428286,1068.4256 758.385807,1056.9536 772.070965,1051.4088 C803.242712,1038.7896 806.093786,1031.7152 808.944861,959.6328 C813.696652,845.4864 786.516408,762.1232 725.313343,703.0424 L699.083458,677.6128 L727.023988,682.9664 C742.41979,685.8344 788.227053,694.6296 828.712311,702.4688 L902.460103,716.8088 L1021.63502,676.4656 L1140.80993,635.9312 L1140.80993,1034.9656 L1140.80993,1434 L570.595036,1434 L0.380143262,1434 L0.380143262,990.416 Z" id="Shape"></path>
                <path d="M336.80693,1321.0008 C216.111444,1310.8672 65.5747126,1291.7472 53.9803432,1284.864 C45.6171914,1279.8928 48.8484091,1280.084 106.820257,1288.4968 C242.531401,1307.9992 354.103448,1315.2648 564.892887,1318.324 C658.978344,1319.6624 728.354489,1322.148 718.850908,1323.6776 C689.199733,1328.4576 402.191571,1326.3544 336.80693,1321.0008 Z" id="Shape"></path>
                <path d="M401.431284,1303.4104 C304.114609,1298.0568 81.9208729,1276.8336 64.8144261,1271.48 C57.7817758,1269.1856 58.161919,1257.7136 67.2853573,1160.584 C73.3676495,1094.4288 77.3591538,1076.8384 87.2428786,1070.5288 C93.1350991,1066.7048 93.1350991,1066.5136 87.2428786,1068.2344 C79.2598701,1070.72 76.4087956,1063.8368 80.5903715,1052.7472 C84.2017325,1042.6136 83.6315176,1042.6136 201.856072,1059.6304 C244.812261,1065.94 304.684824,1074.3528 334.906214,1078.7504 C393.828419,1086.972 433.933533,1095.7672 468.906713,1108.3864 C520.035982,1126.7416 605.568216,1128.8448 654.226553,1112.9752 C687.108946,1102.268 722.462269,1099.0176 731.015492,1105.7096 C737.477928,1110.872 742.990005,1156.76 751.543228,1272.436 L754.01416,1307.808 L606.328502,1307.2344 C524.977844,1306.852 432.793103,1305.3224 401.431284,1303.4104 Z M585.800766,1277.5984 C585.800766,1275.8776 581.61919,1273.392 576.297185,1272.436 C569.834749,1271.2888 566.793603,1272.436 566.793603,1275.8776 C566.793603,1278.7456 570.785107,1281.04 576.297185,1281.04 C581.61919,1281.04 585.800766,1279.5104 585.800766,1277.5984 Z M597.965351,1200.3536 C608.989505,1194.4264 600.056139,1189.264 580.098617,1189.8376 L564.892887,1190.4112 L581.999334,1192.8968 C598.345494,1195.3824 598.725637,1195.5736 589.602199,1199.78 C584.470265,1202.0744 582.379477,1204.1776 585.04048,1204.3688 C587.891554,1204.3688 593.593703,1202.648 597.965351,1200.3536 Z M319.700483,1191.5584 C305.825254,1184.1016 286.628019,1180.4688 283.967016,1185.0576 C281.686157,1188.6904 305.445111,1195.7648 321.601199,1196.3384 C328.253706,1196.5296 327.873563,1195.956 319.700483,1191.5584 Z M162.891388,1081.236 C161.370815,1073.588 155.288522,1070.9112 141.03315,1070.9112 L127.728136,1071.1024 L142.17358,1076.2648 C150.34666,1079.1328 157.759454,1082.5744 159.089955,1083.7216 C162.511244,1087.3544 163.841746,1086.3984 162.891388,1081.236 Z" id="Shape"></path>
                <path d="M42.195902,1251.5952 C42.195902,1205.516 60.0626353,1073.7792 67.475429,1063.8368 C71.8470765,1058.1008 72.2272197,1058.8656 70.7066467,1068.808 C67.475429,1090.2224 61.3931368,1148.9208 57.2115609,1196.912 C55.1207729,1223.2976 52.2696985,1250.2568 51.1292687,1257.14 C47.3278361,1278.3632 42.195902,1275.1128 42.195902,1251.5952 Z" id="Shape"></path>
                <path d="M507.871398,1107.4304 C381.09362,1077.9856 294.420956,978.944 301.643678,871.6808 C306.015326,807.0552 350.872231,725.0304 397.819923,695.7768 C418.537731,682.9664 417.017158,688.32 390.40713,720.6328 C376.721972,737.076 362.846743,758.4904 359.045311,769.0064 C355.43395,779.3312 350.302016,787.744 347.450941,787.744 C337.757288,787.744 348.401299,839.9416 362.846743,864.224 C431.082459,977.7968 560.331168,1032.48 760.666667,1032.48 L782.334833,1032.48 L784.805764,1004.756 C795.449775,880.2848 793.929202,866.136 763.897884,815.468 C753.634016,798.26 743.56022,779.5224 741.469432,773.9776 C738.618357,766.1384 736.717641,764.8 732.536065,768.2416 C727.023988,773.0216 719.991338,762.888 698.1331,719.4856 C683.687656,690.6144 687.67916,687.5552 711.057971,709.5432 C783.095119,777.4192 816.167583,886.0208 798.490921,998.064 C791.648342,1041.2752 795.449775,1038.7896 721.131767,1051.4088 C668.671997,1060.204 662.209562,1062.8808 699.653673,1060.204 C732.726137,1057.7184 732.726137,1059.0568 700.984175,1077.0296 C642.632184,1109.916 568.69432,1121.388 507.871398,1107.4304 Z" id="Shape"></path>
                <path d="M357.714809,1071.8672 C352.582875,1071.1024 316.659337,1065.1752 278.074796,1058.8656 C238.729968,1052.556 206.607863,1045.4816 204.897218,1042.8048 C200.905714,1036.4952 201.095785,945.484 205.08729,942.9984 C208.318507,941.0864 296.511744,954.088 298.602532,956.7648 C299.172747,957.3384 305.445111,969.1928 312.477761,982.768 C320.650841,998.6376 337.187073,1019.6696 358.094953,1041.084 C393.258204,1077.2208 393.258204,1077.7944 357.714809,1071.8672 Z" id="Shape"></path>
                <path d="M141.603365,1041.2752 C133.810428,1039.7456 132.86007,1038.0248 134.950858,1027.3176 C141.223222,995.9608 153.007663,886.212 156.428952,825.984 C158.709812,789.2736 161.750958,749.6952 163.271531,738.032 L165.932534,717 L175.436115,740.9 C180.568049,754.0928 185.890055,764.8 187.410628,764.8 C208.888722,764.8 224.474596,816.0416 212.11994,845.8688 C205.847576,860.9736 206.797934,864.224 218.012161,864.224 C221.813593,864.224 224.094453,865.7536 222.954023,867.6656 C221.813593,869.3864 232.267533,872.2544 245.95269,873.5928 C259.637848,875.1224 269.901716,877.4168 268.571214,878.564 C267.430785,879.9024 271.992504,883.344 278.835082,886.212 C289.669165,890.8008 290.429452,891.948 284.537231,895.1984 C278.454939,898.64 278.454939,899.7872 283.586873,904.9496 C289.669165,911.068 291.37981,927.5112 286.247876,930.7616 C284.537231,931.7176 268.001,929.232 249.37398,925.2168 C197.864568,913.936 201.475929,910.3032 192.542562,980.856 C183.989339,1050.0704 184.559554,1049.4968 141.603365,1041.2752 Z M171.444611,988.504 C171.444611,981.2384 169.733966,975.12 167.643178,975.12 C165.55239,975.12 163.841746,981.2384 163.841746,988.504 C163.841746,995.9608 165.55239,1001.888 167.643178,1001.888 C169.733966,1001.888 171.444611,995.9608 171.444611,988.504 Z M253.175412,890.992 C241.961186,886.212 221.053307,886.212 228.4661,890.992 C231.697318,893.0952 240.250541,894.6248 247.473263,894.4336 C258.307346,894.2424 259.447776,893.6688 253.175412,890.992 Z" id="Shape"></path>
                <path d="M118.224554,1034.9656 C118.224554,1031.1416 121.645844,996.9168 125.82742,958.6768 C133.810428,884.4912 145.404798,749.504 152.62752,646.256 C156.809095,587.94 159.850242,572.2616 166.122605,578.38 C167.453107,579.7184 166.69282,600.368 164.221889,624.0768 C161.941029,647.7856 156.619024,719.868 152.247376,783.92 C143.504081,920.0544 139.322505,961.9272 131.149425,1003.8 C125.447276,1032.6712 118.224554,1050.0704 118.224554,1034.9656 Z" id="Shape"></path>
                <path d="M747.361653,1021.008 C744.70065,1016.6104 745.270865,1015.6544 765.608529,986.592 L780.244045,965.56 L777.583042,988.504 C773.781609,1021.1992 757.815592,1038.216 747.361653,1021.008 Z" id="Shape"></path>
                <path d="M638.830751,1011.6392 C589.412127,1005.3296 556.909878,997.108 524.977844,982.768 C511.482759,976.8408 496.4671,970.7224 491.905381,969.384 C487.343662,968.0456 478.220223,961.9272 471.567716,955.8088 C464.915209,949.6904 457.502415,944.528 455.221556,944.3368 C444.577545,944.1456 402.951857,897.4928 377.102116,856.9584 C349.161586,813.1736 359.235382,773.5952 414.166084,709.1608 C456.932201,659.4488 471.567716,652.5656 548.166583,647.5944 C585.800766,645.1088 586.18091,644.9176 592.263202,633.2544 C597.965351,622.1648 597.965351,621.7824 592.07313,626.7536 C587.131268,630.7688 579.148259,631.3424 559.190738,629.6216 C537.712644,627.5184 532.58071,628.092 532.58071,632.4896 C532.58071,642.2408 490.574879,647.5944 484.87273,638.4168 C480.501083,631.3424 493.996169,615.664 504.64018,615.664 L514.333833,615.664 L502.929535,602.4712 C490.764951,588.5136 484.682659,574.7472 488.864235,570.5408 C490.194736,569.0112 492.855739,570.5408 494.566383,573.6 C503.119607,588.5136 510.342329,595.2056 504.260037,582.3952 C493.425954,559.8336 500.268532,559.6424 521.746627,582.204 L537.3325,598.456 L525.548059,582.5864 C505.970681,556.5832 514.523905,552.9504 538.282859,577.424 C555.199234,594.8232 563.942529,598.0736 551.587873,582.204 C546.265867,575.512 544.935366,571.3056 547.78644,570.3496 C554.058804,568.2464 578.387973,588.896 589.222056,605.3392 C598.155422,618.9144 598.535566,619.1056 603.6675,611.84 C608.039147,605.7216 610.510078,604.9568 616.59237,608.2072 C627.996668,614.3256 624.385307,627.9008 609.369649,635.3576 L597.014993,641.6672 L620.01366,645.6824 C653.656338,651.6096 662.969848,660.0224 684.638014,704.9544 C695.091954,726.3688 708.777111,753.328 715.049475,764.8 C724.553057,782.3904 726.453773,790.2296 726.453773,811.644 L726.453773,837.456 L714.099117,837.8384 C707.256538,837.8384 703.835249,838.9856 706.496252,839.9416 C709.157255,841.0888 710.297684,843.5744 709.157255,845.4864 C705.16575,851.796 695.852241,849.1192 692.050808,840.324 C688.629519,832.2936 688.439447,832.4848 690.340163,842.0448 C691.670665,849.3104 690.340163,853.5168 685.588372,856.1936 C679.886224,859.6352 680.456438,860.2088 689.579877,860.2088 C696.422455,860.4 699.27353,861.9296 697.752957,864.6064 C696.232384,867.092 689.769948,867.8568 681.406797,866.3272 L667.531568,863.8416 L680.836582,872.0632 C688.249375,876.652 698.323172,884.1088 703.265034,888.5064 C711.628186,895.9632 712.198401,895.9632 709.917541,889.4624 C707.636682,883.1528 708.016825,882.9616 713.338831,887.3592 C721.892054,894.4336 733.296352,917.9512 739.568716,941.66 C743.370148,955.6176 745.080793,958.4856 745.270865,951.4112 C745.651008,936.3064 731.775779,901.508 718.660836,885.0648 C700.033816,861.356 706.30618,842.4272 730.065134,851.4136 L740.138931,855.2376 L739.568716,834.0144 C739.378644,822.16 738.048143,805.7168 736.337498,797.304 L733.676495,782.008 L742.609862,792.524 C785.375979,843.192 794.309345,909.5384 766.178744,969.384 C744.510578,1015.6544 723.982842,1022.3464 638.830751,1011.6392 Z M591.692987,983.1504 C590.552557,981.2384 581.809262,974.7376 572.495752,968.8104 C551.777944,955.6176 551.777944,955.2352 569.644678,946.8224 L583.90005,939.9392 L598.155422,956.5736 C605.948359,965.7512 612.410795,971.296 612.410795,969.1928 C612.410795,966.8984 606.328502,957.912 599.10578,949.308 C576.677328,923.1136 598.725637,924.6432 631.417958,951.4112 C663.540063,977.988 663.730135,978.1792 658.978344,969.384 C650.044978,952.7496 602.717141,903.9936 590.742629,899.2136 C574.58654,892.5216 574.776612,888.6976 591.692987,885.4472 C598.915709,884.1088 604.047643,881.2408 602.717141,879.3288 C598.915709,873.0192 611.460436,870.916 625.90588,875.696 C643.012327,881.432 647.003831,878.1816 632.748459,870.3424 C623.434949,865.3712 623.054806,864.4152 629.897385,864.4152 C637.50025,864.224 673.043645,885.4472 673.423788,890.4184 C673.423788,891.7568 677.985507,898.0664 683.497585,904.376 L693.381309,915.848 L686.348659,904.376 C665.820923,870.1512 653.84641,860.4 632.558387,860.4 C621.534233,860.4 612.410795,862.1208 612.410795,864.224 C612.410795,866.136 607.659004,869.004 601.956855,870.3424 C596.254706,871.872 589.412127,874.5488 586.751124,876.652 C584.090122,878.7552 576.487256,881.6232 569.644678,883.1528 L557.290022,885.8296 L572.685824,893.86 C597.585207,906.8616 604.427786,921.584 585.610695,921.584 C580.858904,921.584 579.148259,923.496 580.668832,927.32 C583.519907,935.1592 578.578044,934.3944 564.892887,925.408 C558.620523,921.2016 548.356655,917.9512 542.084291,918.1424 C532.010495,918.3336 532.770781,919.0984 549.497085,925.0256 C572.30568,933.056 574.776612,938.4096 559.190738,946.44 C540.183575,956.3824 507.301183,928.8496 524.977844,917.76 C529.349492,914.892 528.209062,914.1272 520.226054,913.936 C507.681326,913.936 507.491254,915.0832 517.755122,931.7176 C528.589205,949.308 521.746627,947.7784 499.128103,927.32 C476.129435,906.4792 474.418791,906.288 477.84008,924.452 C480.311011,937.6448 479.930868,938.4096 474.228719,933.4384 C460.923705,922.54 464.535066,932.4824 479.550725,948.7344 C494.18624,964.4128 494.756455,964.7952 489.244378,953.3232 C480.691154,936.3064 480.881226,922.54 489.434449,929.8056 C493.996169,933.6296 585.04048,983.3416 592.643345,986.2096 C593.403632,986.4008 592.833417,985.0624 591.692987,983.1504 Z M692.24088,954.4704 C692.24088,939.9392 642.061969,887.168 628.18674,887.168 C624.955522,887.168 630.087456,892.1392 639.591038,898.2576 C657.457771,909.5384 671.523072,925.5992 682.357155,947.396 C689.009662,960.78 692.24088,963.0744 692.24088,954.4704 Z M446.288189,849.1192 C480.691154,790.612 536.001999,783.92 559.570881,835.1616 L566.793603,850.84 L564.512744,837.456 C557.670165,798.6424 524.40763,784.876 484.87273,804.952 C466.625854,814.1296 432.793103,841.28 439.445611,841.28 C441.346327,841.28 440.776112,843.3832 438.305181,845.8688 C433.173247,851.0312 432.222889,860.4 436.784608,860.4 C438.305181,860.4 442.676828,855.2376 446.288189,849.1192 Z M596.444778,800.172 C589.031984,792.3328 579.338331,778.9488 574.966683,770.536 C570.595036,762.1232 566.983675,757.9168 566.983675,761.1672 C566.793603,770.1536 601.006497,814.512 608.229219,814.512 C609.369649,814.512 604.047643,808.0112 596.444778,800.172 Z M596.254706,774.36 C596.254706,762.3144 602.52707,754.6664 623.625021,741.2824 C632.938531,735.164 638.830751,730.384 636.739963,730.384 C619.253373,730.384 585.990838,764.9912 590.9327,777.9928 C594.163918,786.5968 596.254706,785.2584 596.254706,774.36 Z M517.184908,748.548 C515.664334,737.6496 517.945194,733.8256 529.729635,726.56 C536.762286,722.1624 539.423288,718.912 536.001999,718.912 C522.696985,718.912 504.64018,743.1944 512.243045,750.8424 C516.044478,754.6664 517.755122,753.9016 517.184908,748.548 Z M671.333,724.648 C659.548559,719.4856 652.325837,720.4416 656.317341,726.7512 C657.457771,728.8544 663.920207,730.1928 670.572714,730.0016 L682.737298,729.8104 L671.333,724.648 Z M534.861569,681.0544 L549.687156,677.6128 L536.382142,677.2304 C523.2672,676.848 486.773447,694.6296 480.881226,704.1896 C479.360653,706.6752 487.533733,703.2336 499.128103,696.7328 C510.5324,690.0408 526.688489,682.9664 534.861569,681.0544 Z" id="Shape"></path>
                <path d="M607.659004,930.9528 C601.956855,927.7024 597.205064,923.496 597.205064,921.3928 C597.205064,914.5096 607.278861,917.76 616.212227,927.32 C626.286024,938.0272 623.244878,939.3656 607.659004,930.9528 Z" id="Shape"></path>
                <path d="M253.175412,942.2336 C240.630685,939.3656 226.375312,935.924 221.43345,934.7768 C216.491588,933.6296 213.26037,931.7176 214.4008,930.7616 C217.061802,927.8936 286.628019,940.8952 290.999667,944.9104 C296.131601,949.8816 279.975512,948.7344 253.175412,942.2336 Z" id="Shape"></path>
                <path d="M245.572547,865.5624 C217.632017,859.6352 219.912877,863.268 221.43345,828.0872 C223.144095,786.9792 222.954023,786.9792 257.927203,809.3496 C308.8664,841.8536 301.073463,877.4168 245.572547,865.5624 Z" id="Shape"></path>
                <path d="M279.405297,799.5984 C243.101616,782.964 230.176745,739.944 250.324338,702.2776 L256.786773,690.232 L259.257704,711.264 C264.199567,751.6072 264.199567,751.6072 306.205397,729.8104 C346.12044,709.1608 365.127603,695.2032 376.341829,678.76 C384.134766,667.288 387.365984,665.376 400.480926,665.376 L415.876728,665.376 L372.350325,710.308 C341.368649,742.4296 325.402632,762.5056 315.89905,781.052 C301.073463,809.732 301.263535,809.5408 279.405297,799.5984 Z" id="Shape"></path>
                <path d="M212.500083,763.6528 C188.360986,744.1504 179.807763,722.736 176.386473,674.5536 C173.535399,635.3576 183.038981,590.6168 195.013493,586.7928 C242.151258,571.688 275.793936,635.74 248.423622,688.7024 C239.300183,706.484 237.969682,713.176 237.969682,744.5328 C237.969682,785.6408 238.729968,785.0672 212.500083,763.6528 Z" id="Shape"></path>
                <path d="M266.480426,689.8496 C266.480426,662.508 263.43928,628.092 258.68749,599.9856 C254.315842,574.9384 251.274696,547.9792 252.034983,540.14 L253.175412,525.8 L271.992504,526.5648 L290.809595,527.1384 L275.223721,520.064 C266.480426,516.24 258.497418,509.548 256.976845,504.768 C253.365484,493.1048 256.40663,491.7664 270.281859,499.032 C276.934366,502.4736 283.396802,504.3856 284.537231,503.0472 C285.867733,501.9 284.34716,500.7528 281.306014,500.5616 C278.454939,500.3704 286.247876,498.076 298.792604,495.3992 C332.055139,488.7072 345.170082,511.46 314.948692,523.6968 C306.775612,527.1384 306.775612,527.3296 316.849409,527.5208 C322.551558,527.5208 327.303348,529.0504 327.303348,530.58 C328.063635,597.1176 339.467933,647.5944 355.814093,657.3456 C379.002832,670.9208 365.317674,688.8936 309.626687,717.956 C264.959853,741.4736 266.480426,742.4296 266.480426,689.8496 Z" id="Shape"></path>
                <path d="M880.411794,700.1744 C869.957854,698.836 861.594703,696.1592 861.974846,694.056 C862.354989,691.9528 852.471264,690.0408 839.16625,689.8496 C791.838414,689.276 774.731967,681.628 800.771781,673.024 C808.374646,670.5384 813.696652,667.6704 812.746294,666.9056 C811.986007,665.9496 804.002999,667.8616 795.069632,671.112 C778.723472,676.848 749.45244,679.1424 754.394303,674.1712 C758.005664,670.7296 810.655506,654.0952 818.638514,653.904 C822.249875,653.904 825.291021,652.5656 825.291021,650.8448 C825.291021,649.124 835.174746,644.7264 847.149259,640.9024 C868.437281,634.0192 901.889888,618.7232 899.989172,616.8112 C899.418957,616.2376 863.115276,628.8568 819.398801,644.7264 C733.866567,675.7008 725.883558,676.848 687.299017,661.9344 C672.093287,656.0072 676.655006,652.1832 711.438114,640.52 C728.354489,634.784 741.469432,629.4304 740.519074,628.4744 C739.188572,627.3272 701.934533,637.8432 670.19257,648.3592 C667.531568,649.3152 666.201066,648.3592 667.341496,646.4472 C668.481926,644.5352 678.175579,640.1376 688.81959,636.5048 C699.27353,633.0632 707.256538,629.4304 706.496252,628.6656 C705.545894,627.9008 694.901882,630.5776 682.547226,634.784 L660.308846,642.6232 L651.755622,631.916 C647.003831,626.18 643.772614,619.2968 644.722972,616.62 C645.67333,613.9432 644.5329,611.84 642.252041,611.84 C633.318674,611.84 582.379477,584.6896 567.173746,571.8792 C549.116942,556.9656 544.745294,555.436 541.514076,564.04 C539.803432,568.82 537.902715,568.4376 529.729635,562.128 C510.722472,547.0232 480.311011,560.216 484.492587,581.4392 C486.583375,591.764 485.633017,592.5288 457.882559,601.8976 L429.181742,611.4576 L392.307846,592.5288 C372.160253,582.204 352.582875,573.6 348.971514,573.6 C340.038148,573.6 336.80693,563.8488 341.748792,552.7592 C346.880726,541.4784 380.523405,524.844 404.662502,521.4024 C415.306513,520.064 426.900883,515.4752 431.842745,510.8864 C436.594536,506.4888 443.437115,500.5616 446.858404,497.6936 C455.791771,490.428 452.370481,488.8984 438.875396,493.8696 C426.52074,498.6496 365.317674,473.0288 368.738964,464.616 C375.391471,447.9816 487.15359,421.4048 499.318174,433.6416 C502.739464,436.892 509.772114,439.76 515.284191,439.76 C528.779277,439.76 527.448776,445.496 512.623188,450.6584 L500.268532,454.8648 L513.573547,452.188 C528.969349,449.1288 567.934033,449.5112 608.609362,453.3352 L637.120107,455.8208 L620.01366,465.1896 C602.336998,474.9408 603.857571,474.5584 638.450608,462.1304 C650.044978,457.924 682.737298,452.3792 714.47926,449.1288 C745.080793,446.0696 775.302182,442.628 781.574546,441.672 L792.978844,439.76 L780.624188,447.7904 C763.897884,458.6888 765.038314,460.792 782.524904,451.8056 C790.317841,447.7904 823.390305,436.3184 855.702482,426.5672 C888.204731,416.6248 931.16092,401.7112 951.498584,393.4896 C974.30718,383.9296 1006.61936,374.752 1037.03082,368.8248 C1084.92887,359.6472 1131.49642,346.2632 1134.91771,340.7184 C1135.67799,339.1888 1110.58854,344.5424 1078.84658,352.5728 C1008.13993,370.3544 1000.91721,370.928 1019.16408,356.588 C1047.8649,334.2176 1070.10328,310.8912 1080.55722,291.9624 C1089.68066,275.9016 1095.57288,270.3568 1112.48926,262.3264 C1142.3305,248.1776 1141.19007,246.4568 1140.04964,301.14 L1138.90921,349.7048 L1099.94453,364.8096 C1078.46643,373.0312 1061.55006,380.488 1062.50042,381.2528 C1063.2607,382.2088 1080.17708,376.664 1100.1346,369.2072 C1143.85107,352.764 1140.80993,352.764 1140.80993,369.016 C1140.80993,381.0616 1139.28936,382.9736 1125.41413,388.7096 C1117.05097,391.96 1110.77861,395.5928 1111.72897,396.5488 C1112.67933,397.3136 1119.52191,395.5928 1127.12477,392.3424 C1139.85957,386.9888 1140.80993,387.18 1140.80993,393.2984 C1140.80993,397.1224 1136.24821,401.9024 1130.35599,404.388 L1119.90205,408.5944 L1130.35599,406.4912 L1140.80993,404.5792 L1140.80993,437.0832 L1140.80993,469.7784 L1120.85241,477.2352 C1109.82825,481.2504 1015.7428,515.284 911.773613,552.7592 C807.614359,590.0432 723.222555,621.2088 723.79277,621.9736 C724.553057,622.7384 735.006997,619.8704 747.171581,615.664 C765.038314,609.5456 768.649675,609.1632 766.93903,613.752 C764.468099,620.0616 769.790105,620.8264 781.574546,615.664 C788.607196,612.6048 788.417125,612.4136 779.67383,611.84 C770.930535,611.2664 770.740463,611.0752 777.773113,607.8248 C806.47393,594.8232 1074.47493,498.076 1134.15742,479.1472 C1140.42979,477.2352 1140.80993,482.3976 1140.80993,553.524 L1140.80993,629.8128 L1124.65384,634.4016 C1081.69765,646.6384 973.736965,682.3928 960.812094,688.7024 C952.829085,692.7176 942.185074,695.968 937.243212,695.968 C932.301349,695.968 927.359487,697.6888 926.028986,699.792 C923.558054,703.8072 911.963685,703.9984 880.411794,700.1744 Z M726.453773,563.8488 C726.453773,562.8928 716.189905,567.2904 703.645177,573.6 C691.10045,579.9096 680.836582,586.028 680.836582,587.1752 C680.836582,588.1312 691.10045,583.7336 703.645177,577.424 C716.189905,571.1144 726.453773,564.996 726.453773,563.8488 Z M686.918874,552.9504 C707.636682,547.4056 730.065134,536.316 711.248043,540.9048 C663.15992,552.7592 663.540063,552.7592 650.425121,541.6696 C637.310178,530.58 638.070465,530.58 602.907213,543.3904 C584.850408,550.0824 584.660336,550.2736 598.725637,548.1704 C608.799434,546.4496 612.790938,547.0232 610.890222,549.8912 C609.369649,552.568 615.261869,554.48 628.376812,555.436 C639.591038,556.2008 652.896052,557.1568 658.027986,557.5392 C663.349992,557.9216 676.274863,555.8184 686.918874,552.9504 Z M828.332167,545.1112 C839.546393,541.4784 847.909545,537.6544 847.149259,536.8896 C845.248542,534.9776 798.680993,550.656 798.680993,553.3328 C798.680993,554.48 800.771781,554.48 803.432784,553.524 C806.093786,552.568 817.308013,548.744 828.332167,545.1112 Z M501.408962,518.152 C510.342329,514.5192 516.994836,510.6952 516.044478,509.9304 C515.284191,508.9744 505.400466,512.6072 494.18624,518.152 C471.947859,528.668 475.369149,528.668 501.408962,518.152 Z M851.710978,489.472 C866.916708,485.0744 878.511078,480.4856 877.56072,479.5296 C875.27986,477.2352 813.886723,496.7376 813.886723,499.6056 C813.886723,500.7528 816.167583,500.944 819.018657,499.7968 C822.059803,498.6496 836.695319,494.0608 851.710978,489.472 Z M1062.69049,431.7296 C1093.29202,420.8312 1117.62119,411.2712 1116.8609,410.5064 C1115.15026,408.7856 1017.26337,442.2456 1007.75979,447.7904 C996.165417,454.2912 1008.52007,450.8496 1062.69049,431.7296 Z" id="Shape"></path>
                <path d="M618.112944,546.832 C614.691654,541.2872 625.90588,537.8456 637.880393,540.9048 C645.863402,543.008 647.003831,544.3464 642.632184,547.0232 C635.21939,551.8032 620.964018,551.612 618.112944,546.832 Z" id="Shape"></path>
                <path d="M436.024321,647.7856 C433.173247,622.1648 437.544894,613.9432 452.560553,617.576 C478.98051,624.268 481.641513,642.2408 458.452774,658.3016 C438.495252,672.2592 439.065467,672.4504 436.024321,647.7856 Z" id="Shape"></path>
                <path d="M383.184408,657.3456 C359.805597,651.8008 354.863735,647.4032 346.500583,625.0328 C336.997001,599.412 336.616858,590.4256 344.98001,585.6456 C358.285024,578.1888 400.290855,601.7064 414.356155,624.6504 C426.710811,644.5352 425.190238,647.5944 404.282359,645.1088 L386.225554,643.0056 L402.381643,648.7416 C431.652674,659.2576 417.587373,665.5672 383.184408,657.3456 Z" id="Shape"></path>
                <path d="M620.964018,637.8432 C623.625021,629.8128 634.649175,625.0328 639.400966,629.8128 C641.681826,632.1072 642.442112,635.9312 641.111611,638.2256 C637.690322,643.9616 619.063302,643.5792 620.964018,637.8432 Z" id="Shape"></path>
                <path d="M464.344994,612.0312 C456.552057,607.06 461.113776,603.6184 476.319507,602.8536 C485.252874,602.4712 488.864235,604.0008 488.864235,608.016 C488.864235,614.708 472.518074,617.3848 464.344994,612.0312 Z" id="Shape"></path>
                <path d="M175.246044,567.6728 C149.20623,562.7016 116.703981,556.2008 103.018824,553.1416 C89.5237381,550.0824 60.8229219,544.5376 39.3448276,540.7136 C-18.8170915,530.7712 -14.6355156,525.4176 86.8627353,479.912 C99.9776778,473.9848 110.051474,468.6312 109.291188,467.8664 C108.530901,466.9104 87.6230218,475.132 62.7236382,485.8392 C-7.03265034,516.0488 0.380143262,515.0928 0.380143262,494.252 L0.570214893,476.088 L74.8882226,440.5248 C176.196402,391.7688 176.766617,391.7688 222.954023,428.6704 C250.514409,450.6584 252.034983,452.5704 249.754123,464.0424 C246.142762,481.6328 241.961186,484.3096 187.030485,504.5768 C135.14093,523.6968 130.389139,525.9912 134.570715,530.1976 C135.901216,531.536 143.31401,529.624 150.916875,525.8 C165.932534,518.7256 239.110112,493.296 244.812261,493.296 C248.23355,493.296 245.192404,556.5832 241.2009,570.732 C238.92004,579.1448 233.978178,578.9536 175.246044,567.6728 Z" id="Shape"></path>
                <path d="M336.616858,530.3888 C335.286357,527.1384 335.6665,517.7696 337.377145,509.3568 L340.608362,494.252 L362.4666,503.812 C387.556055,514.9016 389.076628,518.3432 371.78011,525.8 C348.781443,535.36 338.897718,536.6984 336.616858,530.3888 Z" id="Shape"></path>
                <path d="M384.324838,507.0624 C316.089122,478.5736 201.856072,413.1832 196.724138,399.7992 C191.592204,386.0328 202.046144,375.708 207.748293,389.2832 C216.871731,411.08 244.242046,427.5232 334.335999,465.1896 C400.100783,492.7224 418.537731,502.6648 418.537731,510.8864 C418.537731,518.3432 408.654006,517.3872 384.324838,507.0624 Z" id="Shape"></path>
                <path d="M274.083292,490.6192 C256.976845,484.3096 248.803765,464.9984 260.968349,460.2184 C270.471931,456.5856 276.744295,465.1896 271.042146,474.176 C264.769782,484.5008 271.802432,483.9272 278.454939,473.6024 L283.967016,465.572 L300.123105,473.7936 C316.849409,482.3976 318.17991,491.5752 302.023821,488.516 C297.081959,487.56 291.950025,488.1336 290.809595,490.0456 C288.718807,493.6784 282.826587,493.8696 274.083292,490.6192 Z" id="Shape"></path>
                <path d="M0.380143262,417.1984 C0.380143262,366.7216 0.760286523,363.8536 8.93336665,357.9264 L17.48659,351.6168 L8.93336665,353.9112 L0.380143262,356.2056 L0.380143262,250.2808 C0.380143262,153.916 0.950358154,143.7824 7.03265034,139.0024 C13.3050142,134.0312 13.3050142,133.84 7.03265034,136.1344 C0.950358154,138.2376 0.380143262,133.4576 0.380143262,69.2144 L0.380143262,0 L132.479927,0 L264.57971,0.1912 L180.948193,43.2112 C84.2017325,93.1144 15.5858737,130.016 15.5858737,132.1192 C15.5858737,132.884 74.3180077,103.4392 146.165084,66.7288 L276.744295,0 L708.777111,0 L1140.80993,0 L1140.80993,65.008 L1140.80993,129.8248 L1122.75312,139.3848 C1102.60553,149.9008 1103.36582,152.1952 1124.2737,143.4 C1131.87656,140.1496 1138.52907,137.664 1139.28936,137.664 C1140.23971,137.664 1140.80993,161.3728 1140.80993,190.244 L1140.80993,242.824 L1124.65384,249.3248 C1094.43245,261.7528 1096.52324,262.1352 1093.86224,241.868 C1090.63102,217.968 1073.52457,191.0088 1052.61669,176.2864 C1043.68333,169.9768 1033.41946,162.52 1030.18824,159.4608 C1026.76695,156.4016 1017.26337,152.7688 1009.28036,151.2392 C1001.10728,149.7096 984.000833,143.4 971.075962,137.2816 C958.341163,131.1632 944.656005,126.192 940.664501,126.192 C936.863068,126.0008 919.186407,121.0296 901.699817,114.72 C884.023155,108.4104 859.313843,101.5272 846.579044,99.2328 C833.844245,96.7472 822.439947,93.4968 821.489589,91.5848 C815.977511,82.7896 667.911711,102.4832 619.063302,118.7352 C542.464434,144.1648 417.397301,230.5872 385.845411,280.108 C379.95319,289.2856 368.929035,298.4632 354.863735,305.7288 C342.889222,311.8472 334.335999,317.2008 336.046643,317.2008 C337.567216,317.392 345.550225,313.9504 353.533233,309.9352 C371.590038,300.7576 372.92054,301.9048 372.92054,327.7168 C372.92054,358.6912 388.12627,383.356 419.488089,403.432 C425.190238,407.0648 428.991671,411.4624 427.851241,413.1832 C426.900883,414.904 432.41296,417.0072 440.395969,417.772 L454.651341,419.1104 L432.603032,429.4352 C368.358821,459.836 338.707646,464.0424 338.707646,443.2016 C338.707646,432.6856 345.930368,434.4064 350.111944,445.6872 C352.202732,451.0408 355.624021,454.4824 357.714809,453.144 C362.4666,450.276 348.971514,430.0088 338.707646,424.464 C319.32034,414.1392 311.717475,412.8008 315.708979,420.4488 C327.49342,442.2456 318.750125,447.7904 291.569882,436.1272 C272.942862,428.0968 270.662002,424.464 279.785441,416.816 C286.628019,411.08 298.41246,418.5368 295.371314,426.7584 C294.420956,429.244 295.941529,432.4944 298.982675,433.6416 C302.97418,435.1712 304.494753,432.6856 304.494753,424.464 C304.494753,409.9328 291.189738,405.7264 273.703148,414.5216 C256.976845,422.9344 254.695985,422.552 235.118607,407.4472 C206.797934,385.6504 208.508579,374.3696 242.151258,361.368 C265.339997,352.5728 261.538564,350.4696 236.63918,358.5 C214.020656,365.7656 207.748293,362.324 210.789439,344.5424 C211.929868,338.6152 208.508579,329.82 201.285857,319.8776 C195.203565,311.4648 191.021989,302.2872 191.972347,299.8016 C193.112777,296.9336 188.551058,294.2568 180.758121,292.7272 C159.280027,288.712 164.602032,284.5056 232.267533,251.8104 C267.810928,234.6024 296.321672,219.88 295.371314,219.1152 C294.611028,218.1592 280.355656,224.2776 264.009495,232.4992 C247.663335,240.7208 217.441946,254.8696 197.104281,263.856 L159.850242,280.2992 L136.281359,273.0336 C53.9803432,247.7952 -17.48659,294.8304 30.7916042,342.248 C50.1789105,361.1768 49.9888389,363.28 27.1802432,376.664 C16.7263035,382.7824 8.74329502,388.3272 9.69365317,389.092 C10.4539397,389.8568 20.3376645,385.268 31.7419624,378.7672 C54.9307013,365.5744 64.2442112,364.8096 85.7223055,374.3696 L100.928036,381.0616 L80.2102282,395.2104 C55.3108446,412.036 57.2115609,413.948 82.6811594,397.696 C102.068466,385.268 114.803265,383.7384 137.421789,390.6216 C150.34666,394.4456 151.297018,408.212 138.372147,404.5792 C136.661503,404.1968 128.488422,407.4472 120.125271,411.6536 C111.762119,416.0512 101.308179,420.8312 96.9365317,422.1696 C92.5648842,423.508 70.3265034,434.7888 47.5179077,447.408 C24.709312,460.0272 4.75179077,470.352 3.23121772,470.352 C1.71064468,470.352 0.380143262,446.452 0.380143262,417.1984 Z M283.20673,282.4024 C339.658004,258.12 381.853906,237.2792 379.382975,234.6024 C376.151757,231.352 346.310511,240.912 346.310511,245.3096 C346.310511,247.604 343.83958,248.3688 340.798434,247.2216 C337.94736,246.0744 334.906214,246.8392 334.145927,248.7512 C333.575712,250.6632 309.056472,263.4736 279.785441,277.24 C216.491588,306.876 218.582375,310.1264 283.20673,282.4024 Z M279.975512,270.9304 C295.561386,264.2384 307.72597,258.3112 306.965684,257.5464 C305.635182,256.208 251.274696,278.196 247.853407,281.4464 C243.671831,285.2704 253.745627,282.02 279.975512,270.9304 Z M1042.16275,89.864 C1052.42662,84.5104 1060.97984,79.348 1060.97984,78.2008 C1060.97984,76.48 1023.34566,94.4528 1019.54423,97.8944 C1014.98251,102.1008 1025.24638,98.2768 1042.16275,89.864 Z" id="Shape"></path>
                <path d="M323.501916,437.848 C323.501916,424.0816 328.63385,419.8752 332.625354,430.5824 C336.616858,441.2896 335.096285,451.232 329.204065,451.232 C325.21256,451.232 323.501916,447.2168 323.501916,437.848 Z" id="Shape"></path>
                <path d="M589.602199,441.4808 C586.561053,440.9072 571.165251,438.4216 555.389305,435.936 C215.731301,381.0616 435.644178,136.5168 825.291021,135.9432 C1193.64984,135.1784 1137.76878,384.312 757.625521,437.6568 C720.751624,442.8192 608.989505,445.496 589.602199,441.4808 Z M692.811094,399.7992 C902.270032,377.4288 1044.82375,292.1536 980.1994,227.528 C901.319673,148.7536 602.907213,173.992 500.458604,268.0624 C426.900883,335.7472 480.311011,389.2832 637.120107,404.9616 C639.210895,405.1528 664.30035,402.8584 692.811094,399.7992 Z" id="Shape"></path>
                <path d="M611.080293,390.048 C554.629019,382.9736 515.664334,368.8248 496.657171,348.5576 C481.451441,332.1144 485.062802,331.1584 511.67283,344.3512 C542.844578,359.8384 585.04048,367.2952 638.450608,366.5304 L682.737298,365.9568 L646.623688,362.7064 C507.871398,350.0872 461.113776,323.128 501.028819,278.9608 C565.463102,207.2608 850.380476,162.7112 942.565217,210.1288 C1006.61936,242.824 932.871564,306.876 785.375979,346.4544 C751.7333,355.632 751.543228,355.632 773.781609,353.5288 C832.323671,348.3664 941.424788,296.1688 971.646177,259.2672 L981.910045,246.648 L979.819257,261.3704 C969.175246,336.1296 760.476595,408.9768 611.080293,390.048 Z" id="Shape"></path>
                <path d="M156.238881,382.0176 C64.8144261,357.3528 26.9901716,337.2768 26.9901716,313.3768 C26.9901716,264.2384 160.040313,296.1688 188.741129,352.1904 C203.94686,381.6352 192.732634,391.7688 156.238881,382.0176 Z" id="Shape"></path>
                <path d="M187.220556,336.8944 C174.8659,308.0232 134.0005,288.1384 72.607363,281.064 C51.3193403,278.5784 49.2285524,277.6224 57.4016325,274.5632 C85.1520906,263.856 147.495586,280.4904 176.766617,306.4936 C198.054639,325.2312 207.558221,339.9536 193.682992,332.4968 L184.939697,327.7168 L191.782276,338.0416 C195.583708,343.7776 197.864568,350.2784 197.104281,352.764 C196.343995,355.0584 191.972347,347.984 187.220556,336.8944 Z" id="Shape"></path>
                <path d="M549.687156,160.608 C603.477428,124.6624 746.411294,96.7472 826.431451,106.4984 C885.923871,113.9552 881.552224,117.9704 813.886723,118.3528 C723.412627,118.7352 654.036482,130.016 576.487256,156.5928 C536.572214,170.3592 534.671498,170.5504 549.687156,160.608 Z" id="Shape"></path>
            </g>
        </g>
    </g>
</svg>