<?xml version="1.0" standalone="no"?>
<!DOCTYPE svg PUBLIC "-//W3C//DTD SVG 20010904//EN"
 "http://www.w3.org/TR/2001/REC-SVG-20010904/DTD/svg10.dtd">
<svg version="1.0" xmlns="http://www.w3.org/2000/svg"
 width="300.000000pt" height="421.000000pt" viewBox="0 0 300.000000 421.000000"
 preserveAspectRatio="xMidYMid meet">
<metadata>
Created by potrace 1.10, written by Peter Selinger 2001-2011
</metadata>
<g transform="translate(0.000000,421.000000) scale(0.100000,-0.100000)"
fill="#000000" stroke="none">
<path d="M1739 4117 c-55 -41 -105 -107 -119 -155 -6 -20 -13 -67 -17 -103
l-6 -66 -56 -16 c-31 -9 -86 -34 -123 -56 -37 -23 -69 -41 -71 -41 -3 0 -8 19
-11 43 -12 81 -86 171 -146 179 -21 2 -25 -1 -23 -19 2 -15 -3 -23 -13 -23 -8
0 -25 -5 -37 -12 -19 -10 -20 -12 -4 -17 13 -5 -11 -36 -118 -148 -125 -132
-135 -145 -135 -181 0 -82 54 -213 116 -282 45 -49 106 -89 112 -72 3 9 9 9
24 1 11 -6 22 -8 26 -5 3 3 0 6 -6 6 -7 0 -30 16 -52 36 -22 20 -40 32 -40 27
0 -5 6 -15 13 -22 10 -10 9 -11 -5 -6 -43 17 -122 142 -152 244 -27 90 -23
103 40 157 66 57 235 249 227 258 -4 3 8 6 26 6 23 0 30 4 26 13 -4 6 11 -6
33 -29 52 -53 93 -167 69 -191 -14 -14 -17 -11 -31 38 -36 129 -36 129 -31 67
3 -32 25 -110 51 -178 74 -200 78 -276 17 -379 -29 -49 -43 -42 -43 21 0 20
-4 39 -9 42 -10 7 -26 -72 -17 -81 3 -4 7 2 8 13 0 10 4 -1 7 -26 l6 -45 43
43 c82 84 91 191 28 366 l-34 96 73 49 c110 73 229 111 352 111 23 0 45 5 48
10 4 6 -25 10 -81 10 l-86 0 7 57 c14 110 74 224 121 228 10 2 28 6 38 10 14
6 17 5 12 -4 -5 -8 -3 -11 5 -10 8 2 39 -5 69 -16 44 -15 85 -19 205 -19 l149
-1 23 -33 c70 -105 84 -252 34 -358 -16 -34 -34 -65 -41 -69 -9 -6 -9 -2 0 15
6 12 10 24 7 26 -3 3 -18 -20 -35 -50 -33 -57 -59 -84 -49 -50 4 11 9 33 12
49 5 28 -2 14 -30 -64 -4 -9 -17 2 -41 33 -19 25 -37 46 -39 46 -2 0 1 -14 6
-32 5 -17 7 -33 5 -36 -5 -5 -67 57 -99 100 -29 38 -87 152 -141 279 -42 98
-77 139 -104 123 -26 -16 -61 -93 -67 -149 l-5 -50 18 60 c20 67 34 96 55 113
22 18 39 -7 108 -163 69 -156 95 -202 149 -261 21 -22 43 -58 50 -80 13 -41
106 -229 137 -277 16 -24 16 -29 3 -38 -12 -8 -10 -9 8 -4 14 4 22 2 22 -5 0
-7 62 -73 139 -148 121 -120 140 -144 156 -191 37 -115 0 -304 -73 -374 -16
-15 -66 -39 -122 -57 -90 -29 -291 -70 -348 -70 -20 0 -23 -3 -13 -9 8 -5 28
-8 45 -6 17 2 59 6 92 9 53 6 181 37 249 61 38 13 -27 -36 -89 -67 -113 -57
-207 -75 -311 -58 -111 17 -187 59 -329 179 -18 15 -18 15 -7 -6 11 -22 10
-22 -15 -13 -18 7 -30 7 -39 0 -19 -16 -31 6 -49 97 -33 165 -142 429 -231
563 -21 30 -38 61 -39 69 -2 13 -42 40 -60 41 -4 0 -5 -11 -2 -24 4 -15 1 -26
-7 -29 -7 -3 -5 -6 6 -6 11 -1 17 6 17 21 0 55 160 -244 229 -427 36 -96 40
-115 31 -145 -5 -19 -10 -58 -10 -87 0 -47 -3 -54 -27 -67 -35 -18 -109 -95
-160 -166 -79 -112 -144 -222 -139 -236 3 -8 -3 -29 -14 -47 -12 -18 -20 -50
-20 -74 0 -24 -2 -43 -5 -43 -10 0 -90 54 -148 100 -31 25 -80 73 -109 108
-30 37 -56 61 -64 58 -9 -3 -15 7 -20 29 -6 36 -18 45 -28 23 -8 -21 -33 18
-46 73 -14 56 -24 55 -41 -2 l-13 -40 -12 28 -12 28 -10 -25 c-16 -41 -23
-143 -13 -179 l10 -34 -24 23 c-23 22 -25 22 -25 4 0 -10 9 -34 20 -52 11 -18
20 -40 20 -49 0 -9 21 -36 46 -61 32 -30 40 -42 25 -37 -53 16 -1 -44 79 -92
62 -38 187 -74 275 -80 l83 -6 7 -68 c4 -38 11 -69 15 -69 5 0 16 -26 25 -57
20 -70 54 -130 97 -174 19 -18 37 -50 43 -73 7 -29 20 -47 45 -64 38 -25 80
-113 80 -167 0 -45 31 -70 85 -70 109 0 147 117 47 145 -25 7 -44 21 -60 46
-13 20 -22 37 -20 38 2 1 19 9 38 17 32 15 37 15 60 0 18 -12 46 -16 111 -14
l88 1 20 -61 c11 -34 32 -110 46 -170 l26 -107 -20 -27 c-29 -36 -27 -78 4
-99 36 -24 109 -30 137 -12 13 8 45 17 73 21 37 4 55 12 72 32 32 36 29 52
-17 97 l-41 38 17 55 18 55 47 0 c36 0 55 6 75 24 27 23 27 24 13 62 -10 26
-25 44 -46 54 l-31 15 33 80 c18 44 55 130 82 190 92 202 117 307 117 485 -1
131 -21 237 -64 331 -26 59 -25 66 13 85 51 27 177 154 204 208 32 62 56 179
48 231 -16 110 -31 133 -169 270 -142 141 -180 192 -268 360 -57 109 -69 140
-46 117 23 -23 41 -14 33 16 -6 27 -6 27 24 -8 25 -30 30 -32 31 -15 0 14 3
16 8 7 13 -20 127 93 153 153 45 103 31 257 -33 351 -36 53 -70 64 -195 64
-98 0 -231 14 -242 26 -3 2 4 11 15 19 19 14 18 14 -3 15 -12 0 -34 -5 -48
-10 -24 -9 -26 -8 -20 10 9 27 4 26 -46 -13z m-269 -1586 c0 -52 12 -90 36
-116 25 -27 30 -50 16 -73 -11 -17 -40 15 -58 65 -15 44 -19 153 -4 153 6 0
10 -13 10 -29z m-22 -140 c6 -16 26 -47 46 -69 21 -23 36 -50 36 -65 0 -20 9
-29 45 -46 50 -23 65 -26 65 -11 0 19 41 10 64 -15 18 -19 33 -25 62 -24 22 0
63 -4 92 -10 37 -8 59 -7 76 1 38 17 57 5 50 -32 -6 -27 -4 -30 12 -23 11 3
22 11 26 17 5 7 8 4 8 -6 0 -12 -8 -18 -22 -18 -19 0 -20 -2 -8 -10 11 -7 12
-10 2 -10 -8 0 -22 10 -31 22 -13 16 -24 19 -44 14 -32 -8 -44 -41 -24 -64 11
-12 13 -22 6 -35 -25 -44 30 -88 62 -48 19 23 77 29 96 10 6 -6 21 -9 34 -7
23 3 24 7 24 78 l0 75 -35 0 c-29 0 -36 -4 -38 -22 -2 -13 -10 -23 -19 -23
-13 0 -13 3 -3 15 10 12 10 21 1 41 -15 34 -16 32 25 49 20 8 53 30 74 49 21
18 54 39 75 46 44 15 47 12 71 -70 32 -111 44 -188 44 -300 0 -174 -31 -293
-130 -505 -58 -126 -132 -312 -170 -430 -29 -92 -30 -101 -15 -110 47 -28 65
-48 65 -73 l0 -27 -20 33 c-11 17 -22 32 -25 32 -4 0 1 -10 9 -22 19 -27 21
-55 4 -61 -7 -2 -21 12 -31 32 -17 35 -18 31 -3 -16 6 -20 4 -23 -17 -23 -21
0 -26 6 -31 38 -10 56 -9 72 8 137 20 79 53 279 62 379 7 80 9 85 114 278 11
21 20 43 20 50 -1 7 -10 -3 -20 -22 l-19 -35 5 35 c3 19 -8 -1 -24 -45 -27
-79 -84 -189 -103 -200 -5 -4 -9 6 -9 22 l-1 28 -16 -30 c-9 -16 -41 -54 -72
-85 l-56 -55 -3 50 c-2 28 2 73 8 100 7 28 10 61 7 75 -3 16 -5 8 -6 -20 -1
-44 -13 -46 -24 -5 -3 11 -5 -59 -3 -155 3 -198 23 -307 82 -441 20 -46 31
-84 27 -97 -9 -35 -23 -26 -25 16 l-1 37 -4 -37 c-4 -32 -8 -38 -28 -38 -22 0
-23 3 -19 38 4 40 0 35 -10 -11 -6 -24 -9 -26 -26 -17 -24 13 -26 52 -5 70 20
17 19 58 -5 160 -45 187 -78 265 -186 431 -37 57 -87 140 -111 184 -25 44 -41
69 -38 55 9 -35 79 -171 120 -236 19 -30 30 -54 24 -54 -17 0 -72 31 -139 80
-65 46 -183 116 -145 85 65 -52 213 -150 260 -170 30 -14 61 -35 69 -48 18
-27 40 -86 34 -92 -2 -2 -20 0 -41 4 -30 7 -37 6 -37 -6 0 -15 -35 -12 -87 8
-28 11 -28 10 2 55 32 47 24 57 -11 15 -38 -46 -99 -74 -160 -75 -66 -1 -87
17 -103 89 -10 42 -17 55 -29 53 -25 -5 -78 85 -114 192 -33 99 -38 176 -22
319 5 38 3 52 -4 47 -8 -5 -8 2 -1 24 6 16 15 33 20 36 5 3 9 10 9 15 0 6 -4
7 -10 4 -16 -10 -12 5 10 36 12 16 20 34 18 42 -8 34 255 377 289 377 6 0 16
-13 21 -29z m156 -1 c14 -5 26 -14 26 -20 0 -6 -11 -5 -29 4 -16 9 -31 12 -35
9 -3 -4 -6 -1 -6 5 0 15 11 15 44 2z m71 -40 c3 -5 4 -10 1 -10 -3 0 -8 5 -11
10 -3 6 -4 10 -1 10 3 0 8 -4 11 -10z m-28 -16 c24 -9 43 -21 43 -26 0 -5 5
-6 10 -3 6 4 10 -10 10 -34 0 -22 -4 -42 -8 -45 -4 -2 -34 7 -65 21 -55 25
-57 27 -57 64 0 44 6 46 67 23z m-56 -94 c16 -7 27 -15 25 -18 -3 -2 -19 1
-36 8 -25 10 -30 18 -29 44 2 29 2 29 6 4 3 -17 14 -30 34 -38z m151 8 c-5
-71 -10 -77 -11 -15 0 31 2 57 7 57 4 0 6 -19 4 -42z m126 0 c76 -23 89 -40
55 -70 -16 -14 -26 -14 -82 -2 -69 14 -81 24 -81 65 0 29 9 42 24 35 6 -3 44
-15 84 -28z m-1228 -16 c0 -10 16 -42 35 -72 19 -30 35 -48 35 -40 0 8 12 -5
26 -29 17 -28 29 -39 34 -31 7 11 56 -54 90 -119 11 -21 10 -23 -5 -17 -13 4
-16 2 -11 -9 6 -18 2 -19 -25 -5 -24 13 -25 3 -2 -22 16 -18 16 -19 -12 -8
l-30 11 25 -27 25 -27 -55 7 c-47 6 -53 5 -40 -7 21 -19 111 -11 103 9 -4 10
0 12 11 8 19 -7 21 7 5 23 -9 9 -6 10 11 6 18 -5 21 -3 15 7 -6 10 -4 12 8 7
22 -8 21 2 -3 33 -32 41 -23 44 23 5 23 -20 70 -50 105 -67 53 -27 63 -35 58
-52 -3 -12 -6 -45 -6 -74 l0 -53 -37 6 c-146 24 -313 75 -313 96 0 5 18 9 41
9 22 0 38 4 35 9 -3 5 -24 7 -45 4 -22 -3 -52 -2 -68 2 -26 6 -27 8 -10 20 17
12 15 16 -28 45 -35 24 -44 35 -34 41 11 6 6 17 -21 45 l-35 37 33 -22 c38
-27 40 -17 7 40 -28 51 -34 84 -9 53 15 -19 16 -19 8 1 -4 11 -10 47 -12 80
l-4 60 20 -25 21 -25 7 43 c6 41 24 59 24 24z m1337 -39 c-3 -10 -5 -4 -5 12
0 17 2 24 5 18 2 -7 2 -21 0 -30z m33 -37 c0 -64 -6 -56 -14 19 -4 41 -3 55 4
45 5 -8 10 -37 10 -64z m74 57 c-10 -7 -24 -11 -32 -8 -7 2 -10 0 -7 -5 3 -6
0 -10 -8 -10 -16 0 -30 24 -19 34 3 4 23 6 45 4 35 -2 37 -3 21 -15z m34 -124
c2 -9 -4 -23 -12 -32 -14 -13 -14 -16 -1 -27 20 -16 19 -49 0 -57 -9 -3 -24 2
-34 11 -22 20 -96 12 -105 -10 -7 -18 -42 -18 -49 0 -3 7 1 23 9 34 12 17 12
22 -1 32 -19 16 -19 46 0 54 14 5 39 -13 47 -33 1 -5 12 -10 23 -11 35 -4 63
11 70 37 4 18 11 23 28 21 12 -2 23 -10 25 -19z m-108 -777 c0 -16 -37 -41
-82 -56 -28 -9 -21 13 7 24 14 5 25 16 25 24 0 9 6 13 14 10 8 -3 17 -1 21 5
9 16 15 13 15 -7z m-15 -94 c-11 -82 -17 -85 -59 -31 l-37 48 28 6 c16 3 38
11 48 17 11 6 22 12 23 12 2 0 1 -24 -3 -52z m-39 -233 c-21 -130 -28 -148
-44 -108 -20 50 -42 137 -57 223 -19 108 -19 118 3 122 11 2 33 -17 66 -61
l49 -64 -17 -112z m-526 128 c19 -36 33 -49 57 -55 36 -9 56 -37 43 -57 -6
-11 -10 -9 -19 5 -11 17 -11 16 -5 -5 4 -15 1 -27 -7 -32 -23 -15 -49 -10 -49
9 0 9 -5 24 -10 32 -7 11 -8 6 -4 -17 4 -21 2 -33 -4 -33 -21 0 -42 32 -42 64
0 18 -11 54 -25 80 -14 26 -25 49 -25 52 0 2 15 4 33 4 28 0 35 -6 57 -47z
m715 -18 c14 -13 25 -32 24 -42 0 -14 -2 -13 -9 5 -13 30 -22 28 -14 -4 10
-39 -17 -52 -33 -16 l-12 27 -1 -27 c0 -21 -5 -28 -20 -28 -20 0 -20 0 0 53
11 28 20 53 20 55 0 10 25 -2 45 -23z"/>
<path d="M1980 2018 c0 -4 7 -8 15 -8 8 0 15 4 15 8 0 5 -7 9 -15 9 -8 0 -15
-4 -15 -9z"/>
<path d="M2020 2020 c0 -7 3 -10 7 -7 3 4 3 10 0 14 -4 3 -7 0 -7 -7z"/>
<path d="M2040 2020 c0 -5 5 -10 11 -10 5 0 7 5 4 10 -3 6 -8 10 -11 10 -2 0
-4 -4 -4 -10z"/>
<path d="M1591 3744 c-2 -23 72 -239 124 -364 66 -160 95 -211 140 -246 52
-40 95 -41 208 -4 119 38 124 50 7 15 -139 -42 -195 -31 -248 48 -36 52 -119
248 -183 427 -26 74 -48 130 -48 124z"/>
<path d="M1716 3511 c-3 -5 4 -21 16 -36 20 -26 24 -27 92 -23 75 5 172 40
161 58 -8 12 -262 14 -269 1z m248 -13 c-6 -9 -136 -38 -172 -38 -17 0 -37 9
-50 23 l-22 24 124 -1 c68 -1 122 -4 120 -8z"/>
<path d="M1901 3401 c-13 -3 -33 -18 -43 -32 -20 -27 -37 -111 -22 -108 5 1
17 -2 28 -6 31 -13 51 8 49 50 -2 32 -1 35 12 25 18 -15 20 -71 3 -88 -7 -7
-24 -12 -38 -12 -14 0 -31 5 -38 12 -26 26 -11 -32 16 -63 47 -53 130 -39 158
26 45 108 -30 224 -125 196z m70 -21 c45 -25 64 -122 34 -179 -24 -46 -74 -55
-119 -20 -25 19 -38 47 -15 34 18 -12 67 16 79 45 17 40 -5 82 -49 96 -32 10
-33 12 -15 22 24 14 60 15 85 2z m-91 -43 c-27 -15 -36 -14 -25 2 3 6 16 11
28 11 21 0 21 -1 -3 -13z m20 -17 c0 -5 -4 -10 -10 -10 -5 0 -10 5 -10 10 0 6
5 10 10 10 6 0 10 -4 10 -10z"/>
<path d="M1559 3328 c-29 -35 -71 -82 -93 -105 -35 -37 -37 -43 -20 -43 26 0
84 41 147 104 47 47 53 60 41 90 -10 25 -19 20 -75 -46z m71 27 c0 -14 -102
-120 -131 -136 -10 -5 12 28 49 75 63 79 82 93 82 61z"/>
<path d="M1306 3224 c-9 -26 -14 -49 -12 -51 2 -2 11 17 20 43 9 26 14 49 12
51 -2 2 -11 -17 -20 -43z"/>
<path d="M1580 3211 c-81 -85 -48 -202 57 -201 71 1 153 66 153 122 0 70 -52
118 -126 118 -42 0 -51 -4 -84 -39z m89 10 c7 -5 10 -14 7 -20 -4 -6 -12 -9
-17 -5 -5 3 -6 10 -3 16 4 6 -1 8 -11 6 -27 -5 -42 -34 -29 -55 25 -41 74 -21
74 29 0 17 4 27 10 23 16 -10 12 -62 -6 -79 -22 -23 -81 -21 -94 3 -29 54 20
113 69 82z m97 -49 c16 -35 12 -65 -15 -96 -40 -47 -145 -62 -181 -26 -23 23
-27 79 -8 113 l12 22 6 -24 c3 -13 18 -33 33 -45 33 -24 69 -15 100 26 16 22
18 31 9 57 -10 29 -10 30 9 18 10 -6 26 -27 35 -45z"/>
<path d="M2144 2930 c-132 -34 -235 -99 -286 -179 -56 -89 -30 -154 84 -207
57 -26 73 -29 173 -29 137 0 187 17 244 82 47 53 75 127 75 204 1 71 -16 104
-69 129 -52 25 -126 25 -221 0z m199 -14 c60 -25 83 -72 71 -147 -5 -30 -13
-43 -30 -49 -30 -12 -66 -82 -58 -114 5 -20 -1 -27 -47 -50 -60 -29 -143 -37
-133 -12 8 20 -46 46 -95 46 -49 0 -71 -8 -71 -26 0 -21 -55 3 -96 41 -41 39
-44 71 -9 131 72 122 351 230 468 180z m32 -263 c-18 -33 -35 -43 -35 -20 0 6
10 28 22 47 27 44 39 21 13 -27z m-276 -84 c17 -6 31 -14 31 -19 0 -13 -49
-18 -87 -10 -43 10 -52 18 -33 30 20 13 50 12 89 -1z"/>
<path d="M960 729 c-52 -23 -139 -80 -140 -92 0 -4 -9 -17 -20 -29 -36 -39
-84 -248 -59 -263 5 -4 9 -21 9 -38 0 -39 30 -107 73 -165 41 -55 125 -99 211
-111 64 -9 78 -7 191 26 42 13 165 105 165 125 0 4 13 35 30 69 27 56 29 68
25 143 -6 103 -14 156 -26 156 -5 0 -18 20 -29 44 -21 43 -67 88 -125 118 -77
42 -229 50 -305 17z m267 -31 c60 -22 153 -104 153 -135 0 -9 8 -25 17 -35 14
-16 17 -40 17 -126 1 -101 -1 -110 -31 -167 -39 -75 -72 -107 -147 -141 -106
-48 -212 -49 -305 -2 -53 27 -72 44 -108 96 -34 50 -41 69 -38 95 4 24 3 27
-3 12 -8 -17 -10 -14 -16 20 -9 57 -10 116 -2 145 15 54 41 106 68 138 15 18
28 36 28 40 0 10 54 42 109 63 67 26 184 25 258 -3z"/>
<path d="M1025 660 c3 -5 11 -10 16 -10 6 0 7 5 4 10 -3 6 -11 10 -16 10 -6 0
-7 -4 -4 -10z"/>
<path d="M1232 631 c2 -8 15 -21 28 -30 17 -11 22 -12 19 -3 -3 8 -8 12 -11
10 -4 -2 -14 6 -23 17 -9 11 -15 14 -13 6z"/>
<path d="M873 583 c4 -3 10 -3 14 0 3 4 0 7 -7 7 -7 0 -10 -3 -7 -7z"/>
<path d="M920 579 c0 -5 5 -7 10 -4 6 3 10 8 10 11 0 2 -4 4 -10 4 -5 0 -10
-5 -10 -11z"/>
<path d="M885 560 c-3 -5 -2 -10 4 -10 5 0 13 5 16 10 3 6 2 10 -4 10 -5 0
-13 -4 -16 -10z"/>
<path d="M1123 553 c4 -3 10 -3 14 0 3 4 0 7 -7 7 -7 0 -10 -3 -7 -7z"/>
<path d="M904 535 c-10 -8 -14 -15 -8 -15 5 0 19 7 30 15 10 8 14 15 8 15 -5
0 -19 -7 -30 -15z"/>
<path d="M950 480 c-76 -14 -141 -70 -155 -135 -5 -26 -4 -24 13 10 48 100
159 140 273 100 147 -52 187 -237 76 -354 -26 -27 -27 -31 -9 -22 31 16 69 77
83 133 38 154 -114 299 -281 268z"/>
<path d="M790 469 c0 -5 5 -7 10 -4 6 3 10 8 10 11 0 2 -4 4 -10 4 -5 0 -10
-5 -10 -11z"/>
<path d="M784 408 c-4 -7 -3 -8 4 -4 7 4 12 9 12 12 0 8 -9 4 -16 -8z"/>
<path d="M900 370 c-8 -5 -12 -12 -9 -15 4 -3 12 1 19 10 14 17 11 19 -10 5z"/>
<path d="M1357 343 c-4 -3 -7 -11 -7 -17 0 -6 5 -5 12 2 6 6 9 14 7 17 -3 3
-9 2 -12 -2z"/>
<path d="M1050 290 c-13 -8 -12 -10 3 -10 9 0 17 5 17 10 0 12 -1 12 -20 0z"/>
<path d="M1326 235 c-9 -14 -12 -25 -7 -25 12 0 35 39 28 46 -2 3 -12 -7 -21
-21z"/>
<path d="M1142 170 c0 -14 2 -19 5 -12 2 6 2 18 0 25 -3 6 -5 1 -5 -13z"/>
</g>
</svg>
