<?xml version="1.0" standalone="no"?>
<!DOCTYPE svg PUBLIC "-//W3C//DTD SVG 20010904//EN"
 "http://www.w3.org/TR/2001/REC-SVG-20010904/DTD/svg10.dtd">
<svg version="1.0" xmlns="http://www.w3.org/2000/svg"
 width="300.000000pt" height="421.000000pt" viewBox="0 0 300.000000 421.000000"
 preserveAspectRatio="xMidYMid meet">
<metadata>
Created by potrace 1.10, written by Peter Selinger 2001-2011
</metadata>
<g transform="translate(0.000000,421.000000) scale(0.100000,-0.100000)"
fill="#ffffff" stroke="none">
<path d="M0 2105 l0 -2105 1500 0 1500 0 0 2105 0 2105 -1500 0 -1500 0 0
-2105z m1785 2025 c-6 -18 -4 -19 20 -10 14 5 36 10 48 10 21 -1 22 -1 3 -15
-11 -8 -18 -17 -15 -19 11 -12 144 -26 242 -26 125 0 159 -11 195 -64 64 -94
78 -248 33 -351 -26 -60 -140 -173 -153 -153 -5 9 -8 7 -8 -7 -1 -17 -6 -15
-31 15 -30 35 -30 35 -24 8 8 -30 -10 -39 -33 -16 -23 23 -11 -8 46 -117 88
-168 126 -219 268 -360 138 -137 152 -158 169 -271 8 -52 -16 -167 -48 -230
-27 -54 -153 -181 -204 -208 -38 -19 -39 -26 -13 -85 43 -94 63 -200 64 -331
0 -178 -25 -284 -117 -485 -27 -60 -65 -146 -83 -190 l-32 -80 31 -15 c21 -10
36 -28 46 -54 14 -38 14 -39 -13 -62 -20 -18 -39 -24 -75 -24 l-47 0 -18 -55
-17 -55 41 -38 c46 -45 49 -61 17 -97 -17 -20 -35 -28 -72 -32 -28 -4 -60 -13
-73 -21 -28 -18 -101 -12 -137 12 -31 21 -33 63 -4 99 l20 27 -26 107 c-14 60
-35 136 -46 170 l-20 61 -88 -1 c-65 -2 -93 2 -111 14 -23 15 -28 15 -60 0
-19 -8 -36 -16 -38 -17 -2 -1 7 -18 20 -38 16 -25 35 -39 60 -46 100 -28 62
-145 -47 -145 -54 0 -85 25 -85 70 0 54 -42 142 -80 167 -25 17 -38 35 -45 64
-6 23 -24 55 -43 73 -43 44 -77 104 -97 174 -9 31 -20 57 -25 57 -4 0 -11 31
-15 69 l-7 68 -83 6 c-133 9 -268 61 -343 131 -37 35 -41 50 -11 41 15 -5 7 7
-25 37 -25 25 -46 52 -46 61 0 9 -9 31 -20 49 -11 18 -20 42 -20 52 0 18 2 18
25 -4 l24 -23 -10 34 c-10 36 -3 138 13 179 l10 25 12 -28 12 -28 13 40 c17
57 27 58 41 2 13 -55 38 -94 46 -73 10 22 22 13 28 -23 5 -22 11 -32 20 -29 8
3 35 -22 66 -60 29 -36 78 -85 109 -109 59 -45 137 -97 146 -97 3 0 5 19 5 43
0 24 8 56 20 74 11 18 17 39 14 47 -5 14 60 124 139 236 51 71 125 148 160
166 24 13 27 20 27 67 0 28 5 68 10 89 9 32 6 49 -33 150 -74 189 -227 474
-227 420 0 -15 -6 -22 -17 -21 -11 0 -13 3 -6 6 8 3 11 14 7 29 -3 13 -2 24 2
24 18 -1 58 -28 60 -41 1 -8 18 -39 39 -69 89 -134 198 -398 231 -563 18 -91
30 -113 49 -97 9 7 21 7 39 0 25 -9 26 -9 15 13 -11 21 -11 21 7 6 138 -117
202 -153 308 -176 110 -23 211 -6 332 55 64 32 126 79 89 67 -97 -31 -197 -55
-253 -60 -37 -4 -79 -8 -93 -10 -15 -1 -33 1 -40 6 -10 6 -7 9 13 9 57 0 258
41 348 70 56 18 106 42 122 57 73 70 110 259 73 374 -16 47 -35 71 -156 191
-77 75 -139 141 -139 148 0 7 -8 9 -22 5 -18 -5 -20 -4 -8 4 13 9 13 14 -3 38
-31 48 -124 236 -137 277 -7 22 -29 58 -50 80 -54 59 -80 105 -149 261 -69
156 -86 181 -108 163 -21 -17 -35 -46 -55 -113 l-18 -60 5 50 c6 56 41 133 67
149 27 16 62 -25 104 -123 54 -127 112 -241 141 -279 32 -43 94 -105 99 -100
2 3 0 19 -5 36 -5 18 -8 32 -6 32 2 0 20 -21 39 -46 24 -31 37 -42 41 -33 28
78 35 92 30 64 -3 -16 -8 -38 -12 -49 -10 -34 16 -7 49 50 17 30 32 53 35 50
3 -2 -1 -14 -7 -26 -9 -17 -9 -21 0 -15 7 4 25 35 41 69 50 106 36 253 -34
358 l-23 33 -149 1 c-120 0 -161 4 -205 19 -30 11 -61 18 -69 16 -8 -1 -10 2
-5 10 5 9 2 10 -12 4 -10 -4 -28 -8 -38 -10 -47 -4 -107 -118 -121 -228 l-7
-57 86 0 c56 0 85 -4 81 -10 -3 -5 -30 -10 -58 -10 -119 -1 -247 -44 -356
-120 l-59 -41 34 -96 c63 -174 54 -281 -28 -365 l-43 -43 -6 45 c-3 25 -7 36
-7 26 -1 -11 -5 -17 -8 -13 -3 3 -3 25 1 48 8 47 24 36 25 -16 1 -57 15 -61
43 -14 61 103 57 179 -17 379 -26 68 -48 146 -51 178 -5 62 -5 62 31 -67 14
-49 17 -52 31 -38 24 24 -17 138 -69 191 -22 23 -37 35 -33 29 4 -9 -3 -13
-26 -13 -18 0 -30 -3 -26 -6 8 -9 -161 -201 -227 -258 -63 -54 -67 -67 -40
-157 30 -102 109 -227 152 -244 14 -5 15 -4 5 6 -7 7 -13 17 -13 22 0 5 18 -7
40 -27 22 -20 45 -36 52 -36 6 0 9 -3 6 -6 -4 -3 -15 -1 -26 5 -15 8 -21 8
-24 -1 -6 -17 -67 23 -112 72 -62 69 -116 200 -116 282 0 36 10 49 135 181
107 112 131 143 118 148 -16 5 -15 7 4 17 12 7 29 12 38 12 12 0 15 6 10 20
-5 17 -2 20 22 20 60 0 135 -90 149 -179 4 -23 8 -41 11 -41 2 0 34 18 71 41
37 22 92 47 123 56 l56 16 6 66 c11 121 52 198 140 262 47 34 50 35 42 9z
m-46 -770 c103 -244 144 -271 331 -215 117 35 112 23 -7 -15 -113 -37 -156
-36 -208 4 -45 35 -74 86 -140 246 -52 125 -126 341 -124 364 0 6 22 -50 48
-124 26 -74 72 -191 100 -260z m246 150 c11 -18 -86 -53 -161 -58 -68 -4 -72
-3 -92 23 -12 15 -19 31 -16 36 7 13 261 11 269 -1z m9 -128 c43 -39 57 -116
32 -177 -28 -65 -111 -79 -158 -26 -27 31 -42 89 -16 63 7 -7 24 -12 38 -12
14 0 31 5 38 12 17 17 15 73 -3 88 -13 10 -14 7 -12 -25 2 -42 -18 -63 -49
-50 -11 4 -23 7 -28 6 -15 -3 2 81 22 108 32 43 95 49 136 13z m-358 -17 c7
-28 -8 -50 -76 -111 -61 -55 -91 -74 -114 -74 -17 0 -14 7 20 43 22 23 64 70
93 105 29 34 57 62 62 62 5 0 11 -11 15 -25z m-322 -149 c-9 -26 -18 -45 -20
-43 -2 2 3 25 12 51 9 26 18 45 20 43 2 -2 -3 -25 -12 -51z m416 19 c58 -30
77 -110 38 -160 -25 -32 -91 -64 -131 -65 -79 0 -122 67 -92 146 32 84 110
118 185 79z m635 -305 c53 -25 70 -58 69 -129 0 -77 -28 -151 -75 -204 -57
-65 -107 -82 -244 -82 -100 0 -116 3 -173 29 -114 53 -140 118 -84 207 90 141
377 242 507 179z m-1177 -2191 c89 -20 170 -79 202 -145 11 -24 24 -44 29 -44
12 0 20 -52 26 -157 4 -74 2 -86 -25 -142 -17 -34 -30 -65 -30 -69 0 -20 -123
-112 -165 -125 -113 -33 -127 -35 -191 -26 -86 12 -170 56 -211 111 -43 58
-73 126 -73 165 0 17 -4 34 -9 38 -25 15 23 224 59 263 11 12 20 25 20 29 1
12 88 69 140 92 52 22 154 27 228 10z"/>
<path d="M1450 2508 c0 -68 15 -121 43 -154 l23 -26 11 25 c10 22 8 29 -17 56
-28 32 -40 69 -40 122 0 16 -4 29 -10 29 -5 0 -10 -24 -10 -52z"/>
<path d="M1360 2362 c-65 -69 -226 -300 -222 -319 2 -8 -6 -26 -18 -42 -22
-31 -26 -46 -10 -36 6 3 10 2 10 -4 0 -5 -4 -12 -9 -15 -5 -3 -14 -20 -20 -36
-7 -22 -7 -29 1 -24 7 5 9 -6 5 -37 -4 -24 -7 -87 -8 -139 -2 -83 2 -107 29
-190 36 -107 89 -197 114 -192 12 2 19 -11 29 -53 16 -72 37 -90 103 -89 61 1
122 29 160 75 35 42 43 32 11 -15 -30 -45 -30 -44 -2 -55 52 -20 87 -23 87 -8
0 12 7 13 37 7 20 -5 40 -7 44 -4 4 2 -4 28 -19 57 -24 46 -35 56 -97 87 -60
31 -186 113 -250 165 -38 31 80 -39 145 -85 67 -49 122 -80 139 -80 6 0 -4 24
-23 53 -40 63 -111 203 -121 237 -3 14 14 -11 38 -55 24 -44 78 -133 120 -198
89 -140 129 -231 168 -385 34 -135 36 -165 10 -199 -22 -27 -18 -48 10 -63 16
-9 19 -6 25 17 10 46 14 51 10 11 -4 -35 -3 -38 19 -38 19 0 24 6 28 33 l4 32
1 -32 c2 -38 17 -44 25 -11 4 13 -6 49 -24 91 -61 139 -81 243 -85 442 -2 99
-1 171 2 160 12 -41 24 -39 25 5 1 28 3 36 6 20 3 -14 0 -47 -7 -75 -6 -27
-10 -72 -8 -100 l3 -50 56 55 c31 31 63 69 72 85 l16 30 1 -28 c0 -16 4 -26 9
-22 19 11 76 121 103 200 16 44 27 64 24 45 l-5 -35 19 35 c10 19 19 29 20 22
0 -7 -9 -29 -20 -50 -105 -193 -107 -198 -114 -278 -9 -103 -42 -303 -63 -379
-17 -63 -18 -78 -7 -137 5 -32 10 -38 31 -38 21 0 23 3 17 23 -15 47 -14 51 3
16 10 -20 24 -34 31 -32 17 6 15 34 -4 61 -8 12 -13 22 -9 22 3 0 14 -15 25
-32 l20 -33 0 27 c0 25 -18 45 -65 73 -15 9 -14 18 15 110 39 122 110 299 184
462 86 188 108 271 113 438 5 148 -4 217 -48 356 l-21 67 -47 -19 c-25 -11
-59 -33 -76 -49 -16 -16 -47 -36 -67 -45 -43 -17 -42 -15 -27 -49 9 -20 9 -29
-1 -41 -10 -12 -10 -15 3 -15 9 0 17 10 19 23 2 18 9 22 38 22 l35 0 0 -75 c0
-71 -1 -75 -24 -78 -13 -2 -28 1 -34 7 -19 19 -77 13 -96 -10 -32 -40 -87 4
-62 48 7 13 5 23 -6 35 -20 23 -8 56 24 64 20 5 31 2 44 -14 9 -12 23 -22 31
-22 10 0 9 3 -2 10 -12 8 -11 10 8 10 14 0 22 6 22 18 0 10 -3 13 -8 6 -4 -6
-15 -14 -26 -17 -16 -7 -18 -4 -12 23 7 37 -12 49 -50 32 -17 -8 -39 -9 -76
-1 -29 6 -70 10 -92 10 -29 -1 -44 5 -62 24 -23 25 -64 34 -64 15 0 -15 -15
-12 -65 11 -37 17 -45 26 -45 48 0 17 -11 38 -29 55 -16 15 -37 45 -46 67 -10
21 -23 39 -29 39 -6 0 -35 -26 -66 -58z"/>
<path d="M1560 2388 c0 -6 3 -9 6 -5 4 3 19 0 35 -9 18 -9 29 -10 29 -4 0 6
-12 15 -26 20 -33 13 -44 13 -44 -2z"/>
<path d="M1665 2350 c3 -5 8 -10 11 -10 3 0 2 5 -1 10 -3 6 -8 10 -11 10 -3 0
-2 -4 1 -10z"/>
<path d="M1580 2311 c0 -37 2 -39 57 -64 31 -14 61 -23 65 -21 4 3 8 23 8 45
0 24 -4 38 -10 34 -5 -3 -10 -2 -10 3 0 9 -76 42 -98 42 -7 0 -12 -15 -12 -39z"/>
<path d="M1551 2274 c-1 -26 4 -34 29 -44 17 -7 33 -10 36 -8 2 3 -9 11 -25
18 -20 8 -31 21 -34 38 -4 25 -4 25 -6 -4z"/>
<path d="M1731 2233 c1 -62 6 -56 11 15 2 23 0 42 -4 42 -5 0 -7 -26 -7 -57z"/>
<path d="M1767 2274 c-10 -10 -9 -56 1 -72 5 -7 37 -19 73 -26 56 -12 66 -12
82 2 34 30 21 47 -55 70 -40 13 -78 25 -84 28 -5 2 -13 1 -17 -2z"/>
<path d="M616 2208 l-7 -43 -21 25 -20 25 4 -60 c2 -33 8 -69 12 -80 8 -20 7
-20 -8 -1 -25 31 -19 -2 9 -53 33 -57 31 -67 -7 -40 l-33 22 35 -37 c27 -28
32 -39 21 -45 -10 -6 -1 -17 34 -41 43 -29 45 -33 28 -45 -17 -12 -16 -14 10
-20 16 -4 46 -5 68 -2 21 3 42 1 45 -4 3 -5 -13 -9 -35 -9 -23 0 -41 -4 -41
-9 0 -21 167 -72 313 -96 l37 -6 0 53 c0 29 3 63 6 74 5 18 -2 26 -48 46 -29
14 -77 44 -105 67 -55 43 -66 44 -33 1 24 -31 25 -41 3 -33 -12 5 -14 3 -8 -7
6 -10 3 -12 -15 -7 -17 4 -20 3 -11 -6 16 -16 14 -30 -5 -23 -11 4 -15 2 -11
-8 8 -20 -82 -28 -103 -9 -13 12 -7 13 40 7 l55 -7 -25 27 -25 27 30 -11 c28
-11 28 -10 12 8 -23 25 -22 35 2 22 27 -14 31 -13 25 5 -5 11 -2 13 11 9 15
-6 16 -4 5 17 -34 65 -83 130 -90 119 -5 -8 -17 3 -34 31 -14 24 -26 37 -26
29 0 -8 -16 10 -35 40 -19 30 -35 62 -35 72 0 35 -18 17 -24 -24z"/>
<path d="M1972 2205 c0 -16 2 -22 5 -12 2 9 2 23 0 30 -3 6 -5 -1 -5 -18z"/>
<path d="M1996 2175 c4 -33 8 -62 10 -64 9 -10 3 96 -6 109 -7 10 -8 -4 -4
-45z"/>
<path d="M2018 2224 c-11 -10 3 -34 19 -34 8 0 11 4 8 10 -3 5 0 7 7 5 8 -3
22 1 32 8 16 12 14 13 -21 15 -22 2 -42 0 -45 -4z"/>
<path d="M2065 2087 c-7 -26 -35 -41 -70 -37 -11 1 -22 6 -23 11 -8 20 -33 38
-47 33 -19 -8 -19 -38 0 -54 13 -10 13 -15 1 -32 -8 -11 -12 -27 -9 -34 7 -18
40 -18 50 -1 13 22 84 29 105 10 9 -8 24 -13 33 -10 19 8 20 41 0 57 -13 11
-13 14 1 27 20 21 14 47 -13 51 -17 2 -24 -3 -28 -21z m-55 -69 c0 -4 -7 -8
-15 -8 -8 0 -15 4 -15 8 0 5 7 9 15 9 8 0 15 -4 15 -9z m17 -5 c-4 -3 -7 0 -7
7 0 7 3 10 7 7 3 -4 3 -10 0 -14z m28 7 c3 -5 1 -10 -4 -10 -6 0 -11 5 -11 10
0 6 2 10 4 10 3 0 8 -4 11 -10z"/>
<path d="M1995 1319 c-4 -6 -13 -8 -21 -5 -8 3 -14 -1 -14 -10 0 -8 -11 -19
-25 -24 -28 -11 -35 -33 -7 -24 45 15 82 40 82 56 0 20 -6 23 -15 7z"/>
<path d="M1975 1258 c-10 -6 -32 -14 -48 -17 l-28 -6 37 -48 c26 -33 40 -44
45 -35 7 14 23 118 17 118 -1 0 -12 -6 -23 -12z"/>
<path d="M1858 1222 c-10 -2 -18 -11 -18 -20 0 -52 59 -315 77 -346 11 -17 21
19 39 129 l17 112 -49 64 c-33 44 -55 63 -66 61z"/>
<path d="M1340 1156 c0 -3 11 -26 25 -52 14 -26 25 -62 25 -80 0 -32 21 -64
42 -64 6 0 8 12 4 33 -4 23 -3 28 4 17 5 -8 10 -23 10 -32 0 -19 26 -24 49 -9
8 5 11 17 7 32 -6 21 -6 22 5 5 9 -14 13 -16 19 -5 13 20 -7 48 -43 57 -24 6
-38 19 -57 55 -22 41 -29 47 -57 47 -18 0 -33 -2 -33 -4z"/>
<path d="M2100 1118 c0 -2 -9 -27 -20 -55 -20 -53 -20 -53 0 -53 15 0 20 7 20
28 l1 27 12 -27 c16 -36 43 -23 33 16 -8 32 1 34 14 4 7 -18 9 -19 9 -5 1 19
-41 67 -59 67 -5 0 -10 -1 -10 -2z"/>
<path d="M1741 3484 c14 -15 34 -24 51 -24 36 0 166 29 172 38 2 4 -52 8 -121
9 l-125 1 23 -24z"/>
<path d="M1886 3378 c-18 -10 -17 -12 15 -22 44 -14 66 -56 49 -96 -12 -29
-61 -57 -79 -45 -23 13 -10 -15 15 -34 66 -52 134 -7 134 89 0 92 -68 147
-134 108z"/>
<path d="M1855 3339 c-11 -16 -2 -17 25 -2 24 12 24 13 3 13 -12 0 -25 -5 -28
-11z"/>
<path d="M1880 3320 c0 -5 5 -10 10 -10 6 0 10 5 10 10 0 6 -4 10 -10 10 -5 0
-10 -4 -10 -10z"/>
<path d="M1548 3294 c-37 -47 -59 -80 -49 -75 29 16 131 122 131 136 0 32 -19
18 -82 -61z"/>
<path d="M1607 3212 c-41 -45 -6 -100 60 -93 34 3 60 79 33 96 -6 4 -10 -6
-10 -23 0 -50 -49 -70 -74 -29 -13 21 2 50 29 55 10 2 15 0 11 -6 -3 -6 -2
-13 3 -16 5 -4 13 -1 17 5 7 13 -13 29 -37 29 -9 0 -23 -8 -32 -18z"/>
<path d="M1722 3199 c9 -26 7 -35 -9 -57 -31 -41 -67 -50 -100 -26 -15 12 -30
32 -33 45 l-6 24 -12 -22 c-19 -34 -15 -90 8 -113 50 -50 182 -7 204 67 9 27
-16 83 -43 100 -19 12 -19 11 -9 -18z"/>
<path d="M2172 2915 c-126 -28 -253 -104 -297 -179 -35 -60 -32 -92 9 -131 41
-38 96 -62 96 -41 0 18 22 26 71 26 49 0 103 -26 95 -46 -10 -25 73 -17 133
12 46 23 52 30 47 50 -8 32 28 102 58 114 41 15 45 119 7 164 -39 45 -107 55
-219 31z"/>
<path d="M2362 2680 c-23 -36 -28 -60 -14 -60 14 0 45 65 40 81 -3 9 -12 2
-26 -21z"/>
<path d="M2010 2570 c-19 -12 -10 -20 33 -30 38 -8 87 -3 87 10 0 10 -56 30
-84 30 -12 0 -28 -4 -36 -10z"/>
<path d="M969 701 c-55 -21 -109 -53 -109 -63 0 -4 -13 -22 -28 -40 -70 -82
-91 -197 -57 -313 56 -196 263 -281 461 -191 75 34 108 66 147 141 30 57 32
66 31 167 0 86 -3 110 -17 126 -9 10 -17 26 -17 35 0 31 -93 113 -153 135 -74
28 -191 29 -258 3z m76 -41 c3 -5 2 -10 -4 -10 -5 0 -13 5 -16 10 -3 6 -2 10
4 10 5 0 13 -4 16 -10z m223 -52 c3 2 8 -2 11 -10 3 -9 -2 -8 -19 3 -13 9 -26
22 -28 30 -2 8 4 5 13 -6 9 -11 19 -19 23 -17z m-381 -25 c-4 -3 -10 -3 -14 0
-3 4 0 7 7 7 7 0 10 -3 7 -7z m53 3 c0 -3 -4 -8 -10 -11 -5 -3 -10 -1 -10 4 0
6 5 11 10 11 6 0 10 -2 10 -4z m-35 -26 c-3 -5 -11 -10 -16 -10 -6 0 -7 5 -4
10 3 6 11 10 16 10 6 0 7 -4 4 -10z m232 -7 c-4 -3 -10 -3 -14 0 -3 4 0 7 7 7
7 0 10 -3 7 -7z m-211 -18 c-11 -8 -25 -15 -30 -15 -6 0 -2 7 8 15 11 8 25 15
30 15 6 0 2 -7 -8 -15z m171 -71 c95 -34 158 -153 134 -252 -14 -56 -52 -117
-83 -133 -18 -9 -17 -5 9 22 111 117 71 302 -76 354 -114 40 -225 0 -273 -100
-17 -34 -18 -36 -13 -10 9 40 49 91 88 112 64 33 133 35 214 7z m-287 12 c0
-3 -4 -8 -10 -11 -5 -3 -10 -1 -10 4 0 6 5 11 10 11 6 0 10 -2 10 -4z m-10
-66 c0 -5 -5 -10 -11 -10 -5 0 -7 5 -4 10 3 6 8 10 11 10 2 0 4 -4 4 -10z
m120 -34 c0 -2 -8 -10 -17 -17 -16 -13 -17 -12 -4 4 13 16 21 21 21 13z m442
-48 c-7 -7 -12 -8 -12 -2 0 14 12 26 19 19 2 -3 -1 -11 -7 -17z m-575 -40 c-3
-8 -6 -5 -6 6 -1 11 2 17 5 13 3 -3 4 -12 1 -19z m283 2 c0 -5 -8 -10 -17 -10
-15 0 -16 2 -3 10 19 12 20 12 20 0z m270 -59 c-6 -12 -15 -21 -21 -21 -5 0
-2 11 7 25 20 30 31 26 14 -4z m-193 -73 c-3 -7 -5 -2 -5 12 0 14 2 19 5 13 2
-7 2 -19 0 -25z"/>
</g>
</svg>
