<?xml version="1.0" encoding="UTF-8"?>
<svg width="528px" height="393px" viewBox="0 0 528 393" version="1.1" xmlns="http://www.w3.org/2000/svg" xmlns:xlink="http://www.w3.org/1999/xlink">
    <!-- Generator: Sketch 48.2 (47327) - http://www.bohemiancoding.com/sketch -->
    <title>Swxh04PazB</title>
    <desc>Created with Sketch.</desc>
    <defs></defs>
    <g id="Page-1" stroke="none" stroke-width="1" fill="none" fill-rule="evenodd">
        <g id="B9vA98Wisy" transform="translate(3.000000, 6.000000)" fill="#FFFFFF" fill-rule="nonzero">
            <g id="Group" transform="translate(261.500000, 192.500000) scale(-1, 1) rotate(-180.000000) translate(-261.500000, -192.500000) ">
                <path d="M121.433401,381.615385 C120.692308,379.817308 120.692308,371.25 121.32753,362.576923 C122.386235,348.403846 122.174494,347.240385 119.104251,350.307692 C112.963765,356.548077 87.0255061,347.346154 70.2979757,333.067308 C48.3827935,314.346154 46.1595142,276.692308 65.6396761,254.586538 C72.732996,246.548077 73.4740891,240.413462 68.9216599,229.307692 L65.7455466,221.903846 L73.3682186,218.730769 C83.4259109,214.5 89.7781377,215.557692 90.6251012,221.586538 C91.5779352,228.038462 95.2834008,227.615385 95.2834008,221.057692 C95.2834008,210.798077 119.633603,217.567308 142.078138,234.067308 L155.206073,243.692308 L150.759514,236.605769 C147.054049,230.576923 146.630567,228.038462 148.324494,220.951923 C149.383198,216.403846 150.230162,206.884615 150.336032,199.903846 C150.336032,183.932692 153.512146,172.192308 160.181984,163.413462 C170.133806,150.192308 177.756478,149.875 177.862348,162.778846 C177.862348,166.480769 178.497571,167.326923 180.191498,165.634615 C181.779555,164.048077 180.509109,158.971154 175.639069,147.759615 C158.911538,109.259615 158.276316,107.355769 159.33502,98.0480769 C160.923077,83.875 189.825709,36.9134615 195.860324,38.7115385 C198.824696,39.6634615 213.646559,69.3846154 215.128745,77.3173077 C216.29332,83.3461538 215.658097,84.1923077 206.447368,88.9519231 C200.306883,92.125 194.695749,97.0961538 192.048988,101.855769 L187.602429,109.471154 L196.283806,126.182692 C201.047976,135.278846 206.235628,147.125 207.717814,152.307692 L210.576316,161.826923 L211.317409,154.951923 C212.058502,147.442308 212.905466,147.125 229.421255,149.451923 C240.749393,150.932692 240.961134,151.673077 234.079555,166.586538 C226.562753,182.663462 228.468421,180.653846 246.889879,152.836538 C273.675101,112.644231 279.921457,88.7403846 272.298785,56.4807692 C270.393117,48.5480769 268.910931,41.6730769 268.910931,41.1442308 C268.910931,40.6153846 279.074494,40.1923077 291.461336,40.1923077 L314.011741,40.1923077 L312.529555,58.7019231 C309.1417,101.221154 294.108097,145.221154 283.203441,144.480769 C276.215992,144.057692 276.321862,143.105769 282.038866,155.692308 C295.907895,186.153846 284.368016,228.25 262.135223,228.567308 C254.512551,228.673077 260.864777,231.423077 283.626923,237.875 C326.186842,250.038462 324.281174,258.923077 280.662551,251.730769 C263.299798,248.875 263.82915,249.932692 285.21498,261.461538 C345.455263,294.038462 344.184818,306.836538 283.309312,280.5 C262.029352,271.298077 261.817611,271.509615 277.698178,284.625 C295.696154,299.326923 323.963563,329.894231 323.963563,334.548077 C323.963563,343.855769 293.049393,328.942308 267.111134,307.048077 C250.065992,292.769231 249.007287,292.451923 255.994737,303.769231 C270.92247,327.990385 271.134211,334.865385 256.62996,322.384615 C236.091093,304.826923 217.987247,275.740385 218.198988,260.403846 L218.304858,250.673077 L222.222065,263.048077 C231.221053,291.076923 245.725304,290.125 242.54919,261.778846 L241.067004,249.086538 L246.784008,253.634615 C261.5,265.163462 266.687652,245.701923 252.924494,230.471154 C248.477935,225.605769 249.113158,224.230769 255.677126,224.230769 C265.734818,224.230769 274.839676,216.826923 269.228543,213.336538 C266.687652,211.75 264.676113,209.423077 264.676113,208.153846 C264.676113,206.778846 262.770445,205.192308 260.441296,204.557692 C258.112146,203.923077 256.206478,201.913462 256.206478,200.115385 C256.206478,194.192308 262.558704,196.519231 267.111134,204.134615 C269.440283,208.153846 272.404656,211.009615 273.46336,210.269231 C274.733806,209.528846 274.204453,207.519231 272.192915,205.298077 C268.59332,201.278846 267.640486,190.384615 271.02834,190.384615 C272.192915,190.384615 273.145749,193.240385 273.145749,196.730769 C273.145749,200.221154 274.204453,203.076923 275.474899,203.076923 C276.957085,203.076923 277.274696,205.086538 276.427733,208.576923 C275.474899,212.596154 275.79251,213.759615 277.804049,213.125 C281.191903,211.961538 280.874291,206.461538 277.062955,196.942308 C274.839676,191.230769 274.733806,189.538462 276.851215,188.798077 C280.027328,187.740385 280.45081,176.423077 277.380567,174.519231 C276.215992,173.778846 275.263158,171.875 275.263158,170.182692 C275.263158,168.490385 276.215992,167.115385 277.380567,167.115385 C278.545142,167.115385 279.497976,168.490385 279.497976,170.182692 C279.497976,171.875 280.45081,173.778846 281.615385,174.519231 C282.77996,175.259615 283.203441,174.307692 282.674089,172.509615 C282.038866,170.711538 281.191903,167.75 280.55668,165.951923 C279.709717,163.201923 278.756883,163.096154 274.733806,165.317308 C272.087045,166.798077 268.805061,167.75 267.322874,167.432692 C265.840688,167.115385 264.040891,168.384615 263.405668,170.182692 C261.60587,174.836538 254.618421,174.201923 251.97166,169.230769 C248.795547,163.307692 247.31336,163.836538 239.478947,173.567308 C232.068016,182.769231 233.232591,189.75 241.913968,187.528846 C244.666599,186.788462 245.619433,187.317308 244.87834,189.326923 C242.337449,195.884615 249.324899,193.451923 256.524089,185.413462 C262.770445,178.326923 264.887854,177.163462 267.005263,179.278846 C271.663563,183.721154 266.899393,193.451923 259.700202,194.298077 C254.618421,194.826923 253.771457,195.673077 254.618421,200.115385 C255.147773,202.865385 255.465385,205.192308 255.253644,205.192308 C255.041903,205.192308 250.383603,203.605769 244.77247,201.807692 C239.267206,199.903846 234.291296,198.951923 233.550202,199.586538 C232.173887,200.961538 239.690688,204.346154 248.160324,206.144231 C265.840688,209.846154 267.958097,222.115385 250.912955,221.903846 C243.713765,221.903846 243.184413,221.586538 247.20749,219.894231 C252.712753,217.778846 253.347976,213.230769 248.795547,209.423077 C246.784008,207.730769 245.619433,207.625 245.619433,209 C245.619433,210.269231 246.572267,211.855769 247.736842,212.596154 C252.501012,215.557692 249.53664,218.307692 242.44332,217.461538 C233.232591,216.403846 233.232591,216.298077 243.078543,225.182692 C262.770445,242.951923 263.723279,263.259615 244.031377,246.442308 C233.02085,236.923077 232.809109,237.028846 236.408704,249.509615 C239.796559,260.826923 239.584818,280.394231 236.091093,280.076923 C231.538664,279.759615 224.551215,260.826923 222.645547,243.798077 C220.845749,227.509615 209.623482,202.336538 205.918016,206.144231 C205.282794,206.673077 206.341498,209.528846 208.141296,212.278846 C211.317409,217.038462 211.317409,217.461538 207.823684,218.413462 C204.965182,219.153846 203.377126,223.278846 201.259717,235.019231 C197.130769,258.182692 187.7083,285.471154 175.744939,308.423077 C169.922065,319.634615 165.157895,331.163462 165.157895,334.125 C165.052024,353.057692 126.515182,394.942308 121.433401,381.615385 Z M152.559312,349.567308 C153.829757,345.865385 154.46498,340.576923 154.041498,337.932692 C153.406275,334.336538 152.665182,335.394231 150.653644,342.692308 C149.277328,347.980769 146.948178,354.644231 145.571862,357.5 C141.337045,366.490385 141.337045,367.230769 145.889474,361.730769 C148.324494,358.875 151.288866,353.375 152.559312,349.567308 Z M111.905061,286.211538 C119.951215,283.567308 121.539271,283.567308 126.0917,286.528846 C132.973279,291.076923 134.773077,290.653846 130.220648,285.576923 C125.668219,280.605769 130.114777,279.442308 137.94919,283.673077 C144.724899,287.269231 145.04251,284.201923 138.372672,280.394231 L132.338057,276.903846 L138.690283,277.855769 C142.184008,278.384615 147.47753,279.548077 150.336032,280.394231 C155.523684,281.875 155.523684,281.769231 151.394737,278.278846 C147.159919,274.682692 147.159919,274.682692 151.924089,275.740385 C154.57085,276.269231 156.688259,275.740385 156.688259,274.576923 C156.688259,273.413462 152.02996,272.778846 145.571862,273.201923 C136.572874,273.836538 134.561336,273.307692 135.196559,270.769231 C140.17247,248.769231 123.65668,235.971154 105.764575,248.028846 C96.3421053,254.375 90.2016194,265.375 89.6722672,277.009615 C89.2487854,286.740385 87.1313765,288.115385 80.9908907,283.038462 C77.497166,280.076923 77.6030364,276.163462 81.6261134,268.548077 C83.3200405,265.163462 83.9552632,262.307692 82.8965587,262.307692 C80.7791498,262.307692 74.1093117,277.432692 74.1093117,282.298077 C74.1093117,292.346154 89.142915,293.826923 111.905061,286.211538 Z" id="Shape"></path>
                <path d="M92.4248988,284.201923 C88.190081,279.865385 96.765587,255.961538 102.588462,255.961538 C106.611538,255.961538 106.611538,255.538462 102.694332,266.538462 C101.000405,271.509615 99.5182186,277.75 99.5182186,280.605769 C99.5182186,285.259615 95.6010121,287.269231 92.4248988,284.201923 Z" id="Shape"></path>
                <path d="M110.105263,280.394231 C110.105263,276.375 122.068623,270.028846 126.515182,271.721154 C130.85587,273.413462 128.209109,275.951923 118.045547,280.182692 C111.058097,283.144231 110.105263,283.144231 110.105263,280.394231 Z" id="Shape"></path>
                <path d="M130.64413,259.451923 C128.209109,253 116.669231,249.403846 114.12834,254.269231 C112.010931,258.182692 111.481579,258.288462 108.411336,255.115385 C105.552834,252.365385 105.446964,251.307692 107.776113,249.086538 C110.105263,246.971154 110.846356,246.971154 111.69332,249.192308 C112.434413,251.307692 113.598988,251.201923 116.669231,248.346154 C121.962753,243.586538 130.538259,247.182692 132.549798,254.903846 C134.031984,260.826923 132.549798,264.423077 130.64413,259.451923 Z" id="Shape"></path>
                <path d="M234.608907,372.307692 C228.574291,362.153846 220.316397,338.673077 215.869838,318.788462 C211.846761,300.701923 210.682186,302.5 210.576316,327.567308 C210.364575,364.163462 203.588866,366.913462 198.612955,332.432692 C196.283806,316.778846 196.495547,314.557692 202.212551,293.826923 C206.659109,277.538462 208.458907,265.375 209.2,246.971154 C210.152834,222.115385 211.52915,218.096154 216.187449,226.663462 C217.987247,230.048077 217.987247,235.019231 215.975709,246.971154 C212.799595,267.067308 214.281781,274.894231 224.551215,292.028846 C232.385628,304.932692 233.126721,308 237.255668,338.25 C242.866802,379.923077 242.44332,385.423077 234.608907,372.307692 Z" id="Shape"></path>
                <path d="M82.8965587,367.759615 L73.5799595,365.644231 L80.7791498,359.403846 C91.2603239,350.201923 117.516194,353.903846 116.034008,364.375 C115.292915,369.980769 99.5182186,371.567308 82.8965587,367.759615 Z" id="Shape"></path>
                <path d="M46.4771255,351.048077 C36.6311741,345.230769 24.9854251,337.403846 20.5388664,333.596154 L12.3868421,326.826923 L33.5609312,326.932692 L54.7350202,327.144231 L64.1574899,335.817308 C69.3451417,340.576923 76.7560729,346.076923 80.5674089,348.086538 L87.5548583,351.682692 L79.2969636,356.653846 C67.9688259,363.423077 66.9101215,363.317308 46.4771255,351.048077 Z" id="Shape"></path>
                <path d="M169.498583,334.019231 C169.392713,328.836538 171.404251,323.653846 175.744939,317.625 C183.579352,306.836538 184.320445,306.730769 184.002834,316.778846 C183.685223,324.605769 183.685223,324.605769 182.203036,318.365385 L180.826721,312.019231 L179.026923,319.423077 C178.074089,323.548077 175.639069,330.211538 173.415789,334.230769 L169.604453,341.634615 L169.498583,334.019231 Z" id="Shape"></path>
                <path d="M20.1153846,322.913462 C11.1163968,320.163462 2.11740891,309.586538 2.11740891,301.759615 C2.11740891,297.740385 2.43502024,297.740385 7.9402834,302.923077 C16.1981781,310.538462 29.6437247,318.894231 36.5253036,320.586538 C39.701417,321.326923 42.3481781,322.807692 42.3481781,323.865385 C42.3481781,326.509615 30.2789474,325.980769 20.1153846,322.913462 Z" id="Shape"></path>
                <path d="M37.9016194,317.519231 C-12.9161943,297.634615 -11.8574899,276.057692 43.0892713,220.211538 C74.8504049,187.951923 84.6963563,173.673077 84.6963563,160.346154 C84.6963563,157.067308 97.0831984,169.019231 98.5653846,173.778846 C101.106275,181.711538 93.2718623,190.278846 69.0275304,206.144231 C43.4068826,222.961538 32.5022267,234.701923 26.4676113,251.730769 C20.432996,268.865385 24.4560729,284.413462 35.4665992,286.740385 C38.6427126,287.480769 42.3481781,288.326923 43.6186235,288.75 C44.8890688,289.173077 46.582996,294.567308 47.2182186,300.701923 C47.9593117,306.942308 49.1238866,314.134615 49.9708502,316.778846 C51.5589069,322.384615 50.6060729,322.490385 37.9016194,317.519231 Z" id="Shape"></path>
                <path d="M186.437854,308 C186.331984,299.115385 194.166397,275 197.23664,275 C198.189474,275 199.036437,271.192308 199.036437,266.538462 C199.036437,261.884615 199.989271,258.076923 201.153846,258.076923 C202.318421,258.076923 203.271255,261.884615 203.271255,266.538462 C203.271255,271.192308 202.318421,275 201.153846,275 C199.989271,275 199.036437,277.221154 199.036437,279.971154 C199.036437,285.153846 192.366599,306.201923 188.661134,312.548077 C186.861336,315.509615 186.437854,314.663462 186.437854,308 Z" id="Shape"></path>
                <path d="M31.6552632,281.240385 C22.8680162,272.461538 29.1143725,243.903846 43.0892713,228.778846 C45.6301619,226.028846 58.4404858,216.721154 71.5684211,208.153846 C85.2257085,199.163462 96.4479757,190.173077 97.8242915,187.211538 C102.16498,177.586538 107.987854,187.528846 107.987854,204.663462 L107.987854,211.538462 L96.765587,211.538462 C71.2508097,211.538462 58.5463563,218.942308 64.4751012,230.259615 C69.5568826,240.307692 68.4981781,246.125 59.2874494,257.230769 C54.6291498,262.836538 49.5473684,271.298077 48.0651822,275.951923 C44.6773279,286.105769 38.5368421,288.115385 31.6552632,281.240385 Z" id="Shape"></path>
                <path d="M203.482996,248.134615 C204.012348,232.163462 206.976721,226.134615 207.294332,240.519231 C207.400202,247.711538 206.553239,254.163462 205.388664,254.903846 C204.118219,255.644231 203.377126,253 203.482996,248.134615 Z" id="Shape"></path>
                <path d="M341.432186,240.201923 C326.927935,236.923077 307.236032,227.192308 296.225506,217.990385 C286.803036,210.057692 289.132186,208.259615 301.624899,213.865385 C352.125101,236.076923 417.023684,200.75 417.129555,150.932692 C417.129555,125.653846 409.612753,113.596154 375.416599,84.5096154 C341.008704,55.1057692 337.197368,47.8076923 349.47834,35.5384615 C357.206883,27.8173077 359.112551,28.875 355.512955,38.8173077 C349.37247,56.0576923 359.747773,69.5961538 393.838057,88.4230769 C443.808907,116.028846 462.865587,147.336538 451.219838,182.451923 C435.339271,229.836538 393.414575,251.942308 341.432186,240.201923 Z" id="Shape"></path>
                <path d="M45.8419028,210.163462 C74.3210526,182.451923 78.9793522,169.865385 65.6396761,156.538462 C52.3,143.211538 30.1730769,153.048077 35.7842105,169.759615 C37.9016194,176.105769 37.795749,176.317308 34.8313765,172.403846 C23.291498,157.278846 34.937247,140.038462 54.9467611,142.365385 C92.1072874,146.807692 87.1313765,177.586538 42.9834008,216.932692 C19.2684211,238.086538 20.6447368,234.807692 45.8419028,210.163462 Z" id="Shape"></path>
                <path d="M313.058907,214.923077 C303.636437,212.384615 291.037854,205.721154 292.625911,204.028846 C293.049393,203.605769 297.390081,204.346154 302.260121,205.509615 C323.116599,210.798077 350.007692,200.644231 362.712146,182.769231 C380.710121,157.278846 378.804453,143.211538 351.489879,101.432692 C329.362955,67.5865385 325.869231,52.7788462 336.668016,39.7692308 L340.796964,34.9038462 L340.796964,44 C340.902834,57.75 344.925911,63.25 371.393522,85.3557692 C406.119028,114.442308 416.811943,131.894231 414.376923,155.692308 C410.142105,196.836538 358.265587,227.086538 313.058907,214.923077 Z" id="Shape"></path>
                <path d="M140.913563,206.144231 C139.113765,202.019231 129.797166,187 120.057085,172.826923 C110.317004,158.653846 99.6240891,142.365385 96.3421053,136.653846 L90.3074899,126.288462 L110.105263,141.942308 C141.125304,166.375 146.101215,173.884615 146.101215,195.884615 C146.101215,215.663462 145.465992,217.038462 140.913563,206.144231 Z" id="Shape"></path>
                <path d="M247.736842,187.423077 C247.736842,183.403846 254.089069,175.576923 257.371053,175.576923 C261.923482,175.576923 261.182389,177.480769 254.089069,184.038462 C250.595344,187.317308 247.736842,188.798077 247.736842,187.423077 Z" id="Shape"></path>
                <path d="M236.091093,181.923077 C235.35,180.759615 237.255668,178.855769 240.22004,177.692308 C243.184413,176.634615 245.619433,174.307692 245.619433,172.615385 C245.619433,170.923077 246.572267,168.913462 247.736842,168.173077 C251.654049,165.740385 249.854251,175.576923 245.619433,179.807692 C240.961134,184.461538 238.102632,185.096154 236.091093,181.923077 Z" id="Shape"></path>
                <path d="M269.440283,178.326923 C268.063968,175.259615 267.322874,172.298077 267.852227,171.769231 C269.652024,169.865385 275.263158,176.105769 275.263158,180.019231 C275.263158,185.730769 272.510526,184.990385 269.440283,178.326923 Z" id="Shape"></path>
                <path d="M133.290891,159.076923 C125.562348,151.25 112.434413,138.769231 103.964777,131.153846 C90.9427126,119.413462 88.5076923,116.134615 87.5548583,108.942308 L86.3902834,100.480769 L91.8955466,108.307692 C99.2006073,118.673077 112.010931,125.865385 130.326518,129.990385 C158.805668,136.442308 164.205061,144.163462 154.359109,164.365385 C148.853846,175.682692 149.912551,175.894231 133.290891,159.076923 Z" id="Shape"></path>
                <path d="M163.252227,149.663462 C163.358097,148.182692 164.09919,144.692308 164.946154,141.730769 L166.42834,136.442308 L169.180972,141.413462 C170.663158,144.057692 171.298381,147.653846 170.663158,149.346154 C169.286842,153.048077 162.934615,153.365385 163.252227,149.663462 Z" id="Shape"></path>
                <path d="M239.267206,146.807692 C239.267206,146.067308 242.54919,140.144231 246.572267,133.586538 C260.123684,111.586538 263.299798,78.0576923 254.089069,53.8365385 C252.501012,49.8173077 252.712753,48.2307692 255.041903,47.3846154 C272.192915,40.7211538 276.110121,88.9519231 260.970648,121.105769 C253.030364,138.134615 239.267206,154.317308 239.267206,146.807692 Z" id="Shape"></path>
                <path d="M447.408502,130.307692 C437.35081,114.653846 416.706073,96.6730769 396.273077,85.9903846 C367.476316,70.8653846 357.842105,60.5 357.842105,44.7403846 C357.842105,25.8076923 373.828543,23.375 428.775304,33.8461538 C446.98502,37.3365385 464.771255,40.1923077 468.26498,40.1923077 C471.758704,40.1923077 473.981984,41.0384615 473.346761,42.0961538 C471.335223,45.4807692 460.854049,46.8557692 427.293117,48.3365385 C382.404049,50.2403846 380.180769,53.3076923 407.177733,75.625 C437.562551,100.798077 448.573077,114.125 454.07834,132.105769 C458.313158,146.278846 457.466194,146.067308 447.408502,130.307692 Z" id="Shape"></path>
                <path d="M150.124291,133.057692 C145.889474,130.836538 136.043522,127.557692 128.209109,125.971154 C87.1313765,117.403846 76.6502024,81.7596154 111.269838,68.6442308 C126.726923,62.7211538 144.724899,74.3557692 137.94919,85.9903846 C135.937652,89.4807692 135.62004,89.2692308 135.62004,84.0865385 C135.51417,77.7403846 128.950202,69.8076923 123.868421,69.8076923 C118.78664,69.8076923 112.222672,77.8461538 112.222672,84.0865385 C112.222672,95.6153846 118.257287,102.384615 147.689271,123.644231 C164.840283,136.125 166.32247,141.836538 150.124291,133.057692 Z" id="Shape"></path>
                <path d="M193.848785,114.548077 C192.260729,109.576923 195.330972,101.326923 200.201012,97.3076923 C203.588866,94.4519231 203.694737,94.7692308 202.212551,101.538462 C198.824696,117.298077 196.072065,121.528846 193.848785,114.548077 Z" id="Shape"></path>
                <path d="M163.040486,66.1057692 C163.040486,63.7788462 162.405263,57.5384615 161.66417,52.1442308 L160.393725,42.3076652 L171.19251,42.3076923 C184.002834,42.3076923 184.002834,42.2019231 175.639069,55.2115385 C167.275304,68.2211538 163.040486,71.9230769 163.040486,66.1057692 Z" id="Shape"></path>
                <path d="M467.947368,47.4903846 C483.192713,41.4615385 497.696964,37.4423077 499.073279,38.9230769 C502.143522,41.8846154 478.852024,51.6153846 466.994534,52.25 L454.184211,52.9903846 L467.947368,47.4903846 Z" id="Shape"></path>
                <path d="M501.5083,39.2403846 C515.165587,24.4326923 515.694939,13.5384615 503.308097,7.08653846 C493.462146,2.00961538 479.381377,2.75 473.02915,8.67307692 C470.276518,11.3173077 467.947368,12.375 467.947368,11 C467.947368,-1.58653846 510.930769,-1.26923077 519.294534,11.4230769 C524.376316,19.1442308 517.388866,34.0576923 504.366802,43.0480769 C492.615182,51.1923077 491.662348,49.9230769 501.5083,39.2403846 Z" id="Shape"></path>
            </g>
        </g>
    </g>
</svg>