<svg width="715pt" height="450pt" viewBox="0 0 715 450" xmlns="http://www.w3.org/2000/svg"><g fill="#fff"><path d="M202.64 12.4c1.77.08 3.73-.26 5.27.87 17.96 10.32 34.39 25.59 40.89 45.77 2.24 6.05 2.12 12.56 1.9 18.9-.3 2.79 2.3 4.61 3.75 6.67 6.72 8.68 11.62 18.59 16.23 28.51 12.05 27.42 20.6 56.64 23 86.58 3.52-.11 7.01-.62 10.48-1.23-2.96 5.77-7.66 10.36-10.91 15.93 5.19-2.67 8.75-7.46 12.19-12.01 3.6-5.13 6.88-10.62 8.75-16.64 1.68-9.46.45-19.12 1.34-28.65 1.2-7.2 3.48-14.28 7.05-20.67 1.52-2.8 3.57-5.48 6.43-7.01 3.13.11 4.54 3.5 5.32 6.07 2.67 14.72-2.41 29.28-7.74 42.79 8.15-7.1 15.08-16.31 25.55-20.13 3.35 2.19 2.65 6.44 2.65 9.89-.49 7.31-5.29 13.46-10.25 18.48-5.11 5.21-10.57 10.08-16.42 14.44 5.12-.71 10.49-2.69 15.59-.91 1.84.55 1.87 3.02.89 4.37-4.36 8.87-13.59 13.59-21.56 18.68 4.37-1.61 8.54-3.95 13.23-4.53 5.74-.68 11.15-2.76 16.59-4.58-2.21 2.8-2.85 6.19-2.58 9.68 3.36 3.82 8.45 1.1 12.5.26.77 2.52 1.29 5.22 2.96 7.34 2.46 2.44 7.46 1.31 8.17-2.21 1.07-3.09-.17-6.26-.8-9.3 4.26-2.27 9.26-5.13 9.74-10.49-4.17-1.87-7.96 1.8-11.88 2.72.39-3.05 2.96-4.84 5.13-6.66.66.85 1.33 1.7 2.02 2.54-.39-1.24-.74-2.49-1.04-3.74-1.93 1.21-3.79 2.53-5.62 3.88-.05-2.3-.03-4.59-.12-6.89-1.65.33-3.14 1.1-4.61 1.88-.31-2.78-.18-6.26-2.87-7.95-5.23-3.21-11.59-2.31-17.42-2.39 5.79-2.72 12.01-5.38 18.5-5.37 7.86 1.77 14.23 7.85 17.8 14.93 6.69 12.8 7.4 27.66 6.52 41.79-1.51 10.82-3.69 21.79-8.99 31.45-1.42 2.73-3.38 5.19-4.26 8.17 3.82-.77 7.37-2.45 11.17-3.27 1.92-.52 2.78 1.63 3.71 2.88 11.53 20.37 17.83 43.21 22 66.11 3.02 16.8 4.58 33.88 3.93 50.96-16.89.11-33.79.21-50.68-.05 1.1-4.86 2.9-9.51 4.19-14.31 4.03-14.92 5.33-30.62 3.53-45.96-3.28-25.54-17.49-47.96-33.14-67.76-7.02-8.67-11.62-18.91-17.52-28.3.27 2.51.81 5 1.72 7.38 2.91 7.68 6.49 15.14 11.12 21.94-5.17 3.31-11.5 3.66-17.39 4.74-5.39.68-10.82 1.03-16.24 1.42.67-5.45.68-11.09-2.27-15.91 1.9 8.22-1.49 16.21-5.51 23.21-5.02 8.96-10.98 17.42-15.3 26.77-4.04 8.03-1.37 18.17 5.05 24.17 6.11 6.7 15.13 8.97 23.32 12.01.62 6.41-1.86 12.5-3.8 18.48-4.24 11-9.06 22.05-16.76 31.1-1 1.04-2.09 2.64-3.77 2.15-3.44-2.06-5.8-5.4-8.41-8.36-10.16-12.11-18.82-25.43-26.4-39.29-2.8-5.59-6.02-11.31-6.25-17.71-.15-5.38-.28-10.88 1.34-16.08 5.08-18.68 18.69-33.73 23.49-52.53.69-3.12.34-6.35.14-9.5-1.23 5.57-3.25 10.93-5.78 16.03-15.51-4.51-26.48-19.91-27.2-35.86-1.98-8.66.76-17.43-.61-26.11-.35-8.15-1.9-16.25-4.82-23.87-.8-1.83-1.02-4.13.82-5.41 3.74-3.53 6.36-7.97 8.3-12.7-3.19 3.15-5.81 6.85-9.28 9.71-8.22 6.95-17.67 12.29-27.47 16.64-9.82 4.03-20.23 7.34-30.95 7.31.37-2.84 1.33-5.64.99-8.52-.47-2.79-2.31-5.01-3.94-7.21.77 5.17 1.79 11.13-1.96 15.45-6.22.18-12.46-1.32-18.31-3.36-3.37-1.47-7.39-3.33-8.62-7.09 3.02-5.75 8.01-10.95 8.06-17.89.75-6.62-3.21-12.47-7.85-16.74-5.83-5.37-10.65-11.96-13.24-19.51-2.34-7.03-3.02-14.46-3.75-21.79.56-9.57 2.21-19.27 6.71-27.85 8.59-17.82 25.64-30.25 44.02-36.58 8.34-2.7 16.93-5.47 25.79-5.31 1.19 3.32 3.04 6.32 5.04 9.19-2.13-8.98-4-18.14-3.74-27.42.26-5.65.62-11.47 3.15-16.63m21.4 20.77c2.72 4.66 5.36 9.43 6.86 14.65 2.91 7.91 3.53 16.44 6.43 24.34 1.69-13.89-.85-30.57-13.29-38.99m-66.63 84.58c-5.31.85-10.49 5.38-9.8 11.16.91 8.24 5.63 15.45 10.39 22.01-2.1-7.23-6.87-14.45-5.19-22.22 2.93-4.18 8.31-5.42 13.02-6.45-.75 4.56-1.91 9.09-1.44 13.76 1.13 11.2 7.16 21.68 15.94 28.67 6.84 5.84 16.44 8.51 25.21 6.16 5.06-1.64 9.88-5.35 11.65-10.51 2.43-8.34.32-17.09-2.61-25.01 7.32 1.73 14.91 2.94 22.43 1.84 2.53-.6 4.69-2.13 6.9-3.44-5.11 1.99-10.65 1.76-15.93.71 4.9-1.17 9.16-4.02 12.25-7.98-7.82 4.19-17.06 8.53-25.99 5.54 4.48-2.11 9.22-4.25 12-8.58-6.97 3.64-15.05 8.02-23.05 5.03 4.76-2.34 9.85-5.38 11.05-10.99-3.55 4.71-9.13 7.41-14.82 8.5-.99.16-1.91-.41-2.82-.68-12.23-5.39-25.71-9.36-39.19-7.52m-6.63 79.47c1.57-3.17 1.12-6.65-1.09-9.39-.38 3.17.29 6.33 1.09 9.39m192.09 29.48c-1.01 3.37-1.56 6.87-.43 10.3-1.14-.51-2.28-1.03-3.41-1.54.17 1.41.25 2.84.56 4.23 2.91 2.82 6.14 5.57 7.84 9.34-.19 2.73-.35 5.96-2.35 8.03-1.12 1.32-2.87.68-4.28.38-1.7-1.17-2.48-3.24-3.86-4.74.2 2.17 1.27 4.07 2.41 5.88 2.06.07 4.14.25 6.2-.03 2.36-2.49 2.28-6.16 3.01-9.3 2.62.2 5.3.71 7.92.17 2.6-1.29 2.66-4.44 1.95-6.89-1.83-3.26-6.01-3.35-9.24-4.08-.65-4.21-.47-8.75-3.72-12-.87.08-1.74.16-2.6.25m25.6 7.59c-1.52 3.16-1.18 6.7-.82 10.07-2.19 1.13-4.64 2.07-6.14 4.15-.58 2.27-.11 4.62.23 6.89 3.23.37 6.41-.29 9.5-1.21.95 2.19 2.02 4.33 3.16 6.44 1.97-.22 4.62.68 5.89-1.34 2.4-2.69.35-6.32-.11-9.32 2.26-1.24 4.4-2.69 6.39-4.34.01-1.56.02-3.12.05-4.67-2.9.13-5.66 1.03-8.22 2.35.02-1.09.04-2.18.05-3.27-.84.65-1.66 1.32-2.49 1.98-.61-2.53-1.18-5.17-2.72-7.32-1.55-.46-3.18-.37-4.77-.41zM334.31 16.55l1.97.08c1.23 6.77.55 13.72-.57 20.46-2.22 19.37-6.69 38.43-8.24 57.88-.15 2.36.03 4.72.2 7.08-7.18 8.57-13.42 17.96-18.5 27.92-5.05 10.09-6.28 22.04-2.99 32.87 1.55 6.38 5 12.45 4.53 19.19-.08 4.42-1.75 8.79-4.38 12.32-1.9.96-4.07 1.13-6.12 1.54-.04-4.72.53-9.39 1.1-14.06 1.24-28.04-3.69-56.42-14.78-82.24-1.68-3.98-.86-8.41-1-12.6.72-13.01 2.7-25.97 6.14-38.56 1.09-3.35 2.54-7.18 6.13-8.52 3.57 8.38 3.29 17.74 3.92 26.67 1.4 10.58.47 21.3.8 31.93 1.63-.89 1.81-2.84 2.23-4.44 3.92-17.42 8.96-34.59 15.11-51.35 3.86-9.16 7.27-19 14.45-26.17zM147.87 34.86c9.02-3.64 18.53-6.05 28.16-7.3 6.39-.22 12.81-.19 19.19.24.2 4.77.74 9.51 1.44 14.23-10.67 1.03-21.13 3.49-31.34 6.73-5.1-5.49-10.87-10.3-17.45-13.9zM139.06 38.36c3.14-1.75 6.82-.74 9.78.88 5.13 2.65 9.34 6.72 13.24 10.92-9.57 4.09-18.87 9.24-26.21 16.73-4.03 3.77-7.16 8.33-10.46 12.72-10.9-3.07-22.48-5.27-33.77-3.16-4.98.62-9.62 2.65-14.25 4.49 15.45-20.33 38.88-32.31 61.67-42.58zM255.21 61.99c2.66 3.63 5.88 6.89 7.94 10.93 2.62 6.13 2.83 13.01 2.24 19.57-3.1-4.17-6.03-8.47-9.45-12.38-1.12-1.05-.66-2.71-.74-4.05.23-4.69.11-9.38.01-14.07zM420.52 64.47c3.2-1.34 6.73-1.47 10.12-.89.31 4.9-2.79 8.96-5.28 12.87-5.35 8.39-12.68 15.24-19.77 22.12-10.22 10.16-20.94 19.79-31.72 29.35-3.84 3.41-8.01 6.59-10.83 10.96 20.26-10.45 41.18-20.31 63.61-25.07 3.34-.49 6.83-1.95 10.08-.32.84 4.51-3.18 7.38-6.05 10.11-6.48 5.23-12.63 11.16-20.39 14.48-16.46 8.13-32.97 16.38-48.18 26.72 9.84-2.12 19.75-4.18 29.85-4.52 9.96-.58 20.52-2.16 30.07 1.52-4.61 4.66-10.6 7.62-16.74 9.69-17.49 5.98-35.99 8.75-53.07 15.97-3.92 1.6-7.3 4.22-10.34 7.12 7.06-.11 14.87-.52 20.87 3.91.08 4.08-3.64 6.54-6.44 8.87-5.2 3.58-11.13 6.02-17.18 7.74 2.87-3.1 6.55-5.69 8.18-9.73.66-2.2.19-4.54.11-6.79-3.76-2.07-8.1-1.27-12.18-1.03 6.98-6.43 15.42-11.66 20.12-20.19 3.09-5.36 4.21-12 2.51-17.97-1.42-4.62-7.14-5.11-10.9-3.25-5.55 2.61-9.65 7.33-13.71 11.77 3.09-7.6 5.88-15.6 5.6-23.91.06-5.61-.34-12.02-4.69-16.11-1.83-2.29-5.1-1.73-7.63-1.32-5.01 3.24-7.6 8.9-9.58 14.3-3.47 8.86-4.09 18.37-4.43 27.77-3.73-10.46-5.09-22.48-.45-32.89 3.92-9.08 9.55-17.32 15.38-25.26 9.52-12.36 20.02-24.06 32.1-33.98 1.68-1.39 3.54-2.59 5.62-3.29 2.59 1.62.76 4.63.09 6.83-5.1 12.75-13.03 24.07-20.15 35.73 10.49-9.84 21.7-18.91 33.43-27.25 13.23-9.22 26.91-18.1 41.97-24.06zM348.07 69.06c1.9-2.27 3.88-5.09 7.17-5.1.58 4.45.78 10.08-3.31 12.98-6.86 5.7-13.24 11.99-18.96 18.84-1.12 1.34-2.43 2.51-3.89 3.47.36-3.39 2.6-6.06 4.2-8.94 4.32-7.49 9.62-14.34 14.79-21.25zM80.33 83.34c11.68-5.73 25.38-5.46 37.74-2.3-6.75 1.74-13.65 3.09-19.92 6.25-12.48 5.5-23.1 14.24-32.85 23.61.58-6.89 2.68-13.66 5.83-19.81 1.83-3.75 5.64-5.91 9.2-7.75zM268.58 81.17c4.78 3.14 3.74 9.22 2.85 14.01-.35 1.81-1.31 3.42-2.59 4.72-.64-6.21.11-12.48-.26-18.73zM109.23 86.4c4.38-1.34 8.93-2.09 13.52-1.99-5.07 11.39-7.76 23.81-6.98 36.31-7.31-.92-15.33 1.11-20.28 6.83-5.39 6.17-6.69 14.97-5.05 22.82 2.42 10.87 6.35 21.5 12.41 30.89 5.5 8.87 13.29 16.11 21.73 22.15 12.59 8.28 26.93 13.72 38.79 23.14 5.27 4.53 10.45 9.87 12.1 16.86.45 3.04.96 6.53-1.06 9.15-4.58 6.71-9.53 13.34-15.95 18.41 1.54-13.67-3.65-27.04-11.18-38.21-8.89-12.87-20.71-23.35-32.33-33.7-12.77-11.16-25.57-22.45-36.27-35.68-1.31-1.69-2.5-3.47-3.49-5.36-6.09-12.37-10.19-25.87-10.63-39.71.35-2.12 2.12-3.69 3.44-5.28 11.36-11.95 25.37-21.78 41.23-26.63zM275.21 92.7c2.25 1.34 3.03 3.94 4.11 6.16 3.82 8.83 7.56 17.75 9.93 27.09-.05 4.27-1.83 8.29-3.22 12.27-.94-1.46-1.72-3.01-2.26-4.65-2.98-8.84-6.35-17.57-10.51-25.93-.78-1.55-1.59-3.35-.87-5.1 1.15-3.21 2.05-6.51 2.82-9.84zM168.67 123.53c2.65.07 5.31.09 7.96.14-3.65 10.08.22 21.42 7.73 28.67-1.26 3-2.62 5.96-4.21 8.8-4.69-4.81-9.11-10.21-11.1-16.74-1.04-3.44-2.02-6.94-2.44-10.5.17-3.53 1.39-6.92 2.06-10.37zM93.65 138.06c1.9-9.84 13.05-16.9 22.67-13.5 1.31 7.11 3 14.25 6.58 20.6 3.63 7.3 9.78 12.79 15.18 18.73 2.7 2.92 4.71 6.92 4.22 10.98-1.56 5.31-4.81 9.88-7.96 14.35-1.68 2.09-1.49 5.28.26 7.27 4.58 6.01 12.25 8.19 19.3 9.75 10.31 2.34 21 1.78 31.35.07 1.54 12.82-.26 26.1-6.18 37.65-1.74-5.43-4.26-10.67-8.18-14.87-16.16-16.61-40.79-21.34-56.43-38.56-9.65-9.36-15.71-21.84-19.33-34.65-1.93-5.71-2.35-11.88-1.48-17.82zM188.03 127.05c7.06 1.26 13.36 5.05 20.32 6.77.31 2.25.2 4.53-.68 6.64-6.76 1.34-13.86-1.62-17.75-7.28-1.63-1.64-1.67-3.98-1.89-6.13zM287.31 143.17c.83-3.51 2.81-6.66 3.99-10.09 1.25 4.32 2.62 8.64 3.13 13.12.34 3.94-1.56 7.56-3.65 10.76-1.13-4.6-3.01-9.06-3.47-13.79zM189.52 144.02c.48-3.4 4.35-2.11 6.27-.8 2.13.84 2.34 3.38 3.12 5.23-3.92 1.24-7.77-.76-9.39-4.43zM208.69 158.91c4.73-2.69 5.98-8.27 6.53-13.25.06 5.34 1.48 11.3-1.67 16.05-2.3 4.5-7.49 6.2-12.08 7.27-1.7.6-3.41-.33-5.1-.54.07-2.68.56-5.3 1.19-7.9 3.75 0 7.91.79 11.13-1.63zM186.69 155.11c1.68 1.04 3.38 2.04 5.1 3.02-.88 2.93-1.8 5.85-2.53 8.83-2.08-1.06-4.14-2.13-6.2-3.23 1.02-2.95 2.38-5.76 3.63-8.62zM292.3 160.32c.76-1.87 2.19-3.36 3.73-4.63 2.05 12.69 2.56 25.75.87 38.5-.77-6.59-1.32-13.22-2.59-19.75-.7-4.7-2.38-9.32-2.01-14.12zM192.35 169.4c-.13-3.72.99-7.31 2.14-10.8.03 3.66.19 7.72-2.14 10.8zM463.61 171.86c18.54-1.56 37.72-.63 55.17 6.38 15.76 5.98 29.73 16.68 39.16 30.7 11.1 16.71 18.49 36.03 20.37 56.06-.14 4.8-1.62 9.45-3.15 13.96-5.72 15.29-15.88 28.45-27.21 40.02-8.84 8.39-18.39 16.24-29.33 21.74-12.23 6.82-25.46 11.84-37 19.88-7.15 4.87-13.67 11.41-16.29 19.86-1.95 5.86-2.29 12.16-1.58 18.27.77 4.66 3.16 8.79 5.19 12.98-4.52-1.09-9.21-2.09-13.25-4.45-6.15-5.55-6.59-15-3.97-22.38 3.84-10.32 12.78-17.35 21.23-23.83 13.47-10.08 26.75-20.53 38.52-32.58 11.06-11.48 19.96-25.56 22.98-41.39 3.21-15.51.08-32.02-8.06-45.55-10.75-18.2-28.94-31.1-48.67-38-11.43-4.2-23.54-6.21-35.66-6.81-17.38-.16-35.21 3.89-49.64 13.91-.66-1.96-1.33-3.92-2.01-5.86 11.83-9.05 24.38-17.3 37.94-23.51 11.09-5.2 23.19-7.77 35.26-9.4zM88.14 178.99c9.07 8.23 17.92 16.72 27.27 24.64 9.5 8.82 19.35 17.43 27.1 27.9 6.43 8.68 11.54 18.71 12.92 29.53.41 5.68.13 12.77-4.93 16.44-6.91 4.9-15.13 7.81-23.49 8.99-7.99.65-16.79-1.02-22.73-6.76-4.26-4.04-7.15-9.78-6.88-15.74-.05-10.38 9.16-20.52 19.87-19.78-3.33 1.18-7.29 1.48-9.61 4.49-4.98 6.35-6.3 16.71-.06 22.72 5.95 5.27 14.86 6.28 22.23 3.71 8.38-2.58 14.4-10.6 15.65-19.13.28-5.55.47-11.33-1.89-16.5-5.44-13-16.95-21.81-27.06-31.04-4.7-4.65-9.91-8.74-14.5-13.5-5.1-4.89-9.44-10.5-13.89-15.97zM405.24 206.97c18.19-8.12 39.05-8.5 58.28-4.25 16.6 3.69 32.58 11.13 45.38 22.44 13.22 11.96 22.83 28.72 23.55 46.8.87 17.54-6.55 34.6-17.57 47.94-12.35 14.06-26.85 26.02-41.88 37.08-9.6 7.5-20.25 15.34-24.4 27.32-1.21 4.16-2.46 8.66-1.25 12.98.43 2.25 1.05 4.46 1.42 6.73-6.04-3.35-10.58-9.43-11.35-16.39-1.72-7.76.18-15.67 2.18-23.18 3.85-13.75 13.79-24.44 22.02-35.71 11.27-15 23.01-31.36 24.47-50.69 1.2-14.67-4.61-29.17-13.67-40.51-9.05-11.3-21.58-20.34-35.91-23.36-4.75-1.22-9.61-1.95-14.51-1.88-7.08.05-14.39-.59-21.19 1.84-2.61.65-5.35 2.52-8.03 1.1 3.29-3.87 7.96-6.11 12.46-8.26zM367.45 203.95l3.29-1.95c-.42 2.98.83 7.22-2.93 8.31-.15-2.12-.24-4.24-.36-6.36zM221.6 217.79c2.38-4.44 3.64-9.42 6.38-13.67 1.19 9.86.19 19.81.77 29.7.22 3.44 1.68 7.29-.52 10.39-6.2 10.96-13.57 21.63-23.64 29.4-12.37 10.41-27.11 18-37.7 30.47 1.28-4.37 3.38-8.43 5.56-12.41 7.43-14.15 16.97-27.03 26.39-39.9 8.17-10.91 16.48-21.83 22.76-33.98zM359.85 209.97c2.07-2.12 4.12-4.26 6.41-6.15.17 3.82 2.2 7.94.08 11.54-1.58 2.94-2.56 6.86-6.09 8.03-2.63 1.4-5.66 1.12-8.51.86-.27-2.66-1.36-6.31 1.43-8.06 2.28-2.06 5.39-1.96 8.25-1.98-.53-1.42-1.06-2.83-1.57-4.24zM364.34 223.14c3.29-6.58 9.47-14.03 17.66-12.63-2.36 4.21-6.36 7.04-10.98 8.29 1.1 3.32 3.61 7.04 1.47 10.47-.78 2.19-3.39 2.79-5.37 1.98-2.15-2.08-2.82-5.22-2.78-8.11zM357.33 211.25c2.77-.43.45 2.94-1.22 2.13-1.62-.52.28-2.16 1.22-2.13zM344.02 227.45c4.39 2.55 3.7 7.88 3.54 12.19 3.13.29 6.92.03 9.15 2.68 1.74 1.55 1.4 5.03-.72 6.08-2.47.33-5.27.51-7.44-.93-3.88-5.69-7.94-13.2-4.53-20.02zM369.93 234.81c3.24.67 4.79 4.11 4.61 7.17.5 3.73-1.15 7.31-3.28 10.27-2.48 1.9-5.59 2.43-8.63 2.31-.23-1.92-.78-3.94.01-5.82 1.89-2 4.64-2.71 7.2-3.44-1.65-3.24-2.52-7.48.09-10.49zM372.43 253.94c2.44-5.87 7-11.03 13.48-12.3.18 4.44-4.47 6.4-7.87 7.93 1.5 2.62 2.49 5.49 2.51 8.54-1.77.86-3.65 1.46-5.62 1.54-.79-1.92-1.62-3.83-2.5-5.71zM205.3 277.21c10.4-8.06 18.63-18.61 24.92-30.1 2.9 3.3 3.9 7.78 6.55 11.27 2.23 3.88 6.73 6.78 6.65 11.67.13 4.95 1.7 9.9.85 14.84-8.32 8.2-19.69 12.81-31.11 14.58-6.64 1.3-13.65.78-19.98 3.52-12.86 5.3-23.63 15.29-30.46 27.35-.13-4.68-.91-9.6.84-14.08 1.88-5.2 5.36-9.6 8.97-13.71 9.77-9.87 22.09-16.57 32.77-25.34zM248.24 271.04c3.1 1.93 6.28 3.75 9.52 5.45 1.27.39 1.16 2.04.67 2.99-2.41 4.9-5.44 9.46-7.8 14.39-.85-7.61-2.01-15.19-2.39-22.83zM331.11 279.32c2.43-1.05 4.9-2.01 7.36-2.97 12.77 16.41 24.2 34.65 28.31 55.31 3.81 19.96 2.41 40.96-3.85 60.28-4.77 1.02-9.81.26-14.68.32 6.49-21.31 10.31-43.95 7.07-66.19-1.19-8.71-4.48-17-8.67-24.68-4.4-7.89-10.34-14.73-15.54-22.07zM562.41 307.39c6.69-8.59 12.39-18.05 15.99-28.36-.52 18.9-8.24 37.43-21.24 51.15-9.07 9.27-18.74 17.93-29.08 25.75-7.42 6.33-16.14 11.17-22.62 18.55-2.37 2.84-4.25 7.38-1.56 10.64 3.82 4.78 10.34 5.95 16.1 6.53 8.73.51 17.51.24 26.16-1.07 18.02-.89 37.29-1.12 53.6 7.69-3.34 1.68-7.13.98-10.71 1.37-28.58 2.81-56.06 12.03-84.58 15.19-8.75 1.29-17.73.83-26.36-1.01-5.61-1.09-8.4-6.84-10.24-11.67-3.65-12.08-.1-26.35 9.81-34.5 15.66-13.13 35.85-18.88 52.7-30.18 12.12-8.31 22.89-18.59 32.03-30.08zM234.62 295.68c3.81-1.95 6.98-4.93 10.88-6.7-.19 1.56.14 3.36-.98 4.66-3.99 5.23-8.95 9.65-14.16 13.62-7.49 5.47-16.32 8.84-23.51 14.75-7.45 5.82-13.81 13.62-16.35 22.86-2.04 7.75.8 17.31 8.36 20.98 6.91 2.72 15.45-1.14 17.93-8.17 2.32-5.53-.47-11.16-2.72-16.17 5.67 3.84 7.81 11.38 6.14 17.86-1.27 3.78-4.93 5.83-8.11 7.83-8.3 4.67-18.9 4.35-27.24-.06-10.04-5.15-16.73-15.08-20.16-25.59-.79-3.27-.57-6.85 1.09-9.82 4.51-9.03 12.07-16.23 20.49-21.63 5.28-3.21 11.08-5.86 17.32-6.34 10.7-.81 21.5-2.94 31.02-8.08zM281.72 323.83c-1.06-5.14 2.04-9.81 4.23-14.2 3.04 9.21 5.71 18.64 6.93 28.28-5.18-3.18-10.07-7.85-11.16-14.08zM244.46 393.99c2.52-9.32 4-18.88 5.36-28.42 6.62 10.57 13.09 21.29 21.07 30.93-8.35.1-16.71.33-25.04-.17l-1.39-2.34zM571.93 387.49c8.98-1.22 18.07-1.24 27.11-.89 4.76.18 9.52 1.35 13.56 3.96 4.94 3.14 10.02 6.44 13.49 11.27-5.47-.24-10.72-2.06-16.19-2.32-3.85.17-6.42-3.13-9.65-4.68-8.75-4.5-18.58-6.48-28.32-7.34zM617.2 389.3c4.8 2.03 9.83 3.6 14.23 6.46 7.95 5.12 14.94 12.21 18.73 20.97 2.77 6.19 2.06 14.51-3.56 18.9-7.26 5.66-16.58 7.77-25.56 8.72-9.1.27-19.37.54-26.88-5.46-3.8-3.15-3.12-8.78-1.09-12.73 1.36-3.31 4.37-6.26 8.21-5.9-2.17 2.17-5.28 3.56-6.6 6.48-1 3.98-.7 9.07 2.99 11.62 5.11 3.34 11.45 3.51 17.36 3.38 6.27.14 12.73-1.28 18.06-4.66 7.18-4.96 8.9-14.91 6.49-22.83-5.26-10.02-13.58-18.01-22.38-24.95zM295.91 397.05c.32-2.28 1.59-4.17 2.89-5.99-.19 2.34-.71 4.71-2.89 5.99z"/></g><g fill="#282627"><path d="M195.42 23.77c.26-6.44 1.49-13.22 5.45-18.48 1.85.18 3.7.52 5.34 1.45 15.79 8.26 30.82 19.3 40.16 34.78 2.96 4.42 4.35 9.97 8.7 13.34 10.7 9.57 19.17 21.26 26.26 33.67.25-6.86 1.04-13.68 1.25-20.54.84-7.95 3.23-15.62 5.3-23.31 1.52-4.95 3.38-10.21 7.34-13.76 1.96-1.16 5.85-1.44 6.45 1.49 4.63 11.97 4.38 25.08 3.08 37.65-.22 4.9-.16 9.8-.29 14.71 2.44-11.73 4.32-23.62 8.06-35.03 3.8-11.88 8.01-23.83 14.73-34.42 2.5-3.47 5.99-7.65 10.73-7.19 2.36-.1 3.55 2.42 4.22 4.31 2.04 8.7.45 17.74-1.07 26.39-4.06 17.02-8.12 34.08-10.81 51.38 6.26-10.41 11.66-21.86 21.3-29.68 1.8-1.69 4.44-.98 6.67-1.21 2.23 3.44 1.1 7.53.88 11.33 2.75-1.47 5.5-3.64 8.81-3.26 2.72 1.1 4 4.56 3.12 7.28-2.59 9.27-8.4 17.13-12.74 25.59 13.52-12.37 27.75-24.16 43.53-33.57 8.7-4.82 17.88-10.2 28.13-10.19 4.74-.19 8.51 4.82 7.27 9.36-1.79 8.12-7.01 14.93-12.27 21.16-13.62 16.43-30.79 29.37-47.96 41.84 10.89-6.02 21.85-12.06 33.46-16.62 8.22-2.69 16.8-5.1 25.53-4.78 3.64-.15 7.78 2.56 7.57 6.53.37 6.52-5.24 11.07-9.66 14.97-11.63 10.35-25.53 17.83-40.11 23.11-6.61 2.69-13.35 5.06-19.96 7.76 7.19-.18 14.01-2.76 21.16-3.29 7.26-1.09 14.65-1.69 21.98-1.04 2.9.48 6.11 1.08 8.28 3.24.93 2.75.56 6-1.45 8.19-2.78 3.1-6.61 5.05-10.32 6.82-12.91 5.44-26.79 7.84-40.3 11.24 6.8 3.42 11.78 9.32 15.62 15.76 26.85-24.13 62.66-39.01 98.99-37.93 23.74 1.16 48.16 8.96 65.29 26.04 12.86 12.11 21 28.35 26.27 45.01 5.81 19.93 7.08 41.5 1.89 61.7-4.64 17.53-15.11 33.1-28.18 45.5-9.67 9.86-20.77 18.17-32.01 26.13-4.31 2.95-10.26 5.78-10.57 11.74 1.13 3.85 4.57 6.69 8.24 8.06 7.09 2.55 14.85 1.74 22.14.58 14.34-1.11 28.46-4.09 42.81-5.22 17.65-2.49 36.87-.38 51.82 10.03 9.62 6.23 17.15 15.87 20.36 26.91 2.41 8.28-2.02 17.38-9.36 21.52-6.75 3.66-14.43 5.45-22.06 5.99-8.92 1.36-18.25.62-26.71-2.58-4.09-1.82-8.47-5.39-8.41-10.27-.75-6.1 3.21-12.26 8.82-14.57 4.1-1.89 8.91-1.17 12.89.68-4.35-.14-8.5 1.42-11.98 3.97-3.71 2.95-3.65 9.11-.42 12.37 3.6 2.31 8.08 3.04 12.3 2.92 6.96-.82 14.48-1.77 20.15-6.28 3.65-2.8 5.13-7.52 5.22-11.96-.17-6.2-4.55-11.71-10.15-14.08-7.01-2.91-14.66-3.9-22.2-3.59-15.56-.56-30.91 2.71-46.05 5.92-18.03 3.82-35.59 9.67-53.81 12.55-4.66.94-9.43.71-14.14.82-5.36-.09-10.82.24-16.03-1.22-12.89-3.12-26.98-5.95-36.46-16.03-7.38-8.15-7.96-19.91-6.58-30.26 1.35-8.72 3.38-17.51 8.03-25.12 10.71-17.97 26.15-32.78 35.67-51.53 5.48-10.81 7.59-23.31 5.33-35.27-3.61-14.54-13.14-27.38-25.79-35.34-8.15-5.32-17.58-8.43-27.11-10.16-5.15-.49-10.35-1.77-15.52-.71-5.67.69-11.12 2.61-16.2 5.19.03 5.92.27 11.84.11 17.77-.95 13.37-5.01 26.54-12.25 37.86 2.57-.88 4.96-2.52 7.73-2.68 2.28-.28 2.95 2.4 4.03 3.89 15.23 27.98 21.98 59.66 26.12 90.98 1.2 11.68 1.9 23.44 1.19 35.18-21.1.13-42.21.04-63.31.06.75-2.85 1.67-5.67 2.12-8.59-6.95-.08-13.91.17-20.85-.21 6.3-16.13 10.71-33.15 11.85-50.47.42-10.11.27-20.51-3.35-30.1-4.99-13.18-14.47-23.88-23.14-34.73-8.47 1.63-16.98 3.21-25.61 3.57-2.42 6.61-6.52 12.37-10.07 18.39-1.19 1.64-.25 3.63.22 5.35 3.41 10.31 5.69 20.95 7.98 31.55 4.05 3.21 9.87 2.76 13.93 5.87 1.77 3.27.54 7.23 0 10.69-1.72 8.32-4.95 16.21-8.19 24.02-1.39 5.67.23 11.6-.23 17.38.1 1.84-1.69 2.98-2.58 4.4-3.21.1-6.44-.05-9.64.22-2.5 1.42-3.79 4.43-6.49 5.63-4.26.61-6.37-4.2-9.85-5.72-11.59-.16-23.2.18-34.78-.17-3.21-.58-3.33-4.38-2.48-6.89 3.44-12.6 5.21-25.57 6.59-38.53.08-1.66-.72-3.18-1.32-4.67-3.48-7.19-6.13-15.16-5.32-23.25.78-5.63 1.85-11.27 3.93-16.58 1.46-4.18 3.89-8.11 4.1-12.62-4.67 3.61-8.35 8.36-13.38 11.54-9.97 6.63-21.68 11.04-29.79 20.18-4.5 5.19-8.89 11.33-8.95 18.49-.28 5.25 2.36 11.05 7.47 13.05 6.25 1.95 13.9-3.28 13.73-10.01.3-3.8-.65-7.81-3.52-10.48-2.83-1.8-6.35-1.62-9.5-2.45 4.72-2.55 10.98-2.82 15.37.57 6.65 4.1 9.2 12.83 6.71 20.07-3.52 7.37-11.07 12.23-18.95 13.76-8.99 2.16-18.63-.27-26.37-5.05-11.9-7.75-19.11-21.11-21.53-34.87-2.64-16.64 2.88-33.31 10.8-47.77 10.78-19.86 25.1-37.45 38.56-55.5 9.2-13.15 16.67-28 19.03-44.02-4.77 2.58-9 6.04-13.82 8.56-6.44 3.65-13.4 6.26-20.39 8.66 2.46 15.51-.61 31.63-8.07 45.4-5.85 11.26-14.48 20.9-24.39 28.76-8.33 6.5-18.1 11.72-28.76 12.78-6.35.31-13 .7-19.02-1.73-8.85-3.18-16.31-11.11-17.64-20.59-1.91-8.06 1.4-16.88 7.55-22.29 4.54-4.72 11.74-7.24 18.06-4.99 4.9 2.03 6.17 8.06 5.19 12.8-1.32-2.32-2.41-4.82-4.26-6.77-3.08-1.61-7.2-1.39-9.53 1.4-5.2 5.44-5.9 15.92.62 20.66 3.77 2.95 8.89 3.04 13.45 2.63 7.85-.64 14.55-6.83 16.54-14.34 1.74-7.56.53-15.9-4.06-22.27-8.15-11.71-19.88-20.14-30.6-29.31-20.91-17.23-38.21-39.97-45.03-66.51-2.27-8.24-2.07-16.81-1.88-25.28.85-16.94 8.85-32.92 20.47-45.08 16.56-17.62 38.35-29.16 60.3-38.65 12.6-5.07 26.17-8.27 39.81-7.94 5.15-.06 10.29.15 15.42.5m7.22-11.37c-2.53 5.16-2.89 10.98-3.15 16.63-.26 9.28 1.61 18.44 3.74 27.42-2-2.87-3.85-5.87-5.04-9.19-8.86-.16-17.45 2.61-25.79 5.31-18.38 6.33-35.43 18.76-44.02 36.58-4.5 8.58-6.15 18.28-6.71 27.85.73 7.33 1.41 14.76 3.75 21.79 2.59 7.55 7.41 14.14 13.24 19.51 4.64 4.27 8.6 10.12 7.85 16.74-.05 6.94-5.04 12.14-8.06 17.89 1.23 3.76 5.25 5.62 8.62 7.09 5.85 2.04 12.09 3.54 18.31 3.36 3.75-4.32 2.73-10.28 1.96-15.45 1.63 2.2 3.47 4.42 3.94 7.21.34 2.88-.62 5.68-.99 8.52 10.72.03 21.13-3.28 30.95-7.31 9.8-4.35 19.25-9.69 27.47-16.64 3.47-2.86 6.09-6.56 9.28-9.71-1.94 4.73-4.56 9.17-8.3 12.7-1.84 1.28-1.62 3.58-.82 5.41 2.92 7.62 4.47 15.72 4.82 23.87 1.37 8.68-1.37 17.45.61 26.11.72 15.95 11.69 31.35 27.2 35.86 2.53-5.1 4.55-10.46 5.78-16.03.2 3.15.55 6.38-.14 9.5-4.8 18.8-18.41 33.85-23.49 52.53-1.62 5.2-1.49 10.7-1.34 16.08.23 6.4 3.45 12.12 6.25 17.71 7.58 13.86 16.24 27.18 26.4 39.29 2.61 2.96 4.97 6.3 8.41 8.36 1.68.49 2.77-1.11 3.77-2.15 7.7-9.05 12.52-20.1 16.76-31.1 1.94-5.98 4.42-12.07 3.8-18.48-8.19-3.04-17.21-5.31-23.32-12.01-6.42-6-9.09-16.14-5.05-24.17 4.32-9.35 10.28-17.81 15.3-26.77 4.02-7 7.41-14.99 5.51-23.21 2.95 4.82 2.94 10.46 2.27 15.91 5.42-.39 10.85-.74 16.24-1.42 5.89-1.08 12.22-1.43 17.39-4.74-4.63-6.8-8.21-14.26-11.12-21.94-.91-2.38-1.45-4.87-1.72-7.38 5.9 9.39 10.5 19.63 17.52 28.3 15.65 19.8 29.86 42.22 33.14 67.76 1.8 15.34.5 31.04-3.53 45.96-1.29 4.8-3.09 9.45-4.19 14.31 16.89.26 33.79.16 50.68.05.65-17.08-.91-34.16-3.93-50.96-4.17-22.9-10.47-45.74-22-66.11-.93-1.25-1.79-3.4-3.71-2.88-3.8.82-7.35 2.5-11.17 3.27.88-2.98 2.84-5.44 4.26-8.17 5.3-9.66 7.48-20.63 8.99-31.45.88-14.13.17-28.99-6.52-41.79-3.57-7.08-9.94-13.16-17.8-14.93-6.49-.01-12.71 2.65-18.5 5.37 5.83.08 12.19-.82 17.42 2.39 2.69 1.69 2.56 5.17 2.87 7.95 1.47-.78 2.96-1.55 4.61-1.88.09 2.3.07 4.59.12 6.89 1.83-1.35 3.69-2.67 5.62-3.88.3 1.25.65 2.5 1.04 3.74-.69-.84-1.36-1.69-2.02-2.54-2.17 1.82-4.74 3.61-5.13 6.66 3.92-.92 7.71-4.59 11.88-2.72-.48 5.36-5.48 8.22-9.74 10.49.63 3.04 1.87 6.21.8 9.3-.71 3.52-5.71 4.65-8.17 2.21-1.67-2.12-2.19-4.82-2.96-7.34-4.05.84-9.14 3.56-12.5-.26-.27-3.49.37-6.88 2.58-9.68-5.44 1.82-10.85 3.9-16.59 4.58-4.69.58-8.86 2.92-13.23 4.53 7.97-5.09 17.2-9.81 21.56-18.68.98-1.35.95-3.82-.89-4.37-5.1-1.78-10.47.2-15.59.91 5.85-4.36 11.31-9.23 16.42-14.44 4.96-5.02 9.76-11.17 10.25-18.48 0-3.45.7-7.7-2.65-9.89-10.47 3.82-17.4 13.03-25.55 20.13 5.33-13.51 10.41-28.07 7.74-42.79-.78-2.57-2.19-5.96-5.32-6.07-2.86 1.53-4.91 4.21-6.43 7.01-3.57 6.39-5.85 13.47-7.05 20.67-.89 9.53.34 19.19-1.34 28.65-1.87 6.02-5.15 11.51-8.75 16.64-3.44 4.55-7 9.34-12.19 12.01 3.25-5.57 7.95-10.16 10.91-15.93-3.47.61-6.96 1.12-10.48 1.23-2.4-29.94-10.95-59.16-23-86.58-4.61-9.92-9.51-19.83-16.23-28.51-1.45-2.06-4.05-3.88-3.75-6.67.22-6.34.34-12.85-1.9-18.9-6.5-20.18-22.93-35.45-40.89-45.77-1.54-1.13-3.5-.79-5.27-.87m131.67 4.15c-7.18 7.17-10.59 17.01-14.45 26.17-6.15 16.76-11.19 33.93-15.11 51.35-.42 1.6-.6 3.55-2.23 4.44-.33-10.63.6-21.35-.8-31.93-.63-8.93-.35-18.29-3.92-26.67-3.59 1.34-5.04 5.17-6.13 8.52-3.44 12.59-5.42 25.55-6.14 38.56.14 4.19-.68 8.62 1 12.6 11.09 25.82 16.02 54.2 14.78 82.24-.57 4.67-1.14 9.34-1.1 14.06 2.05-.41 4.22-.58 6.12-1.54 2.63-3.53 4.3-7.9 4.38-12.32.47-6.74-2.98-12.81-4.53-19.19-3.29-10.83-2.06-22.78 2.99-32.87 5.08-9.96 11.32-19.35 18.5-27.92-.17-2.36-.35-4.72-.2-7.08 1.55-19.45 6.02-38.51 8.24-57.88 1.12-6.74 1.8-13.69.57-20.46l-1.97-.08m-186.44 18.31c6.58 3.6 12.35 8.41 17.45 13.9 10.21-3.24 20.67-5.7 31.34-6.73-.7-4.72-1.24-9.46-1.44-14.23-6.38-.43-12.8-.46-19.19-.24-9.63 1.25-19.14 3.66-28.16 7.3m-8.81 3.5c-22.79 10.27-46.22 22.25-61.67 42.58 4.63-1.84 9.27-3.87 14.25-4.49 11.29-2.11 22.87.09 33.77 3.16 3.3-4.39 6.43-8.95 10.46-12.72 7.34-7.49 16.64-12.64 26.21-16.73-3.9-4.2-8.11-8.27-13.24-10.92-2.96-1.62-6.64-2.63-9.78-.88m116.15 23.63c.1 4.69.22 9.38-.01 14.07.08 1.34-.38 3 .74 4.05 3.42 3.91 6.35 8.21 9.45 12.38.59-6.56.38-13.44-2.24-19.57-2.06-4.04-5.28-7.3-7.94-10.93m165.31 2.48c-15.06 5.96-28.74 14.84-41.97 24.06-11.73 8.34-22.94 17.41-33.43 27.25 7.12-11.66 15.05-22.98 20.15-35.73.67-2.2 2.5-5.21-.09-6.83-2.08.7-3.94 1.9-5.62 3.29-12.08 9.92-22.58 21.62-32.1 33.98-5.83 7.94-11.46 16.18-15.38 25.26-4.64 10.41-3.28 22.43.45 32.89.34-9.4.96-18.91 4.43-27.77 1.98-5.4 4.57-11.06 9.58-14.3 2.53-.41 5.8-.97 7.63 1.32 4.35 4.09 4.75 10.5 4.69 16.11.28 8.31-2.51 16.31-5.6 23.91 4.06-4.44 8.16-9.16 13.71-11.77 3.76-1.86 9.48-1.37 10.9 3.25 1.7 5.97.58 12.61-2.51 17.97-4.7 8.53-13.14 13.76-20.12 20.19 4.08-.24 8.42-1.04 12.18 1.03.08 2.25.55 4.59-.11 6.79-1.63 4.04-5.31 6.63-8.18 9.73 6.05-1.72 11.98-4.16 17.18-7.74 2.8-2.33 6.52-4.79 6.44-8.87-6-4.43-13.81-4.02-20.87-3.91 3.04-2.9 6.42-5.52 10.34-7.12 17.08-7.22 35.58-9.99 53.07-15.97 6.14-2.07 12.13-5.03 16.74-9.69-9.55-3.68-20.11-2.1-30.07-1.52-10.1.34-20.01 2.4-29.85 4.52 15.21-10.34 31.72-18.59 48.18-26.72 7.76-3.32 13.91-9.25 20.39-14.48 2.87-2.73 6.89-5.6 6.05-10.11-3.25-1.63-6.74-.17-10.08.32-22.43 4.76-43.35 14.62-63.61 25.07 2.82-4.37 6.99-7.55 10.83-10.96 10.78-9.56 21.5-19.19 31.72-29.35 7.09-6.88 14.42-13.73 19.77-22.12 2.49-3.91 5.59-7.97 5.28-12.87-3.39-.58-6.92-.45-10.12.89m-72.45 4.59c-5.17 6.91-10.47 13.76-14.79 21.25-1.6 2.88-3.84 5.55-4.2 8.94 1.46-.96 2.77-2.13 3.89-3.47 5.72-6.85 12.1-13.14 18.96-18.84 4.09-2.9 3.89-8.53 3.31-12.98-3.29.01-5.27 2.83-7.17 5.1m-267.74 14.28c-3.56 1.84-7.37 4-9.2 7.75-3.15 6.15-5.25 12.92-5.83 19.81 9.75-9.37 20.37-18.11 32.85-23.61 6.27-3.16 13.17-4.51 19.92-6.25-12.36-3.16-26.06-3.43-37.74 2.3m188.25-2.17c.37 6.25-.38 12.52.26 18.73 1.28-1.3 2.24-2.91 2.59-4.72.89-4.79 1.93-10.87-2.85-14.01m-159.35 5.23c-15.86 4.85-29.87 14.68-41.23 26.63-1.32 1.59-3.09 3.16-3.44 5.28.44 13.84 4.54 27.34 10.63 39.71.99 1.89 2.18 3.67 3.49 5.36 10.7 13.23 23.5 24.52 36.27 35.68 11.62 10.35 23.44 20.83 32.33 33.7 7.53 11.17 12.72 24.54 11.18 38.21 6.42-5.07 11.37-11.7 15.95-18.41 2.02-2.62 1.51-6.11 1.06-9.15-1.65-6.99-6.83-12.33-12.1-16.86-11.86-9.42-26.2-14.86-38.79-23.14-8.44-6.04-16.23-13.28-21.73-22.15-6.06-9.39-9.99-20.02-12.41-30.89-1.64-7.85-.34-16.65 5.05-22.82 4.95-5.72 12.97-7.75 20.28-6.83-.78-12.5 1.91-24.92 6.98-36.31-4.59-.1-9.14.65-13.52 1.99m165.98 6.3c-.77 3.33-1.67 6.63-2.82 9.84-.72 1.75.09 3.55.87 5.1 4.16 8.36 7.53 17.09 10.51 25.93.54 1.64 1.32 3.19 2.26 4.65 1.39-3.98 3.17-8 3.22-12.27-2.37-9.34-6.11-18.26-9.93-27.09-1.08-2.22-1.86-4.82-4.11-6.16m-181.56 45.36c-.87 5.94-.45 12.11 1.48 17.82 3.62 12.81 9.68 25.29 19.33 34.65 15.64 17.22 40.27 21.95 56.43 38.56 3.92 4.2 6.44 9.44 8.18 14.87 5.92-11.55 7.72-24.83 6.18-37.65-10.35 1.71-21.04 2.27-31.35-.07-7.05-1.56-14.72-3.74-19.3-9.75-1.75-1.99-1.94-5.18-.26-7.27 3.15-4.47 6.4-9.04 7.96-14.35.49-4.06-1.52-8.06-4.22-10.98-5.4-5.94-11.55-11.43-15.18-18.73-3.58-6.35-5.27-13.49-6.58-20.6-9.62-3.4-20.77 3.66-22.67 13.5m193.66 5.11c.46 4.73 2.34 9.19 3.47 13.79 2.09-3.2 3.99-6.82 3.65-10.76-.51-4.48-1.88-8.8-3.13-13.12-1.18 3.43-3.16 6.58-3.99 10.09m4.99 17.15c-.37 4.8 1.31 9.42 2.01 14.12 1.27 6.53 1.82 13.16 2.59 19.75 1.69-12.75 1.18-25.81-.87-38.5-1.54 1.27-2.97 2.76-3.73 4.63m171.31 11.54c-12.07 1.63-24.17 4.2-35.26 9.4-13.56 6.21-26.11 14.46-37.94 23.51.68 1.94 1.35 3.9 2.01 5.86 14.43-10.02 32.26-14.07 49.64-13.91 12.12.6 24.23 2.61 35.66 6.81 19.73 6.9 37.92 19.8 48.67 38 8.14 13.53 11.27 30.04 8.06 45.55-3.02 15.83-11.92 29.91-22.98 41.39-11.77 12.05-25.05 22.5-38.52 32.58-8.45 6.48-17.39 13.51-21.23 23.83-2.62 7.38-2.18 16.83 3.97 22.38 4.04 2.36 8.73 3.36 13.25 4.45-2.03-4.19-4.42-8.32-5.19-12.98-.71-6.11-.37-12.41 1.58-18.27 2.62-8.45 9.14-14.99 16.29-19.86 11.54-8.04 24.77-13.06 37-19.88 10.94-5.5 20.49-13.35 29.33-21.74 11.33-11.57 21.49-24.73 27.21-40.02 1.53-4.51 3.01-9.16 3.15-13.96-1.88-20.03-9.27-39.35-20.37-56.06-9.43-14.02-23.4-24.72-39.16-30.7-17.45-7.01-36.63-7.94-55.17-6.38m-375.47 7.13c4.45 5.47 8.79 11.08 13.89 15.97 4.59 4.76 9.8 8.85 14.5 13.5 10.11 9.23 21.62 18.04 27.06 31.04 2.36 5.17 2.17 10.95 1.89 16.5-1.25 8.53-7.27 16.55-15.65 19.13-7.37 2.57-16.28 1.56-22.23-3.71-6.24-6.01-4.92-16.37.06-22.72 2.32-3.01 6.28-3.31 9.61-4.49-10.71-.74-19.92 9.4-19.87 19.78-.27 5.96 2.62 11.7 6.88 15.74 5.94 5.74 14.74 7.41 22.73 6.76 8.36-1.18 16.58-4.09 23.49-8.99 5.06-3.67 5.34-10.76 4.93-16.44-1.38-10.82-6.49-20.85-12.92-29.53-7.75-10.47-17.6-19.08-27.1-27.9-9.35-7.92-18.2-16.41-27.27-24.64m317.1 27.98c-4.5 2.15-9.17 4.39-12.46 8.26 2.68 1.42 5.42-.45 8.03-1.1 6.8-2.43 14.11-1.79 21.19-1.84 4.9-.07 9.76.66 14.51 1.88 14.33 3.02 26.86 12.06 35.91 23.36 9.06 11.34 14.87 25.84 13.67 40.51-1.46 19.33-13.2 35.69-24.47 50.69-8.23 11.27-18.17 21.96-22.02 35.71-2 7.51-3.9 15.42-2.18 23.18.77 6.96 5.31 13.04 11.35 16.39-.37-2.27-.99-4.48-1.42-6.73-1.21-4.32.04-8.82 1.25-12.98 4.15-11.98 14.8-19.82 24.4-27.32 15.03-11.06 29.53-23.02 41.88-37.08 11.02-13.34 18.44-30.4 17.57-47.94-.72-18.08-10.33-34.84-23.55-46.8-12.8-11.31-28.78-18.75-45.38-22.44-19.23-4.25-40.09-3.87-58.28 4.25m-37.79-3.02c.12 2.12.21 4.24.36 6.36 3.76-1.09 2.51-5.33 2.93-8.31l-3.29 1.95m-145.85 13.84c-6.28 12.15-14.59 23.07-22.76 33.98-9.42 12.87-18.96 25.75-26.39 39.9-2.18 3.98-4.28 8.04-5.56 12.41 10.59-12.47 25.33-20.06 37.7-30.47 10.07-7.77 17.44-18.44 23.64-29.4 2.2-3.1.74-6.95.52-10.39-.58-9.89.42-19.84-.77-29.7-2.74 4.25-4 9.23-6.38 13.67m138.25-7.82c.51 1.41 1.04 2.82 1.57 4.24-2.86.02-5.97-.08-8.25 1.98-2.79 1.75-1.7 5.4-1.43 8.06 2.85.26 5.88.54 8.51-.86 3.53-1.17 4.51-5.09 6.09-8.03 2.12-3.6.09-7.72-.08-11.54-2.29 1.89-4.34 4.03-6.41 6.15m4.49 13.17c-.04 2.89.63 6.03 2.78 8.11 1.98.81 4.59.21 5.37-1.98 2.14-3.43-.37-7.15-1.47-10.47 4.62-1.25 8.62-4.08 10.98-8.29-8.19-1.4-14.37 6.05-17.66 12.63m-7.01-11.89c-.94-.03-2.84 1.61-1.22 2.13 1.67.81 3.99-2.56 1.22-2.13m-152.03 65.96c-10.68 8.77-23 15.47-32.77 25.34-3.61 4.11-7.09 8.51-8.97 13.71-1.75 4.48-.97 9.4-.84 14.08 6.83-12.06 17.6-22.05 30.46-27.35 6.33-2.74 13.34-2.22 19.98-3.52 11.42-1.77 22.79-6.38 31.11-14.58.85-4.94-.72-9.89-.85-14.84.08-4.89-4.42-7.79-6.65-11.67-2.65-3.49-3.65-7.97-6.55-11.27-6.29 11.49-14.52 22.04-24.92 30.1m42.94-6.17c.38 7.64 1.54 15.22 2.39 22.83 2.36-4.93 5.39-9.49 7.8-14.39.49-.95.6-2.6-.67-2.99-3.24-1.7-6.42-3.52-9.52-5.45m82.87 8.28c5.2 7.34 11.14 14.18 15.54 22.07 4.19 7.68 7.48 15.97 8.67 24.68 3.24 22.24-.58 44.88-7.07 66.19 4.87-.06 9.91.7 14.68-.32 6.26-19.32 7.66-40.32 3.85-60.28-4.11-20.66-15.54-38.9-28.31-55.31-2.46.96-4.93 1.92-7.36 2.97m231.3 28.07c-9.14 11.49-19.91 21.77-32.03 30.08-16.85 11.3-37.04 17.05-52.7 30.18-9.91 8.15-13.46 22.42-9.81 34.5 1.84 4.83 4.63 10.58 10.24 11.67 8.63 1.84 17.61 2.3 26.36 1.01 28.52-3.16 56-12.38 84.58-15.19 3.58-.39 7.37.31 10.71-1.37-16.31-8.81-35.58-8.58-53.6-7.69-8.65 1.31-17.43 1.58-26.16 1.07-5.76-.58-12.28-1.75-16.1-6.53-2.69-3.26-.81-7.8 1.56-10.64 6.48-7.38 15.2-12.22 22.62-18.55 10.34-7.82 20.01-16.48 29.08-25.75 13-13.72 20.72-32.25 21.24-51.15-3.6 10.31-9.3 19.77-15.99 28.36m-327.79-11.71c-9.52 5.14-20.32 7.27-31.02 8.08-6.24.48-12.04 3.13-17.32 6.34-8.42 5.4-15.98 12.6-20.49 21.63-1.66 2.97-1.88 6.55-1.09 9.82 3.43 10.51 10.12 20.44 20.16 25.59 8.34 4.41 18.94 4.73 27.24.06 3.18-2 6.84-4.05 8.11-7.83 1.67-6.48-.47-14.02-6.14-17.86 2.25 5.01 5.04 10.64 2.72 16.17-2.48 7.03-11.02 10.89-17.93 8.17-7.56-3.67-10.4-13.23-8.36-20.98 2.54-9.24 8.9-17.04 16.35-22.86 7.19-5.91 16.02-9.28 23.51-14.75 5.21-3.97 10.17-8.39 14.16-13.62 1.12-1.3.79-3.1.98-4.66-3.9 1.77-7.07 4.75-10.88 6.7m47.1 28.15c1.09 6.23 5.98 10.9 11.16 14.08-1.22-9.64-3.89-19.07-6.93-28.28-2.19 4.39-5.29 9.06-4.23 14.2m-37.26 70.16l1.39 2.34c8.33.5 16.69.27 25.04.17-7.98-9.64-14.45-20.36-21.07-30.93-1.36 9.54-2.84 19.1-5.36 28.42m327.47-6.5c9.74.86 19.57 2.84 28.32 7.34 3.23 1.55 5.8 4.85 9.65 4.68 5.47.26 10.72 2.08 16.19 2.32-3.47-4.83-8.55-8.13-13.49-11.27-4.04-2.61-8.8-3.78-13.56-3.96-9.04-.35-18.13-.33-27.11.89m45.27 1.81c8.8 6.94 17.12 14.93 22.38 24.95 2.41 7.92.69 17.87-6.49 22.83-5.33 3.38-11.79 4.8-18.06 4.66-5.91.13-12.25-.04-17.36-3.38-3.69-2.55-3.99-7.64-2.99-11.62 1.32-2.92 4.43-4.31 6.6-6.48-3.84-.36-6.85 2.59-8.21 5.9-2.03 3.95-2.71 9.58 1.09 12.73 7.51 6 17.78 5.73 26.88 5.46 8.98-.95 18.3-3.06 25.56-8.72 5.62-4.39 6.33-12.71 3.56-18.9-3.79-8.76-10.78-15.85-18.73-20.97-4.4-2.86-9.43-4.43-14.23-6.46m-321.29 7.75c2.18-1.28 2.7-3.65 2.89-5.99-1.3 1.82-2.57 3.71-2.89 5.99zM224.04 33.17c12.44 8.42 14.98 25.1 13.29 38.99-2.9-7.9-3.52-16.43-6.43-24.34-1.5-5.22-4.14-9.99-6.86-14.65zM157.41 117.75c13.48-1.84 26.96 2.13 39.19 7.52.91.27 1.83.84 2.82.68 5.69-1.09 11.27-3.79 14.82-8.5-1.2 5.61-6.29 8.65-11.05 10.99 8 2.99 16.08-1.39 23.05-5.03-2.78 4.33-7.52 6.47-12 8.58 8.93 2.99 18.17-1.35 25.99-5.54-3.09 3.96-7.35 6.81-12.25 7.98 5.28 1.05 10.82 1.28 15.93-.71-2.21 1.31-4.37 2.84-6.9 3.44-7.52 1.1-15.11-.11-22.43-1.84 2.93 7.92 5.04 16.67 2.61 25.01-1.77 5.16-6.59 8.87-11.65 10.51-8.77 2.35-18.37-.32-25.21-6.16-8.78-6.99-14.81-17.47-15.94-28.67-.47-4.67.69-9.2 1.44-13.76-4.71 1.03-10.09 2.27-13.02 6.45-1.68 7.77 3.09 14.99 5.19 22.22-4.76-6.56-9.48-13.77-10.39-22.01-.69-5.78 4.49-10.31 9.8-11.16m11.26 5.78c-.67 3.45-1.89 6.84-2.06 10.37.42 3.56 1.4 7.06 2.44 10.5 1.99 6.53 6.41 11.93 11.1 16.74 1.59-2.84 2.95-5.8 4.21-8.8-7.51-7.25-11.38-18.59-7.73-28.67-2.65-.05-5.31-.07-7.96-.14m19.36 3.52c.22 2.15.26 4.49 1.89 6.13 3.89 5.66 10.99 8.62 17.75 7.28.88-2.11.99-4.39.68-6.64-6.96-1.72-13.26-5.51-20.32-6.77m1.49 16.97c1.62 3.67 5.47 5.67 9.39 4.43-.78-1.85-.99-4.39-3.12-5.23-1.92-1.31-5.79-2.6-6.27.8m19.17 14.89c-3.22 2.42-7.38 1.63-11.13 1.63-.63 2.6-1.12 5.22-1.19 7.9 1.69.21 3.4 1.14 5.1.54 4.59-1.07 9.78-2.77 12.08-7.27 3.15-4.75 1.73-10.71 1.67-16.05-.55 4.98-1.8 10.56-6.53 13.25m-22-3.8c-1.25 2.86-2.61 5.67-3.63 8.62 2.06 1.1 4.12 2.17 6.2 3.23.73-2.98 1.65-5.9 2.53-8.83-1.72-.98-3.42-1.98-5.1-3.02m5.66 14.29c2.33-3.08 2.17-7.14 2.14-10.8-1.15 3.49-2.27 7.08-2.14 10.8zM150.78 197.22c-.8-3.06-1.47-6.22-1.09-9.39 2.21 2.74 2.66 6.22 1.09 9.39zM342.87 226.7c.86-.09 1.73-.17 2.6-.25 3.25 3.25 3.07 7.79 3.72 12 3.23.73 7.41.82 9.24 4.08.71 2.45.65 5.6-1.95 6.89-2.62.54-5.3.03-7.92-.17-.73 3.14-.65 6.81-3.01 9.3-2.06.28-4.14.1-6.2.03-1.14-1.81-2.21-3.71-2.41-5.88 1.38 1.5 2.16 3.57 3.86 4.74 1.41.3 3.16.94 4.28-.38 2-2.07 2.16-5.3 2.35-8.03-1.7-3.77-4.93-6.52-7.84-9.34-.31-1.39-.39-2.82-.56-4.23 1.13.51 2.27 1.03 3.41 1.54-1.13-3.43-.58-6.93.43-10.3m1.15.75c-3.41 6.82.65 14.33 4.53 20.02 2.17 1.44 4.97 1.26 7.44.93 2.12-1.05 2.46-4.53.72-6.08-2.23-2.65-6.02-2.39-9.15-2.68.16-4.31.85-9.64-3.54-12.19zM368.47 234.29c1.59.04 3.22-.05 4.77.41 1.54 2.15 2.11 4.79 2.72 7.32.83-.66 1.65-1.33 2.49-1.98-.01 1.09-.03 2.18-.05 3.27 2.56-1.32 5.32-2.22 8.22-2.35-.03 1.55-.04 3.11-.05 4.67-1.99 1.65-4.13 3.1-6.39 4.34.46 3 2.51 6.63.11 9.32-1.27 2.02-3.92 1.12-5.89 1.34-1.14-2.11-2.21-4.25-3.16-6.44-3.09.92-6.27 1.58-9.5 1.21-.34-2.27-.81-4.62-.23-6.89 1.5-2.08 3.95-3.02 6.14-4.15-.36-3.37-.7-6.91.82-10.07m1.46.52c-2.61 3.01-1.74 7.25-.09 10.49-2.56.73-5.31 1.44-7.2 3.44-.79 1.88-.24 3.9-.01 5.82 3.04.12 6.15-.41 8.63-2.31 2.13-2.96 3.78-6.54 3.28-10.27.18-3.06-1.37-6.5-4.61-7.17m2.5 19.13c.88 1.88 1.71 3.79 2.5 5.71 1.97-.08 3.85-.68 5.62-1.54-.02-3.05-1.01-5.92-2.51-8.54 3.4-1.53 8.05-3.49 7.87-7.93-6.48 1.27-11.04 6.43-13.48 12.3z"/></g></svg>