<?xml version="1.0" standalone="no"?>
<!DOCTYPE svg PUBLIC "-//W3C//DTD SVG 20010904//EN"
 "http://www.w3.org/TR/2001/REC-SVG-20010904/DTD/svg10.dtd">
<svg version="1.0" xmlns="http://www.w3.org/2000/svg"
 width="218.000000pt" height="300.000000pt" viewBox="0 0 218.000000 300.000000"
 preserveAspectRatio="xMidYMid meet">
<metadata>
Created by potrace 1.10, written by Peter Selinger 2001-2011
</metadata>
<g transform="translate(0.000000,300.000000) scale(0.100000,-0.100000)"
fill="#000000" stroke="none">
<path d="M1170 2989 c-14 -4 -42 -11 -63 -14 -40 -6 -96 -54 -166 -144 -19
-24 -48 -49 -65 -56 -32 -14 -51 -11 -41 6 4 5 1 9 -4 9 -6 0 -12 -4 -12 -10
-1 -5 -2 -13 -3 -17 -1 -5 -22 -29 -46 -55 -114 -119 -145 -177 -134 -246 3
-23 -1 -60 -11 -94 -15 -54 -15 -60 5 -139 26 -100 30 -108 91 -182 27 -32 49
-63 49 -68 0 -19 -31 -21 -50 -4 -25 23 -26 47 -2 38 13 -5 15 -3 5 7 -15 16
-43 6 -43 -15 0 -25 28 -73 49 -85 32 -17 66 -11 91 15 13 14 27 25 31 25 8 0
52 36 108 88 58 54 -21 2 -130 -85 -27 -22 -52 -33 -72 -33 -29 1 -30 2 -12
12 11 6 26 18 33 26 14 18 17 122 3 122 -14 0 -101 164 -116 218 -12 43 -13
44 -14 15 -1 -21 22 -78 65 -162 36 -72 64 -136 62 -142 -6 -19 -128 148 -128
177 0 3 6 4 14 1 10 -4 9 5 -6 30 -14 22 -22 53 -22 82 0 47 38 161 54 161 5
0 7 -8 4 -17 -3 -10 4 -6 16 10 12 15 58 46 101 67 88 45 98 47 78 23 -13 -15
-12 -15 9 -4 26 14 37 35 28 50 -4 6 -27 -2 -57 -19 -27 -17 -53 -30 -57 -30
-4 0 -31 -15 -60 -34 -57 -38 -60 -35 -37 40 12 43 12 47 -1 29 -8 -11 -17
-36 -20 -56 -4 -20 -15 -50 -26 -65 l-20 -29 7 60 c8 73 22 97 82 138 26 18
58 43 72 55 l26 24 -36 -21 c-46 -27 -57 -27 -33 0 20 23 85 59 105 59 7 0 27
11 46 26 18 14 33 22 33 18 0 -3 -16 -33 -36 -66 -39 -64 -80 -105 -147 -150
-25 -16 -35 -28 -25 -28 9 0 45 21 80 48 55 41 69 60 115 147 28 54 49 103 47
107 -10 16 75 87 118 99 24 6 62 18 86 27 36 13 49 13 85 2 44 -13 97 -46 97
-59 0 -5 -38 -12 -85 -16 -47 -4 -85 -11 -85 -16 0 -11 27 -11 115 1 48 7 71
7 73 0 2 -5 9 -10 16 -10 7 0 21 -7 32 -16 17 -14 17 -15 1 -10 -10 3 -16 2
-12 -3 3 -5 0 -11 -6 -13 -6 -2 1 -9 17 -16 25 -12 26 -12 13 4 -8 10 -9 15
-3 11 18 -11 64 -104 64 -130 0 -40 -24 -60 -76 -66 -43 -5 -49 -9 -52 -32 -3
-27 19 -52 57 -64 16 -5 21 -4 16 4 -4 8 4 7 26 -2 42 -17 52 -40 12 -27 -15
5 -45 12 -65 15 -23 4 -45 15 -57 31 -18 23 -19 29 -7 53 8 14 26 37 40 50 14
14 26 30 26 38 0 7 4 13 10 13 13 0 32 -38 25 -50 -3 -6 -1 -10 4 -10 6 0 11
11 11 25 0 35 -34 53 -135 72 -69 13 -97 23 -131 49 -40 31 -44 32 -44 13 0
-35 -20 -60 -63 -81 -23 -11 -53 -26 -67 -33 -41 -24 -38 5 5 42 42 36 44 56
2 23 -14 -11 -28 -20 -31 -20 -15 0 30 109 57 137 17 18 28 35 25 39 -9 8 -47
-35 -70 -81 -11 -21 -30 -47 -42 -56 -12 -9 -33 -40 -46 -69 -24 -51 -24 -52
-6 -102 l18 -51 -35 -34 c-27 -25 -45 -33 -74 -33 -28 -1 -47 -8 -70 -30 -18
-16 -33 -33 -33 -37 0 -5 -10 -38 -22 -76 l-22 -67 21 -28 c11 -15 33 -33 49
-41 16 -8 31 -17 34 -21 3 -4 19 -13 36 -22 44 -22 119 -1 155 42 l27 32 40
-69 c72 -122 76 -149 32 -193 -30 -30 -47 -24 -19 7 l24 27 -25 -17 c-57 -39
-63 -37 -21 7 25 25 42 49 38 52 -4 4 -22 -9 -39 -30 -24 -26 -48 -41 -83 -50
-79 -22 -122 -44 -128 -66 -6 -22 16 -50 37 -50 20 0 39 28 32 46 -6 16 -8 15
-20 -2 -8 -10 -18 -16 -22 -12 -4 4 -2 14 5 22 14 16 111 60 118 53 2 -3 -5
-8 -16 -12 -38 -12 -22 -22 22 -14 23 4 48 8 55 9 8 0 -27 -43 -77 -97 -106
-111 -191 -234 -263 -378 -28 -55 -59 -112 -70 -127 -11 -16 -17 -32 -14 -37
7 -11 -79 -223 -108 -267 -11 -17 -44 -48 -74 -69 -64 -44 -335 -206 -339
-202 -8 8 22 82 50 124 25 37 63 68 167 137 127 85 300 237 300 264 0 7 -37
-25 -82 -71 -51 -51 -131 -115 -208 -166 -69 -46 -140 -98 -159 -115 -36 -33
-81 -117 -81 -152 0 -11 -13 -33 -30 -49 -89 -86 -73 -239 37 -335 21 -19 49
-52 64 -74 35 -56 94 -106 125 -106 13 0 50 -14 81 -30 62 -33 94 -38 113 -15
10 13 18 11 54 -14 56 -38 121 -71 143 -71 10 0 65 -20 124 -45 129 -54 223
-70 364 -60 115 8 160 25 151 58 -5 22 -3 22 102 22 l107 0 130 65 c72 35 132
65 135 67 3 2 11 -10 17 -27 9 -23 17 -30 38 -30 33 0 73 21 105 55 14 15 57
44 95 66 161 88 168 142 40 276 -61 63 -62 66 -58 111 4 41 0 54 -35 107 -21
33 -70 94 -108 136 -62 69 -72 86 -102 175 -44 131 -162 435 -214 554 -45 102
-113 222 -160 282 l-29 38 -36 -70 -35 -70 -87 80 c-48 44 -92 80 -97 80 -5 0
33 -40 84 -88 108 -102 106 -94 71 -282 -24 -133 -65 -251 -107 -312 -32 -46
-112 -127 -112 -114 0 5 23 39 50 77 28 38 47 69 42 69 -4 0 -13 -5 -20 -12
-26 -26 -10 5 34 64 51 69 78 117 71 125 -3 2 -29 -33 -59 -79 -30 -46 -91
-128 -135 -184 -160 -200 -162 -205 -116 -275 l26 -40 -20 -21 c-18 -18 -121
-53 -130 -45 -1 2 14 27 34 55 20 29 34 55 31 57 -3 3 -24 -22 -47 -55 -23
-33 -47 -60 -53 -60 -6 0 -3 10 6 22 27 39 37 58 29 58 -4 0 -21 -18 -36 -40
-25 -35 -33 -40 -67 -40 l-39 0 138 138 c122 121 182 195 168 208 -2 2 -17
-15 -32 -38 -15 -24 -101 -115 -191 -203 -90 -88 -164 -167 -164 -175 0 -9 7
-26 16 -39 16 -23 15 -25 -53 -93 l-70 -70 -47 16 c-26 9 -59 16 -74 16 -80 1
-77 9 29 81 106 72 235 178 304 248 70 73 23 43 -76 -47 -53 -48 -150 -126
-215 -174 -154 -111 -181 -139 -168 -175 5 -16 26 -35 51 -49 l42 -22 -45 -42
c-40 -37 -49 -41 -87 -38 l-42 3 -3 70 c-6 134 12 168 161 300 80 72 167 169
167 187 0 2 -71 -65 -157 -149 -86 -84 -160 -153 -165 -153 -11 0 -38 55 -38
78 0 26 18 40 145 112 61 35 130 77 155 94 25 17 50 31 57 31 7 0 19 9 28 20
14 19 15 19 6 -6 -5 -15 -32 -72 -60 -128 -54 -106 -58 -116 -40 -105 6 3 40
68 75 142 62 131 69 140 172 247 101 103 180 201 170 211 -3 2 -34 -33 -71
-78 -67 -85 -204 -225 -194 -198 110 282 225 519 298 617 21 28 86 102 145
165 58 62 111 122 116 133 8 18 17 12 101 -68 83 -79 93 -86 104 -70 25 33 53
124 53 169 0 54 23 114 44 114 8 0 37 -13 63 -30 26 -16 52 -30 58 -30 22 0
75 67 154 194 45 72 81 134 81 138 0 5 -10 27 -21 50 -18 35 -20 47 -11 76 13
40 7 58 -13 42 -14 -12 -9 -86 8 -107 6 -9 6 -13 -1 -13 -6 0 -20 12 -31 26
-12 15 -21 22 -21 16 0 -10 46 -71 63 -83 5 -4 1 -22 -9 -40 l-17 -34 -12 30
c-22 53 -45 141 -44 171 0 26 1 27 10 9 7 -16 8 -14 4 10 -5 28 -4 29 10 11
15 -20 15 -20 15 0 0 10 -4 25 -9 33 -12 19 -41 -24 -42 -64 -1 -24 -3 -21
-11 18 -6 26 -14 47 -19 47 -17 0 -9 -35 21 -98 45 -96 42 -112 -36 -191 -36
-36 -63 -57 -59 -46 25 65 10 126 -34 140 -19 6 -19 7 5 42 38 57 18 94 -63
115 -79 19 -80 58 -3 58 83 0 100 52 51 156 -33 69 -128 168 -189 196 -39 19
-101 22 -142 7z m101 -233 c24 -8 65 -17 92 -21 26 -3 47 -10 47 -15 0 -4 -18
-32 -40 -61 -22 -30 -40 -61 -40 -71 0 -20 -51 -61 -103 -83 -46 -19 -66 -10
-92 39 -17 32 -35 47 -35 30 0 -17 45 -76 72 -95 22 -16 27 -24 17 -30 -10 -6
-11 -11 -2 -20 8 -8 13 -3 18 20 12 55 83 84 124 52 l24 -18 -29 -51 c-15 -28
-32 -48 -37 -45 -11 7 -38 -17 -31 -28 7 -13 -21 -11 -90 6 -66 16 -100 6
-130 -37 -9 -12 -19 -19 -22 -15 -4 4 -1 14 7 23 11 13 5 12 -28 -5 -78 -39
-98 -23 -57 47 15 26 28 49 30 51 1 1 13 -4 25 -12 11 -9 29 -13 38 -10 9 3 1
-8 -18 -26 -35 -31 -31 -44 5 -16 10 8 30 15 44 15 29 0 67 20 40 20 -9 0 -33
9 -55 20 -22 11 -45 20 -52 20 -17 0 11 58 32 66 19 8 80 -13 96 -32 9 -11 8
-18 -7 -35 -15 -17 -16 -22 -4 -29 15 -9 50 14 50 33 0 5 -18 30 -41 55 -31
36 -39 53 -37 77 2 21 -1 30 -12 30 -17 0 -52 63 -44 77 4 5 13 0 21 -11 8
-12 12 -25 8 -30 -3 -5 8 -16 25 -24 28 -15 29 -14 20 3 -5 10 -7 26 -4 35 5
11 0 18 -15 22 -11 3 -21 9 -21 14 0 15 33 24 38 11 2 -7 8 -12 13 -12 6 0 8
4 5 8 -3 5 11 23 29 41 19 18 35 42 35 54 l0 20 23 -21 c13 -12 43 -28 68 -36z
m-274 -2 c-4 -25 1 -55 14 -93 32 -87 32 -89 14 -117 -12 -19 -20 -23 -28 -15
-18 18 -28 13 -15 -8 12 -20 4 -34 -106 -203 -41 -63 -106 -87 -140 -52 -20
19 -20 46 -2 87 7 18 19 46 26 64 8 23 23 36 52 48 54 21 59 12 10 -19 -40
-25 -61 -46 -45 -46 14 0 141 100 168 132 15 17 24 38 21 47 -29 87 -29 94 -1
154 14 31 29 57 32 57 3 0 3 -16 0 -36z m437 -234 c36 0 76 -24 76 -46 0 -21
-15 -17 -33 9 -13 17 -18 19 -25 8 -11 -16 -42 -3 -84 37 -38 35 -35 50 3 18
19 -16 43 -26 63 -26z m-358 2 c-9 -8 -26 10 -26 26 1 15 2 15 15 -2 8 -11 13
-21 11 -24z m352 -53 c9 -1 23 -1 30 0 16 2 27 -28 14 -41 -6 -6 -16 -5 -28 6
-11 9 -23 17 -29 17 -5 1 -18 5 -27 10 -41 22 -23 -25 49 -128 40 -58 41 -59
20 -69 -12 -5 -23 -18 -25 -28 -4 -18 -2 -18 23 2 15 12 31 22 35 22 14 0 20
-32 9 -47 -7 -7 -9 -17 -5 -21 4 -4 12 1 17 10 12 21 81 88 92 88 4 0 5 -11 1
-25 -5 -19 -2 -25 9 -25 12 0 15 8 11 33 -4 26 1 40 27 70 33 40 48 37 49 -8
0 -20 -109 -192 -140 -220 -24 -22 -57 -10 -114 40 l-38 35 7 71 7 71 -38 39
c-21 21 -41 39 -45 39 -8 0 -34 -60 -34 -79 0 -8 -12 -15 -28 -17 -39 -4 -67
-14 -67 -24 0 -4 15 -3 34 2 43 14 66 -5 66 -54 0 -56 -20 -162 -36 -185 -16
-25 -18 -43 -5 -43 18 0 42 85 48 167 3 46 9 83 13 83 4 0 11 -19 15 -42 4
-24 10 -35 12 -25 7 26 -16 87 -33 87 -16 0 -19 36 -4 45 5 3 7 12 4 19 -3 7
2 19 11 26 13 11 20 9 41 -11 25 -23 26 -28 21 -99 -4 -41 -15 -102 -25 -135
-11 -33 -22 -89 -26 -124 -8 -68 -29 -121 -48 -121 -6 0 -45 33 -85 73 -51 51
-73 81 -73 98 0 14 -25 68 -55 121 -30 53 -55 102 -55 110 0 24 57 71 87 71
15 0 55 -7 87 -16 33 -9 60 -16 61 -14 1 1 26 38 54 81 l52 79 -21 22 c-35 38
-22 39 20 1 22 -20 48 -37 58 -37z m-8 -44 c7 -8 20 -15 28 -15 15 0 14 -2 -1
-17 -9 -9 -18 -15 -19 -12 -2 2 -14 16 -27 32 -19 21 -21 27 -9 27 9 0 21 -7
28 -15z m101 -35 c15 -8 19 -21 19 -58 0 -49 -13 -82 -27 -69 -4 4 -1 18 6 30
13 21 13 21 -6 5 -19 -17 -20 -17 -41 12 -28 37 -27 40 2 40 13 0 30 7 37 16
12 15 11 16 -9 10 -74 -21 -69 -21 -48 3 21 23 38 26 67 11z m-517 -86 c10
-25 8 -32 -25 -68 -35 -41 -84 -55 -129 -36 -58 24 -56 36 12 59 34 12 74 21
89 21 15 0 31 5 34 10 3 6 -2 10 -12 10 -15 0 -16 2 -3 10 21 13 27 12 34 -6z
m-96 -6 c-3 -7 -12 -14 -21 -16 -12 -2 -15 1 -11 12 7 19 38 22 32 4z m512
-132 c0 -3 -4 -8 -10 -11 -5 -3 -10 -1 -10 4 0 6 5 11 10 11 6 0 10 -2 10 -4z
m95 -446 c38 -75 175 -425 231 -587 28 -84 56 -158 61 -165 14 -18 55 -119 51
-124 -2 -2 -18 5 -35 15 -23 15 -54 64 -127 199 -53 99 -96 183 -96 187 0 13
-62 116 -67 112 -5 -5 105 -228 186 -376 28 -52 51 -95 51 -97 0 -10 -138 72
-158 93 l-22 24 30 37 c16 20 30 40 30 44 0 4 -25 49 -57 100 -103 169 -142
240 -148 269 -7 32 -25 49 -25 24 0 -21 68 -152 119 -230 25 -37 35 -62 29
-66 -7 -4 -3 -11 9 -17 10 -6 27 -26 38 -45 18 -34 18 -35 -3 -61 -23 -30 -26
-27 -37 29 -3 21 -13 52 -21 67 -11 22 -12 28 -2 28 7 0 -1 14 -19 30 -18 16
-28 30 -23 32 5 2 -2 22 -16 46 -14 24 -28 41 -31 38 -3 -3 4 -18 16 -34 26
-38 27 -51 1 -27 -28 25 -50 100 -152 500 -9 37 -7 47 22 105 l32 63 55 -84
c30 -46 65 -104 78 -129z m-77 -417 c12 -23 35 -57 51 -75 39 -46 47 -62 71
-158 26 -102 43 -122 144 -174 55 -28 87 -52 122 -94 26 -31 108 -118 181
-192 l132 -135 -60 3 c-91 6 -139 -23 -310 -183 -102 -96 -162 -145 -207 -167
-62 -31 -63 -31 -180 -25 -157 8 -153 6 -136 70 38 143 98 498 110 652 9 120
-2 106 -15 -20 -15 -139 -47 -322 -87 -508 -19 -87 -34 -174 -34 -192 0 -30 4
-35 33 -43 40 -10 40 -25 1 -33 -61 -13 -259 -9 -319 6 -90 24 -229 94 -331
168 -142 103 -255 174 -302 189 l-42 14 48 41 c98 83 163 123 183 113 10 -6
46 -10 82 -10 79 0 89 9 146 140 64 147 71 156 127 164 77 10 104 32 121 96 7
30 25 85 39 121 21 54 35 73 74 102 59 44 135 148 157 214 8 26 19 51 23 56
11 13 -68 -440 -100 -564 -17 -66 -55 -199 -86 -295 -30 -97 -53 -178 -51
-180 11 -12 103 271 156 482 32 125 91 461 97 544 5 84 33 270 42 285 3 5 27
-76 52 -180 26 -105 57 -209 68 -232z m-359 -64 c-24 -35 -49 -72 -58 -82 -8
-10 -16 -25 -17 -35 -2 -18 -45 -144 -52 -152 -5 -6 -25 28 -34 58 -5 18 2 29
38 59 24 20 41 39 39 41 -2 3 -11 -1 -20 -8 -30 -25 -14 3 33 59 27 31 61 73
77 94 44 59 40 37 -6 -34z m917 -506 c20 -42 24 -60 17 -76 -10 -21 -10 -21
-37 8 -27 29 -92 145 -81 145 3 0 17 -7 31 -16 13 -9 27 -15 30 -12 2 3 -14
17 -36 31 -38 26 -59 56 -75 107 -13 40 123 -127 151 -187z m-1226 110 c0 -2
-14 -32 -31 -66 -18 -34 -37 -77 -43 -96 l-12 -34 -22 37 c-22 37 -22 38 -3
64 10 15 31 38 45 51 14 14 26 29 26 35 0 6 -24 -13 -53 -42 -29 -29 -55 -52
-59 -52 -10 0 -19 50 -13 71 4 10 21 23 38 28 31 9 127 12 127 4z m1082 -15
c18 -14 58 -78 58 -92 0 -9 -67 64 -83 91 -10 16 4 17 25 1z m-1757 -108 c3
-16 16 -41 27 -56 19 -24 20 -31 9 -76 -6 -27 -11 -77 -11 -111 l-1 -62 -34
40 c-45 51 -79 139 -71 184 6 36 50 111 65 111 5 0 12 -13 16 -30z m571 -77
c15 -55 -38 -88 -122 -77 -30 3 -54 10 -54 14 0 4 30 35 66 70 l66 64 19 -25
c11 -13 22 -34 25 -46z m-253 -54 l39 -10 -58 -44 c-57 -42 -59 -43 -89 -28
-43 22 -65 43 -65 64 0 39 72 47 173 18z m1712 -133 c41 -18 46 -49 15 -89
-21 -27 -170 -107 -199 -107 -9 0 -40 -13 -68 -29 -65 -36 -78 -23 -27 25 32
31 41 35 73 29 48 -8 81 6 136 56 52 48 56 70 19 104 -26 24 -26 25 -5 25 12
0 37 -7 56 -14z m-66 -20 c13 -13 21 -32 19 -42 -4 -22 -62 -69 -111 -89 -34
-14 -38 -14 -43 0 -9 22 0 28 38 27 21 0 41 7 55 20 22 20 22 23 6 40 -15 17
-15 18 5 18 11 0 24 5 27 10 3 6 -4 10 -18 10 -27 0 -81 -37 -149 -103 -53
-52 -134 -113 -193 -147 -62 -35 167 189 245 239 73 48 88 50 119 17z m-89
-66 c-19 -16 -39 -29 -45 -29 -5 0 6 13 25 29 19 17 39 30 45 30 5 0 -6 -14
-25 -30z m-1745 -23 c7 -22 23 -49 34 -61 33 -35 25 -40 -15 -10 -41 32 -86
93 -78 106 14 22 46 2 59 -35z m45 25 c22 14 57 1 142 -54 l60 -39 -21 -23
c-20 -22 -21 -24 -4 -37 11 -9 14 -10 9 -1 -4 7 -1 12 8 12 26 0 18 -19 -10
-26 -50 -13 -168 64 -194 126 -7 16 -17 30 -22 30 -5 0 -6 5 -2 12 6 9 9 9 12
0 2 -8 8 -8 22 0z m1751 -6 c-13 -16 -51 -28 -51 -17 0 8 38 29 54 30 5 1 3
-5 -3 -13z m-1440 -167 c55 -40 97 -74 95 -77 -13 -13 -220 124 -210 139 3 5
7 9 10 9 3 0 50 -32 105 -71z m1365 32 c-22 -25 -103 -67 -111 -59 -13 12 7
30 59 54 63 28 74 29 52 5z m-646 -152 c0 -10 -16 -11 -47 -3 -36 10 -27 20
12 16 19 -2 35 -8 35 -13z"/>
<path d="M1190 2751 c0 -6 10 -11 23 -11 12 0 33 -7 45 -16 24 -16 31 -4 9 15
-21 17 -77 26 -77 12z"/>
<path d="M1168 2713 c-10 -2 -18 -8 -18 -12 0 -14 24 -31 43 -31 17 0 18 2 6
16 -12 15 -9 16 31 10 43 -6 44 -6 20 8 -25 15 -49 18 -82 9z"/>
<path d="M1345 2700 c3 -5 10 -10 16 -10 5 0 9 5 9 10 0 6 -7 10 -16 10 -8 0
-12 -4 -9 -10z"/>
<path d="M1314 2660 c-12 -5 -29 -19 -38 -32 -18 -25 -22 -73 -6 -63 6 3 10
17 10 31 0 15 6 24 15 24 8 0 15 6 15 14 0 8 10 16 23 18 12 2 18 6 12 9 -5 4
-20 3 -31 -1z"/>
<path d="M1160 2575 c0 -7 10 -26 23 -41 21 -24 25 -25 45 -13 12 8 22 16 22
19 0 3 -20 16 -45 28 -36 17 -45 19 -45 7z m66 -42 c-8 -8 -36 5 -36 17 0 7 6
7 21 0 11 -7 18 -14 15 -17z"/>
<path d="M1160 2380 c14 -4 32 -8 40 -9 13 -1 13 0 0 9 -8 5 -26 9 -40 9 l-25
-1 25 -8z"/>
<path d="M870 2433 c0 -12 5 -25 10 -28 13 -8 13 15 0 35 -8 12 -10 11 -10 -7z"/>
<path d="M760 2360 c0 -11 -4 -20 -9 -20 -6 0 -6 -12 0 -30 16 -45 29 -36 29
20 0 28 -4 50 -10 50 -5 0 -10 -9 -10 -20z"/>
<path d="M1345 2430 c-3 -5 -1 -10 4 -10 6 0 11 5 11 10 0 6 -2 10 -4 10 -3 0
-8 -4 -11 -10z"/>
<path d="M1340 2302 c0 -7 5 -12 10 -12 6 0 14 -10 19 -22 4 -12 11 -17 14
-11 4 5 -5 21 -18 33 -14 13 -25 18 -25 12z"/>
<path d="M1258 2273 c-9 -10 -23 -35 -32 -56 -23 -57 3 -42 32 17 25 52 25 67
0 39z"/>
<path d="M1287 2226 c-5 -15 -6 -31 -3 -34 8 -8 18 25 14 45 -3 13 -6 10 -11
-11z"/>
<path d="M1461 2208 c-15 -42 -6 -48 13 -9 18 35 19 41 7 41 -5 0 -14 -14 -20
-32z"/>
<path d="M1340 1790 c0 -6 14 -34 30 -63 17 -30 30 -61 30 -70 0 -9 5 -17 11
-17 18 0 1 50 -32 99 -17 24 -28 45 -26 47 8 8 72 -42 82 -64 10 -22 35 -31
35 -12 0 6 -4 10 -10 10 -5 0 -10 7 -10 15 0 8 -17 26 -37 40 -39 26 -73 33
-73 15z"/>
<path d="M1621 1228 c23 -43 129 -197 140 -204 21 -13 4 18 -56 101 -32 44
-62 90 -68 103 -6 12 -14 22 -19 22 -5 0 -3 -10 3 -22z"/>
<path d="M1625 810 c21 -128 15 -412 -11 -487 -5 -14 -4 -15 5 -7 45 42 53
446 10 514 -7 11 -8 5 -4 -20z"/>
<path d="M290 361 c0 -5 12 -14 28 -19 15 -6 43 -25 62 -41 29 -26 33 -32 20
-41 -19 -13 -40 -13 -40 0 0 6 7 10 16 10 8 0 12 5 9 10 -4 6 -10 8 -15 5 -5
-3 -22 8 -38 25 -29 28 -52 39 -52 23 0 -4 19 -27 42 -50 40 -41 69 -52 95
-35 14 9 21 29 11 31 -4 1 -18 12 -31 25 -29 29 -107 70 -107 57z"/>
<path d="M1216 2944 c-9 -8 -16 -17 -16 -20 0 -9 19 -3 32 10 8 8 23 16 34 19
14 3 12 5 -8 6 -15 0 -34 -6 -42 -15z"/>
<path d="M1085 2880 c-16 -17 -24 -30 -19 -30 13 0 59 48 52 55 -2 3 -17 -9
-33 -25z"/>
<path d="M1211 2845 c15 -8 46 -17 70 -20 42 -5 41 -5 -16 15 -70 23 -91 25
-54 5z"/>
<path d="M1283 2853 c9 -2 25 -2 35 0 9 3 1 5 -18 5 -19 0 -27 -2 -17 -5z"/>
<path d="M1120 2795 c-18 -19 -31 -38 -27 -41 6 -7 67 55 67 68 0 13 -4 10
-40 -27z"/>
<path d="M825 2664 c-50 -33 -85 -65 -85 -76 0 -8 29 13 108 79 37 30 25 29
-23 -3z"/>
<path d="M1690 2536 c0 -8 5 -18 10 -21 6 -3 10 1 10 9 0 8 -4 18 -10 21 -5 3
-10 -1 -10 -9z"/>
<path d="M705 2415 c-14 -69 -15 -80 -6 -65 12 19 25 90 17 90 -3 0 -8 -11
-11 -25z"/>
<path d="M681 2394 c0 -11 3 -14 6 -6 3 7 2 16 -1 19 -3 4 -6 -2 -5 -13z"/>
<path d="M1005 2159 c-4 -12 -25 -42 -47 -65 -22 -24 -36 -44 -30 -44 26 0
104 111 89 127 -3 2 -8 -5 -12 -18z"/>
<path d="M827 2148 c4 -13 8 -44 8 -71 0 -40 2 -45 13 -30 16 23 15 53 -4 91
-18 37 -29 43 -17 10z"/>
<path d="M1203 1803 c-24 -8 -43 -19 -43 -24 0 -6 -4 -8 -9 -4 -5 3 -26 -11
-46 -32 -20 -21 -31 -39 -25 -41 15 -5 70 18 70 30 0 5 -9 4 -21 -2 -11 -7
-23 -10 -25 -7 -2 2 34 23 81 45 107 52 116 70 18 35z"/>
<path d="M1195 1733 c-103 -79 -225 -209 -225 -238 0 -28 11 -32 29 -11 10 11
8 15 -6 18 -14 3 -3 19 52 73 77 77 206 187 213 181 2 -3 -24 -46 -58 -96 -34
-50 -60 -94 -57 -96 5 -5 104 132 126 173 30 58 3 56 -74 -4z"/>
</g>
</svg>
