<?xml version="1.0" encoding="UTF-8"?>
<svg width="528px" height="393px" viewBox="0 0 528 393" version="1.1" xmlns="http://www.w3.org/2000/svg" xmlns:xlink="http://www.w3.org/1999/xlink">
    <!-- Generator: Sketch 48.2 (47327) - http://www.bohemiancoding.com/sketch -->
    <title>Swxh04PazB</title>
    <desc>Created with Sketch.</desc>
    <defs></defs>
    <g id="Page-1" stroke="none" stroke-width="1" fill="none" fill-rule="evenodd">
        <g id="Swxh04PazB" transform="translate(-1.000000, 0.000000)" fill="#000000" fill-rule="nonzero">
            <g id="Group" transform="translate(264.894422, 196.500000) scale(-1, 1) rotate(-180.000000) translate(-264.894422, -196.500000) translate(1.055777, 0.000000)">
                <path d="M121.414343,387.506452 C120.14741,384.548387 119.302789,380.956452 119.302789,379.477419 C119.302789,377.364516 114.23506,376.308065 100.932271,375.674194 C86.5737052,375.040323 79.1832669,373.35 68.625498,368.701613 C49.4103586,360.25 21.5378486,341.656452 14.1474104,332.148387 C1.68924303,316.512903 0,311.019355 0,289.467742 C0,271.085484 0.633466135,268.33871 6.96812749,255.872581 C16.0478088,237.912903 23.6494024,228.616129 44.1314741,210.656452 C66.0916335,191.429032 70.7370518,185.090323 70.7370518,174.737097 C70.7370518,163.96129 67.9920319,159.312903 59.9681275,156.566129 C49.8326693,152.974194 42.2310757,157.41129 42.2310757,166.708065 C42.2310757,176.004839 48.3545817,180.441935 52.7888446,174.525806 C57.2231076,168.609677 59.3346614,172.201613 55.1115538,178.540323 C51.0996016,184.667742 47.7211155,185.090323 39.2749004,180.864516 C27.87251,174.737097 25.12749,158.679032 33.9960159,148.114516 C58.0677291,119.590323 113.812749,156.98871 115.924303,203.26129 C116.557769,216.15 116.557769,216.15 124.792829,219.319355 C129.227092,221.009677 135.772908,224.390323 138.940239,226.714516 C142.318725,228.827419 145.2749,230.517742 145.697211,230.095161 C147.808765,227.770968 137.039841,204.317742 128.171315,191.640323 C122.681275,183.822581 112.756972,169.666129 106.211155,159.946774 C99.4541833,150.43871 92.063745,137.55 89.7410359,131.422581 C84.6733068,118.11129 84.250996,99.9403226 88.8964143,89.1645161 C98.3984064,65.9225806 123.948207,56.6258065 139.151394,70.7822581 C145.908367,76.9096774 146.330677,87.0516129 140.418327,92.9677419 C136.195219,97.1935484 125.63745,98.883871 125.63745,95.0806452 C125.63745,94.0241935 126.904382,93.6016129 128.38247,94.2354839 C132.394422,95.7145161 136.61753,90.0096774 135.772908,84.3048387 C135.350598,81.7693548 133.027888,78.3887097 130.494024,76.6983871 C126.482072,73.9516129 125.426295,74.1629032 121.414343,78.1774194 C113.179283,86.4177419 119.7251,99.9403226 137.462151,111.35 C143.163347,114.941935 151.398406,121.069355 155.832669,124.66129 C164.49004,132.056452 165.334661,131.21129 160.478088,119.801613 C156.466135,110.082258 156.466135,94.4467742 160.266932,87.0516129 C163.223108,81.3467742 162.589641,72.683871 156.677291,43.7370968 C156.466135,42.0467742 161.111554,40.9903226 173.14741,40.5677419 C184.972112,40.1451613 191.095618,38.8774194 193.629482,36.5532258 C197.219124,33.383871 197.641434,33.383871 201.231076,36.5532258 C203.342629,38.666129 207.143426,40.1451613 209.677291,40.1451613 C213.689243,40.1451613 214.322709,41.4129032 214.322709,48.1741935 C214.322709,52.4 216.223108,61.0629032 218.545817,67.1903226 C224.669323,83.2483871 224.247012,90.0096774 216.856574,92.5451613 C211.577689,94.2354839 210.310757,96.5596774 206.50996,110.927419 L202.075697,127.408065 L207.776892,136.282258 C212.844622,144.733871 214.111554,145.367742 223.824701,146.212903 C233.537849,147.058065 234.804781,146.635484 240.083665,140.719355 C243.250996,137.127419 248.52988,129.520968 251.697211,123.604839 C256.76494,114.308065 257.609562,110.927419 257.398406,95.0806452 C257.398406,79.8677419 253.808765,60.6403226 248.952191,47.5403226 C247.896414,45.0048387 249.585657,44.3709677 257.398406,44.3709677 C265,44.3709677 266.689243,43.7370968 265.844622,41.2016129 C264.788845,38.4548387 268.589641,38.0322581 292.450199,38.0322581 L320.533865,38.0322581 L319.266932,60.8516129 C317.788845,87.0516129 310.398406,118.322581 300.685259,139.662903 C296.884462,147.691935 293.294821,154.241935 292.661355,154.241935 C291.816733,154.241935 289.916335,152.974194 288.438247,151.706452 C286.749004,150.227419 285.904382,150.016129 286.537849,151.072581 C286.960159,152.340323 289.071713,156.98871 291.183267,161.425806 C293.294821,166.074194 295.406375,176.63871 296.039841,185.301613 C297.306773,200.514516 297.306773,200.514516 304.697211,203.05 C318.422311,207.487097 343.760956,200.514516 356.641434,188.470968 C363.820717,181.709677 372.689243,163.96129 372.689243,156.143548 C372.689243,143.88871 365.932271,129.309677 349.462151,106.912903 C331.302789,82.1919355 328.346614,75.2193548 328.346614,56.2032258 C328.346614,45.216129 328.98008,43.3145161 335.314741,36.9758065 C344.183267,28.1016129 362.553785,22.3967742 381.135458,22.3967742 C389.159363,22.6080645 408.163347,25.7774194 426.533865,30.2145161 C444.059761,34.2290323 463.486056,38.2435484 469.820717,38.8774194 C500.227092,42.4693548 519.653386,28.5241935 504.661355,13.733871 C500.649402,9.50806452 497.482072,8.4516129 489.247012,8.4516129 C477.844622,8.4516129 472.988048,11.8322581 475.521912,17.9596774 C476.577689,20.9177419 476.155378,21.3403226 473.832669,20.0725806 C472.143426,19.016129 471.50996,19.2274194 472.565737,20.283871 C473.621514,21.3403226 475.521912,22.1854839 476.788845,22.3967742 C478.266932,22.3967742 481.645418,22.8193548 484.601594,23.0306452 L489.880478,23.4532258 L485.023904,25.7774194 C481.223108,27.6790323 479.111554,27.4677419 474.466135,23.8758065 C461.163347,13.9451613 468.342629,1.9016129 488.613546,0.422580645 C508.039841,-1.05645161 522.820717,5.28225806 527.043825,16.4806452 C529.577689,23.2419355 523.243028,37.3983871 514.163347,45.0048387 C498.326693,58.316129 482.278884,60.4290323 436.247012,55.1467742 C413.653386,52.4 409.641434,52.4 404.784861,55.1467742 C401.828685,56.6258065 399.083665,59.1612903 398.661355,60.6403226 C398.239044,61.9080645 406.262948,69.9370968 416.820717,78.1774194 C450.816733,105.01129 461.374502,121.914516 463.063745,151.917742 C467.920319,242.13871 378.179283,283.551613 300.474104,226.925806 L290.760956,219.741935 L284.003984,226.291935 C280.414343,229.883871 277.669323,233.053226 278.091633,233.264516 C278.513944,233.475806 285.270916,235.166129 293.083665,237.279032 C319.055777,243.829032 328.98008,251.012903 320.533865,257.351613 C316.944223,260.098387 295.195219,259.675806 284.63745,256.717742 C280.625498,255.45 282.525896,256.506452 306.175299,267.493548 C324.756972,276.156452 339.537849,289.256452 338.482072,296.229032 C337.848606,300.666129 336.792829,301.08871 326.446215,300.877419 C318.211155,300.454839 311.243028,298.553226 300.262948,293.059677 C291.816733,288.833871 284.848606,285.875806 284.426295,286.087097 C284.215139,286.509677 287.804781,289.256452 292.661355,292.637097 C304.908367,300.666129 326.868526,323.485484 331.091633,332.359677 C341.860558,354.756452 317.366534,350.530645 282.525896,323.908065 L265.211155,310.808065 L270.701195,321.16129 C276.613546,332.570968 275.98008,339.120968 269.223108,337.008065 C265.844622,335.951613 265,336.585484 265,339.966129 C265,347.995161 257.187251,345.248387 249.163347,334.472581 C245.151394,328.767742 241.772908,322.851613 241.772908,321.16129 C241.772908,319.470968 245.36255,323.062903 249.796813,329.190323 C258.031873,340.81129 260.776892,342.501613 260.776892,336.374194 C260.776892,334.26129 255.498008,327.077419 248.741036,320.316129 C242.195219,313.343548 237.549801,309.751613 238.605578,311.864516 C239.450199,313.977419 240.083665,317.780645 240.083665,319.893548 C239.87251,322.217742 242.195219,334.683871 245.151394,347.783871 C250.430279,372.927419 251.2749,383.703226 248.318725,388.562903 C242.828685,397.225806 228.47012,374.406452 220.868526,344.403226 L217.067729,328.767742 L216.011952,347.783871 C215.589641,358.137097 214.533865,367.856452 213.689243,369.124194 C208.621514,377.364516 198.486056,356.446774 196.163347,332.782258 L194.685259,318.837097 L190.462151,325.809677 C188.139442,329.612903 182.015936,338.064516 176.525896,344.614516 C171.247012,351.164516 163.856574,360.672581 160.266932,365.954839 C154.354582,374.195161 130.282869,393 125.426295,393 C124.370518,393 122.47012,390.464516 121.414343,387.506452 Z M140.629482,378.209677 C156.25498,366.58871 166.179283,351.798387 167.446215,337.641935 C168.079681,329.824194 170.40239,323.485484 174.836653,317.146774 C187.505976,298.341935 201.231076,259.253226 205.031873,230.729032 C206.298805,221.009677 207.143426,219.530645 210.310757,220.375806 C215.378486,221.643548 215.378486,220.798387 209.888446,213.191935 C204.398406,205.374194 207.776892,205.162903 213.689243,212.980645 C221.501992,223.545161 224.880478,232.208065 224.880478,241.716129 C224.880478,262.21129 234.38247,287.143548 240.083665,281.43871 C244.095618,277.424194 242.195219,256.929032 236.282869,241.927419 C235.227092,239.180645 238.183267,240.870968 244.517928,246.787097 C255.286853,256.506452 260.776892,257.985484 260.776892,251.435484 C260.776892,244.251613 255.286853,235.58871 244.940239,226.503226 L235.227092,218.051613 L243.884462,219.108065 C251.908367,220.164516 255.498008,217.629032 250.219124,214.459677 C249.163347,213.825806 248.10757,212.135484 248.10757,210.867742 C248.10757,209.38871 249.374502,209.6 251.2749,211.290323 C256.76494,215.727419 255.286853,221.854839 248.741036,221.854839 C245.151394,221.854839 243.884462,222.7 244.940239,223.756452 C247.051793,225.658065 263.944223,223.545161 266.478088,221.220968 C269.645418,218.051613 252.330677,205.585484 248.10757,208.120968 C247.051793,208.754839 242.61753,206.641935 238.183267,203.683871 C233.749004,200.514516 232.059761,198.612903 234.38247,199.458065 C237.760956,200.937097 256.976096,207.064516 257.820717,207.064516 C258.031873,207.064516 257.609562,204.529032 256.976096,201.570968 C256.131474,196.5 256.553785,196.077419 261.410359,196.922581 C265.633466,197.767742 267.322709,196.922581 268.167331,194.175806 C269.011952,191.851613 270.278884,190.16129 271.123506,190.16129 C272.179283,190.16129 272.390438,187.837097 271.968127,185.090323 C270.912351,179.385484 265,175.793548 265,180.653226 C265,182.132258 263.099602,184.033871 260.988048,184.879032 C258.876494,185.512903 256.342629,188.470968 255.709163,191.429032 C254.653386,195.232258 253.175299,196.5 251.063745,195.654839 C249.163347,195.020968 246.629482,194.387097 245.36255,194.387097 C243.884462,194.387097 244.095618,193.541935 245.996016,192.274194 C248.741036,190.583871 248.741036,189.95 246.207171,187.625806 C244.095618,185.512903 243.673307,185.512903 244.729084,187.625806 C247.051793,191.429032 240.717131,190.795161 237.338645,186.780645 C235.015936,183.822581 235.227092,182.766129 239.027888,179.808065 C241.350598,177.695161 243.884462,174.314516 244.306773,171.990323 C245.36255,166.496774 252.330677,165.440323 253.808765,170.722581 C255.286853,176.63871 264.366534,178.117742 265.844622,172.624194 C266.478088,169.877419 267.956175,168.820968 270.49004,169.877419 C272.601594,170.722581 274.924303,169.877419 276.613546,167.764516 C279.569721,163.53871 284.003984,165.440323 284.003984,170.933871 C284.003984,172.835484 285.270916,175.793548 286.749004,177.272581 C288.860558,179.385484 288.649402,179.596774 285.693227,178.540323 C283.370518,177.695161 281.89243,174.737097 281.89243,171.779032 C281.89243,169.032258 281.047809,167.341935 279.780876,167.975806 C276.613546,169.877419 277.247012,174.525806 280.836653,178.329032 C282.737052,180.019355 283.159363,181.920968 282.103586,182.766129 C280.836653,183.4 280.414343,185.301613 281.258964,187.203226 C281.89243,189.104839 281.258964,190.16129 279.569721,189.73871 C275.135458,188.893548 277.247012,200.303226 282.103586,205.162903 C285.482072,208.543548 285.904382,210.022581 283.792829,212.558065 C282.525896,214.248387 280.625498,215.516129 279.569721,215.516129 C277.247012,215.516129 278.091633,210.656452 280.625498,208.966129 C281.681275,208.120968 280.625498,206.430645 278.302789,205.162903 C275.135458,203.683871 274.290837,201.570968 274.924303,197.556452 C276.191235,191.851613 272.601594,190.16129 270.49004,195.654839 C269.223108,199.035484 272.390438,207.064516 275.346614,207.064516 C276.191235,207.064516 277.035857,208.543548 277.035857,210.233871 C277.035857,211.924194 275.768924,213.403226 274.079681,213.403226 C272.601594,213.403226 271.334661,211.712903 271.334661,209.81129 C271.334661,205.585484 265.422311,198.612903 261.410359,198.612903 C258.454183,198.612903 258.031873,200.725806 259.932271,205.796774 C260.565737,207.487097 262.466135,208.332258 264.155378,207.698387 C266.055777,207.064516 267.111554,207.698387 266.689243,209.38871 C266.266932,210.867742 268.167331,213.191935 270.912351,214.459677 C273.446215,215.516129 275.557769,217.417742 275.557769,218.474194 C275.557769,219.530645 274.924303,219.953226 274.290837,219.108065 C273.446215,218.474194 271.334661,219.741935 269.434263,221.854839 C267.322709,224.390323 262.888446,226.080645 258.243028,226.503226 L250.219124,226.925806 L255.498008,232.419355 C262.677291,240.025806 266.055777,249.956452 262.888446,255.45 C259.932271,261.366129 256.131474,260.943548 247.896414,254.182258 C242.195219,249.322581 241.350598,248.9 242.828685,252.491935 C245.996016,259.675806 246.629482,278.691935 243.884462,282.072581 C236.916335,290.524194 228.89243,282.072581 223.613546,260.943548 L221.079681,250.379032 L220.868526,262 C220.657371,271.930645 221.924303,275.733871 228.681275,287.143548 C240.505976,307.427419 266.689243,334.895161 270.701195,331.091935 C271.756972,329.824194 262.043825,309.962903 256.342629,301.722581 C250.007968,293.059677 251.486056,293.059677 261.410359,302.356452 C273.023904,313.132258 301.741036,332.570968 314.410359,338.275806 C327.290837,343.980645 330.669323,341.445161 324.334661,331.091935 C319.689243,323.696774 285.059761,289.256452 273.446215,280.593548 C263.521912,273.198387 266.055777,272.353226 278.302789,278.903226 C292.661355,286.932258 327.924303,298.553226 332.14741,296.862903 C338.482072,294.53871 322.434263,281.86129 294.350598,267.070968 C279.358566,259.041935 267.533865,252.280645 267.956175,252.069355 C268.378486,251.646774 274.713147,252.280645 282.103586,253.548387 C298.784861,256.083871 317.155378,256.295161 318.633466,253.759677 C320.322709,251.012903 307.231076,245.308065 286.115538,239.603226 C275.98008,237.067742 264.366534,233.264516 260.565737,231.574194 L253.386454,228.404839 L262.25498,229.672581 C273.868526,231.151613 280.836653,226.714516 286.537849,214.037097 C292.450199,200.725806 291.183267,170.51129 284.426295,156.566129 C281.89243,151.283871 279.780876,146.846774 279.780876,146.424194 C279.780876,146.212903 282.525896,146.424194 285.693227,147.058065 C291.394422,148.114516 292.027888,147.480645 297.517928,135.437097 C305.752988,117.054839 313.354582,85.3612903 314.832669,62.1193548 L316.310757,42.2580645 L293.717131,42.2580645 C281.47012,42.2580645 271.334661,42.6806452 271.334661,43.1032258 C271.334661,43.5258065 272.812749,50.0758065 274.713147,57.4709677 C277.247012,66.9790323 277.880478,76.0645161 277.247012,89.1645161 C275.98008,110.716129 269.223108,127.196774 252.541833,149.804839 C246.840637,157.41129 240.294821,167.975806 237.760956,172.835484 C235.015936,177.906452 232.482072,181.498387 231.848606,180.864516 C231.003984,180.230645 233.537849,173.891935 237.12749,166.919355 C240.717131,159.946774 242.828685,153.819355 241.772908,153.185484 C240.717131,152.551613 234.171315,151.495161 227.203187,150.86129 L214.322709,149.382258 L214.322709,156.143548 C214.322709,164.806452 211.155378,164.595161 210.944223,155.720968 C210.733068,151.917742 206.50996,141.564516 200.59761,131.422581 C192.784861,117.9 190.884462,112.829032 191.940239,108.603226 C194.051793,100.785484 204.398406,91.066129 212.211155,89.3758065 C218.756972,88.1080645 218.968127,87.8967742 217.701195,79.6564516 C215.589641,66.5564516 199.752988,36.7645161 196.796813,40.3564516 C184.549801,54.9354839 175.047809,68.0354839 168.924303,79.233871 C158.155378,98.25 158.788845,109.448387 172.513944,136.282258 C183.071713,157.2 186.661355,169.032258 182.438247,169.032258 C180.960159,169.032258 180.326693,168.398387 181.171315,167.764516 C182.649402,166.074194 178.426295,154.241935 176.314741,154.241935 C175.258964,154.241935 171.458167,156.777419 167.657371,159.946774 C157.310757,168.820968 153.087649,180.019355 153.087649,199.669355 C153.087649,208.966129 152.031873,220.164516 150.76494,224.601613 C148.864542,231.362903 149.286853,233.264516 152.876494,238.124194 C159.844622,246.787097 157.944223,248.266129 150.553785,240.237097 C142.318725,231.574194 120.569721,220.164516 107.689243,217.840323 C98.187251,216.15 98.187251,216.15 98.187251,222.066129 C98.187251,230.517742 94.3864542,231.785484 93.5418327,223.545161 C92.9083665,217.206452 92.2749004,216.572581 86.5737052,217.417742 C79.1832669,218.262903 67.9920319,223.545161 69.0478088,225.658065 C77.9163347,242.13871 77.7051793,248.477419 68.625498,256.717742 C59.3346614,265.169355 55.1115538,276.579032 55.1115538,293.693548 C55.1115538,312.075806 59.123506,321.795161 72.2151394,334.26129 C81.0836653,342.712903 98.8207171,351.798387 111.701195,354.122581 C118.880478,355.390323 120.358566,354.967742 123.948207,350.530645 L127.749004,345.459677 L125.63745,351.375806 C123.314741,358.137097 122.681275,383.069355 125.003984,385.182258 C127.326693,387.717742 129.015936,386.872581 140.629482,378.209677 Z M240.717131,346.727419 C239.027888,335.529032 237.12749,322.006452 236.705179,316.724194 C236.282869,309.962903 233.749004,303.835484 229.314741,297.074194 C216.223108,278.058065 214.322709,269.183871 218.968127,247.209677 C221.713147,233.687097 220.023904,223.967742 215.167331,223.967742 C212.211155,223.967742 211.788845,225.658065 212.844622,234.109677 C214.533865,248.9 210.733068,277.424194 204.609562,295.595161 C199.964143,309.117742 199.330677,314.18871 200.175299,327.5 C201.442231,344.191935 205.454183,359.404839 209.043825,359.827419 C212,360.46129 214.74502,333.627419 213.478088,315.879032 C212.211155,298.764516 213.900398,301.722581 220.446215,327.922581 C225.936255,350.319355 231.63745,366.166129 237.972112,376.096774 L242.828685,383.491935 L243.462151,375.251613 C243.884462,370.814516 242.61753,357.925806 240.717131,346.727419 Z M119.302789,366.166129 C119.302789,360.672581 118.247012,360.03871 105.366534,356.869355 C95.2310757,354.545161 91.2191235,354.333871 90.1633466,356.024194 C89.3187251,357.503226 85.940239,360.25 82.561753,362.574194 L76.2270916,366.58871 L84.6733068,369.124194 C89.1075697,370.391935 98.8207171,371.659677 106.211155,371.659677 C119.091633,371.870968 119.302789,371.870968 119.302789,366.166129 Z M82.7729084,358.770968 C86.5737052,356.024194 89.7410359,353.48871 89.7410359,352.854839 C89.7410359,352.009677 86.5737052,350.530645 82.561753,349.051613 C78.7609562,347.572581 71.1593625,341.867742 66.0916335,336.374194 C58.7011952,328.556452 55.5338645,326.443548 52.5776892,327.71129 C46.4541833,330.035484 24.4940239,329.824194 19.8486056,327.5 C17.314741,326.020968 15.8366534,326.020968 15.8366534,327.28871 C15.8366534,332.993548 62.7131474,363.419355 71.5816733,363.419355 C73.9043825,363.419355 78.9721116,361.306452 82.7729084,358.770968 Z M181.38247,322.217742 L182.860558,313.766129 L177.581673,320.104839 C173.780876,324.541935 172.302789,328.979032 172.302789,334.895161 L172.091633,343.346774 L176.103586,337.008065 C178.215139,333.627419 180.749004,326.866129 181.38247,322.217742 Z M46.4541833,325.387097 C47.0876494,324.330645 46.0318725,323.274194 43.9203187,323.274194 C37.374502,323.062903 23.0159363,315.667742 14.1474104,307.63871 C9.71314741,303.412903 5.27888446,300.032258 4.64541833,300.032258 C1.68924303,300.032258 10.3466135,319.470968 14.3585657,321.583871 C24.9163347,327.077419 43.9203187,329.401613 46.4541833,325.387097 Z M186.87251,316.935484 C186.87251,312.287097 186.027888,308.483871 185.183267,308.483871 C184.338645,308.483871 183.494024,312.287097 183.705179,316.935484 C183.705179,321.583871 184.338645,325.387097 185.394422,325.387097 C186.239044,325.387097 186.87251,321.583871 186.87251,316.935484 Z M52.5776892,315.879032 C51.0996016,311.864516 49.6215139,304.258065 49.6215139,298.975806 C49.6215139,289.679032 49.4103586,289.467742 43.2868526,289.467742 C26.8167331,289.467742 21.3266932,269.606452 31.8844622,247.209677 C38.8525896,232.208065 51.5219124,219.108065 68.625498,209.81129 C87.6294821,199.246774 95.4422311,193.119355 99.2430279,185.935484 C103.888446,177.06129 103.25498,175.370968 93.752988,164.806452 C89.1075697,159.524194 85.7290837,156.98871 86.3625498,159.312903 C88.4741036,165.440323 83.6175299,179.808065 75.8047809,191.429032 C71.7928287,197.345161 57.2231076,212.558065 43.2868526,225.024194 C15.8366534,249.533871 6.96812749,262.845161 4.22310757,283.129032 C2.9561753,292.637097 3.16733068,293.059677 12.247012,301.51129 C22.5936255,311.019355 31.4621514,316.301613 44.3426295,320.316129 C56.1673307,324.119355 56.1673307,324.119355 52.5776892,315.879032 Z M201.01992,286.087097 C201.653386,280.804839 201.231076,276.790323 199.752988,275.945161 C198.486056,275.1 197.430279,275.733871 197.430279,277.635484 C197.430279,279.537097 195.10757,286.298387 192.151394,292.637097 C188.561753,301.08871 187.505976,306.370968 188.350598,311.230645 L189.828685,317.991935 L194.896414,306.370968 C197.641434,300.032258 200.59761,290.735484 201.01992,286.087097 Z M51.310757,277.846774 C52.5776892,272.564516 57.0119522,264.746774 60.812749,260.520968 C72.8486056,247.209677 73.9043825,243.829032 68.8366534,235.377419 C66.3027888,231.362903 64.4023904,226.503226 64.4023904,224.812903 C64.4023904,219.319355 80.87251,213.403226 96.7091633,213.403226 L110.856574,213.403226 L110.645418,204.529032 C110.645418,199.458065 109.378486,192.062903 107.689243,188.048387 C105.366534,181.498387 104.733068,181.075806 103.466135,184.879032 C100.50996,192.485484 93.1195219,198.824194 73.9043825,210.233871 C63.5577689,216.572581 51.310757,225.235484 47.0876494,229.672581 C30.8286853,246.364516 24.2828685,274.88871 34.6294821,283.340323 C43.2868526,290.312903 48.3545817,288.622581 51.310757,277.846774 Z M206.50996,262.633871 C205.876494,261.154839 204.609562,259.887097 203.76494,259.887097 C201.01992,259.887097 200.175299,269.395161 202.286853,274.88871 C204.398406,279.748387 204.398406,279.748387 205.876494,272.775806 C206.932271,268.76129 207.143426,264.324194 206.50996,262.633871 Z M209.888446,241.504839 L209.677291,225.024194 L207.143426,239.814516 C204.609562,255.027419 204.609562,257.774194 208.199203,257.774194 C209.25498,257.774194 209.888446,250.379032 209.888446,241.504839 Z M393.38247,242.983871 C418.298805,237.067742 436.247012,222.277419 447.860558,197.979032 C456.517928,179.385484 459.896414,163.75 456.940239,153.819355 C453.984064,142.409677 440.047809,122.548387 427.378486,110.927419 C420.832669,105.222581 406.685259,95.7145161 395.705179,90.0096774 C369.733068,76.2758065 363.187251,71.2048387 359.175299,61.0629032 C354.952191,50.7096774 354.952191,45.0048387 358.964143,37.3983871 C361.920319,31.6935484 361.920319,31.4822581 357.2749,32.75 C350.729084,34.6516129 345.239044,41.8354839 345.239044,48.3854839 C345.239044,57.4709677 352.418327,66.3451613 373.111554,82.8258065 C410.063745,112.406452 419.988048,127.408065 420.199203,153.185484 C420.199203,182.977419 400.772908,206.008065 365.932271,217.840323 C347.984064,223.756452 317.155378,222.91129 303.641434,215.93871 C293.294821,210.445161 292.450199,210.445161 292.450199,214.037097 C292.450199,216.572581 309.976096,228.616129 323.49004,235.377419 C341.015936,244.251613 372.900398,247.632258 393.38247,242.983871 Z M77.2828685,182.766129 C89.3187251,158.467742 82.9840637,145.790323 58.2788845,144.1 C46.4541833,143.254839 45.187251,143.677419 39.063745,149.593548 C31.0398406,157.622581 30.6175299,166.496774 38.0079681,174.737097 L43.2868526,180.653226 L40.1195219,174.314516 C35.8964143,166.074194 36.1075697,164.383871 41.3864542,157.622581 C44.7649402,153.396774 47.5099602,152.129032 54.0557769,152.129032 C72.0039841,152.129032 81.0836653,172.412903 70.7370518,189.316129 C68.2031873,193.119355 57.8565737,203.895161 47.2988048,213.614516 C36.9521912,223.122581 27.2390438,232.841935 25.9721116,235.377419 C24.7051793,237.912903 34.2071713,229.883871 47.0876494,217.840323 C65.6693227,200.514516 72.2151394,193.119355 77.2828685,182.766129 Z M353.685259,217.629032 C401.61753,208.543548 429.278884,166.708065 411.964143,129.732258 C405.418327,115.575806 396.972112,106.279032 372.689243,86.6290323 C361.709163,77.7548387 350.940239,68.4580645 348.828685,66.133871 C343.549801,60.0064516 340.804781,49.2306452 343.12749,43.1032258 C345.661355,36.5532258 342.282869,36.3419355 338.059761,42.8919355 C328.135458,57.8935484 332.14741,73.1064516 353.685259,103.532258 C377.968127,137.76129 381.98008,153.819355 371.633466,174.737097 C364.031873,189.95 350.306773,201.782258 335.525896,206.219355 C323.912351,209.6 306.386454,209.6 298.36255,206.008065 C290.549801,202.83871 294.984064,208.754839 302.796813,212.346774 C319.266932,219.741935 334.47012,221.220968 353.685259,217.629032 Z M148.01992,180.441935 C146.330677,173.891935 129.438247,155.932258 116.557769,146.635484 C110.434263,142.198387 102.832669,136.282258 99.4541833,133.324194 L93.3306773,127.830645 L99.876494,139.874194 C103.466135,146.424194 114.023904,162.270968 123.103586,174.948387 C132.394422,187.625806 141.685259,202.416129 143.796813,207.909677 L147.808765,217.629032 L148.442231,201.148387 C148.864542,192.274194 148.653386,182.766129 148.01992,180.441935 Z M259.087649,183.18871 C263.733068,181.920968 264.155378,177.483871 259.50996,177.483871 C254.653386,177.483871 250.219124,183.822581 250.430279,190.16129 L250.641434,195.443548 L252.964143,189.73871 C254.231076,186.780645 256.976096,183.61129 259.087649,183.18871 Z M277.669323,181.709677 C277.669323,176.85 271.756972,170.722581 268.800797,172.412903 C267.322709,173.469355 267.74502,174.737097 269.856574,176.427419 C271.968127,177.906452 273.446215,181.075806 273.446215,183.61129 C273.446215,186.146774 274.290837,187.625806 275.557769,186.991935 C276.824701,186.358065 277.669323,183.822581 277.669323,181.709677 Z M247.685259,182.554839 C252.752988,179.174194 254.442231,167.975806 249.796813,169.666129 C248.318725,170.08871 247.051793,172.624194 247.262948,175.159677 C247.262948,178.117742 246.207171,179.596774 243.673307,179.596774 C239.450199,179.596774 236.916335,182.554839 239.027888,184.667742 C240.928287,186.569355 242.406375,186.358065 247.685259,182.554839 Z M155.832669,168.820968 C158.577689,164.806452 161.322709,157.622581 161.956175,152.974194 C163.011952,145.156452 162.589641,144.1 156.466135,139.874194 C150.342629,135.648387 140.207171,132.690323 123.314741,129.943548 C113.812749,128.464516 99.4541833,118.322581 93.9641434,109.237097 L89.7410359,102.475806 L89.7410359,108.814516 C89.7410359,118.956452 96.7091633,127.619355 117.613546,143.466129 C128.804781,151.706452 139.996016,162.270968 143.585657,167.553226 C147.175299,172.835484 150.131474,176.85 150.342629,176.63871 C150.553785,176.427419 153.087649,173.046774 155.832669,168.820968 Z M172.513944,144.522581 C170.824701,140.508065 169.135458,137.55 168.924303,137.972581 C168.713147,138.183871 167.868526,142.409677 167.023904,147.269355 C165.756972,156.143548 165.756972,156.354839 170.824701,154.030645 C175.89243,151.706452 175.89243,151.495161 172.513944,144.522581 Z M262.677291,125.929032 C271.756972,107.124194 274.713147,88.3193548 271.756972,68.4580645 C270.278884,59.583871 268.589641,51.5548387 267.956175,50.4983871 C267.322709,49.4419355 263.944223,48.5967742 260.354582,48.5967742 C255.075697,48.5967742 254.231076,49.2306452 255.498008,52.4 C259.298805,61.9080645 263.099602,90.6435484 261.832669,101.419355 C260.354582,114.308065 253.386454,131.422581 244.940239,142.409677 C240.928287,147.691935 240.294821,149.804839 242.195219,150.65 C245.996016,152.129032 255.075697,141.141935 262.677291,125.929032 Z M456.306773,134.803226 C450.183267,113.674194 442.370518,104.58871 401.406375,71.2048387 C381.98008,55.3580645 392.115538,47.9629032 430.756972,50.0758065 C449.760956,51.1322581 456.306773,50.4983871 466.653386,47.5403226 L479.322709,43.5258065 L464.330677,42.0467742 C456.306773,40.9903226 440.681275,38.4548387 430.123506,35.9193548 C402.673307,29.7919355 384.936255,27.6790323 374.800797,28.9467742 C363.820717,30.4258065 358.964143,38.2435484 360.653386,52.4 C362.131474,65.0774194 370.788845,73.7403226 396.549801,86.8403226 C421.25498,99.5177419 443.003984,118.956452 452.083665,136.282258 C455.462151,142.409677 458.418327,147.269355 458.840637,146.846774 C459.262948,146.424194 458.207171,141.141935 456.306773,134.803226 Z M161.111554,133.746774 C159.633466,131.845161 150.553785,125.295161 141.262948,119.167742 C131.338645,112.829032 122.258964,105.01129 119.513944,100.785484 C114.23506,92.1225806 113.812749,80.9241935 118.669323,75.6419355 C126.482072,66.9790323 139.573705,74.3741935 137.884462,86.8403226 C136.828685,92.9677419 137.039841,93.1790323 139.784861,89.7983871 C141.262948,87.4741935 142.52988,84.3048387 142.52988,82.4032258 C142.52988,78.1774194 134.717131,70.7822581 128.38247,68.8806452 C120.569721,66.3451613 107.478088,71.416129 100.50996,79.233871 C92.063745,88.9532258 90.374502,95.9258065 94.5976096,104.8 C98.187251,112.195161 112.756972,124.027419 120.14741,125.717742 C122.681275,126.140323 130.071713,127.619355 136.61753,128.887097 C143.163347,130.154839 151.820717,133.324194 155.621514,136.070968 C162.800797,140.930645 166.179283,139.662903 161.111554,133.746774 Z M203.553785,109.448387 C206.50996,96.7709677 206.50996,96.1370968 202.498008,99.3064516 C197.007968,103.954839 194.896414,109.870968 196.374502,116.632258 C198.2749,124.45 200.386454,122.337097 203.553785,109.448387 Z M177.792829,57.8935484 L186.450199,44.3709677 L174.836653,44.3709677 L163.011952,44.3709677 L164.49004,54.0903226 C165.123506,59.583871 165.756972,65.7112903 165.756972,67.8241935 C165.756972,74.5854839 168.501992,72.2612903 177.792829,57.8935484 Z M485.23506,51.9774194 C489.035857,50.2870968 494.314741,46.9064516 497.270916,44.5822581 L502.549801,40.1451613 L493.047809,41.4129032 C487.768924,42.2580645 481.434263,44.3709677 478.900398,46.0612903 C476.366534,47.5403226 469.609562,50.2870968 464.119522,51.766129 L453.984064,54.5129032 L466.231076,54.7241935 C472.988048,54.9354839 481.434263,53.6677419 485.23506,51.9774194 Z M210.521912,46.0612903 C209.043825,44.5822581 207.988048,44.3709677 207.988048,45.6387097 C207.988048,48.5967742 210.521912,51.1322581 212,49.6532258 C212.422311,49.0193548 211.788845,47.3290323 210.521912,46.0612903 Z M506.984064,44.5822581 C517.330677,37.1870968 522.820717,29.1580645 523.031873,21.1290323 C523.243028,12.466129 519.653386,8.87419355 506.139442,5.07096774 C488.191235,-0.211290323 469.609562,4.6483871 469.820717,14.5790323 C470.031873,16.6919355 471.087649,15.8467742 472.988048,12.466129 C478.266932,2.53548387 502.338645,2.74677419 510.573705,12.8887097 C517.752988,21.7629032 513.318725,34.0177419 498.326693,46.9064516 C491.358566,52.8225806 498.115538,51.1322581 506.984064,44.5822581 Z" id="Shape"></path>
                <path d="M144.85259,366.58871 C144.85259,365.532258 146.119522,362.785484 147.808765,360.46129 C149.498008,358.348387 151.820717,351.164516 153.298805,344.614516 C156.043825,331.303226 158.577689,333.416129 156.466135,347.15 C155.199203,354.967742 144.85259,372.293548 144.85259,366.58871 Z" id="Shape"></path>
                <path d="M82.9840637,292.425806 C76.6494024,290.524194 76.0159363,281.43871 81.0836653,271.085484 C83.6175299,265.803226 86.1513944,262 86.7848606,262.633871 C87.4183267,263.267742 86.3625498,266.648387 84.6733068,270.240323 C79.8167331,279.325806 80.4501992,284.185484 86.5737052,286.932258 C93.9641434,290.312903 93.752988,290.312903 92.4860558,282.283871 C90.7968127,271.930645 95.2310757,261.154839 104.733068,252.703226 C123.525896,235.58871 145.908367,248.68871 137.673307,271.930645 C135.984064,276.367742 136.406375,276.367742 147.386454,275.31129 C154.776892,274.466129 159.422311,274.88871 160.266932,276.579032 C161.322709,278.058065 159.633466,278.480645 154.776892,277.635484 L147.808765,276.579032 L153.721116,279.959677 C161.533865,284.396774 159.844622,286.298387 151.820717,282.072581 C148.442231,280.382258 143.374502,278.903226 140.418327,278.903226 L135.139442,279.114516 L141.051793,282.283871 C149.709163,286.932258 148.01992,289.679032 139.151394,285.030645 C130.494024,280.593548 125.003984,281.86129 131.760956,286.720968 C134.294821,288.41129 136.195219,290.735484 136.195219,291.791935 C136.195219,292.848387 133.450199,291.791935 130.071713,289.256452 C124.159363,284.819355 123.525896,284.819355 115.501992,287.98871 C106.211155,291.791935 88.685259,294.116129 82.9840637,292.425806 Z M102.832669,281.86129 C102.410359,278.903226 103.677291,272.775806 105.577689,268.127419 C108.322709,262.422581 108.74502,259.041935 107.266932,257.562903 C102.199203,252.491935 91.4302789,275.522581 94.8087649,284.185484 C95.4422311,285.875806 97.7649402,287.354839 99.876494,287.354839 C103.043825,287.354839 103.677291,286.298387 102.832669,281.86129 Z M124.159363,280.804839 C132.394422,278.058065 134.083665,275.31129 128.593625,273.198387 C124.159363,271.508065 115.924303,275.733871 112.968127,281.227419 C110.856574,284.819355 111.067729,285.453226 113.390438,284.608065 C114.868526,283.974194 119.7251,282.283871 124.159363,280.804839 Z M121.625498,265.591935 C120.14741,264.112903 118.458167,264.324194 116.346614,266.225806 C111.701195,269.817742 114.446215,272.987097 119.7251,270.240323 C122.681275,268.55 123.314741,267.282258 121.625498,265.591935 Z M129.860558,265.380645 C129.860558,264.958065 128.171315,263.267742 126.270916,261.78871 C122.89243,259.041935 122.681275,259.253226 125.426295,262.633871 C128.171315,266.014516 129.860558,267.070968 129.860558,265.380645 Z M136.61753,258.830645 C134.717131,248.266129 120.780876,243.406452 117.191235,252.069355 C115.713147,255.66129 115.290837,255.872581 115.290837,253.125806 C115.079681,249.11129 111.912351,248.054839 110.011952,251.224194 C108.111554,254.182258 111.067729,260.098387 113.812749,259.253226 C115.079681,258.830645 117.40239,256.295161 118.669323,253.337097 C120.780876,249.533871 121.414343,249.11129 121.414343,252.069355 C121.414343,254.182258 123.103586,255.66129 125.63745,255.66129 C127.960159,255.66129 130.916335,257.562903 132.394422,259.887097 C135.984064,265.591935 137.884462,265.169355 136.61753,258.830645 Z" id="Shape"></path>
                <path d="M77.0717131,228.827419 C77.0717131,227.770968 78.12749,225.658065 79.1832669,223.967742 C80.87251,221.432258 81.2948207,221.643548 81.2948207,225.658065 C81.2948207,228.193548 80.4501992,230.306452 79.1832669,230.306452 C78.12749,230.306452 77.0717131,229.672581 77.0717131,228.827419 Z" id="Shape"></path>
                <path d="M283.159363,186.358065 C282.525896,185.090323 282.948207,183.4 284.215139,182.766129 C287.171315,180.864516 288.438247,182.343548 286.326693,185.724194 C285.059761,187.414516 284.003984,187.625806 283.159363,186.358065 Z" id="Shape"></path>
            </g>
        </g>
        <g id="B9vA98Wisy" transform="translate(3.000000, 6.000000)" fill="#FFFFFF" fill-rule="nonzero">
            <g id="Group" transform="translate(261.500000, 192.500000) scale(-1, 1) rotate(-180.000000) translate(-261.500000, -192.500000) ">
                <path d="M121.433401,381.615385 C120.692308,379.817308 120.692308,371.25 121.32753,362.576923 C122.386235,348.403846 122.174494,347.240385 119.104251,350.307692 C112.963765,356.548077 87.0255061,347.346154 70.2979757,333.067308 C48.3827935,314.346154 46.1595142,276.692308 65.6396761,254.586538 C72.732996,246.548077 73.4740891,240.413462 68.9216599,229.307692 L65.7455466,221.903846 L73.3682186,218.730769 C83.4259109,214.5 89.7781377,215.557692 90.6251012,221.586538 C91.5779352,228.038462 95.2834008,227.615385 95.2834008,221.057692 C95.2834008,210.798077 119.633603,217.567308 142.078138,234.067308 L155.206073,243.692308 L150.759514,236.605769 C147.054049,230.576923 146.630567,228.038462 148.324494,220.951923 C149.383198,216.403846 150.230162,206.884615 150.336032,199.903846 C150.336032,183.932692 153.512146,172.192308 160.181984,163.413462 C170.133806,150.192308 177.756478,149.875 177.862348,162.778846 C177.862348,166.480769 178.497571,167.326923 180.191498,165.634615 C181.779555,164.048077 180.509109,158.971154 175.639069,147.759615 C158.911538,109.259615 158.276316,107.355769 159.33502,98.0480769 C160.923077,83.875 189.825709,36.9134615 195.860324,38.7115385 C198.824696,39.6634615 213.646559,69.3846154 215.128745,77.3173077 C216.29332,83.3461538 215.658097,84.1923077 206.447368,88.9519231 C200.306883,92.125 194.695749,97.0961538 192.048988,101.855769 L187.602429,109.471154 L196.283806,126.182692 C201.047976,135.278846 206.235628,147.125 207.717814,152.307692 L210.576316,161.826923 L211.317409,154.951923 C212.058502,147.442308 212.905466,147.125 229.421255,149.451923 C240.749393,150.932692 240.961134,151.673077 234.079555,166.586538 C226.562753,182.663462 228.468421,180.653846 246.889879,152.836538 C273.675101,112.644231 279.921457,88.7403846 272.298785,56.4807692 C270.393117,48.5480769 268.910931,41.6730769 268.910931,41.1442308 C268.910931,40.6153846 279.074494,40.1923077 291.461336,40.1923077 L314.011741,40.1923077 L312.529555,58.7019231 C309.1417,101.221154 294.108097,145.221154 283.203441,144.480769 C276.215992,144.057692 276.321862,143.105769 282.038866,155.692308 C295.907895,186.153846 284.368016,228.25 262.135223,228.567308 C254.512551,228.673077 260.864777,231.423077 283.626923,237.875 C326.186842,250.038462 324.281174,258.923077 280.662551,251.730769 C263.299798,248.875 263.82915,249.932692 285.21498,261.461538 C345.455263,294.038462 344.184818,306.836538 283.309312,280.5 C262.029352,271.298077 261.817611,271.509615 277.698178,284.625 C295.696154,299.326923 323.963563,329.894231 323.963563,334.548077 C323.963563,343.855769 293.049393,328.942308 267.111134,307.048077 C250.065992,292.769231 249.007287,292.451923 255.994737,303.769231 C270.92247,327.990385 271.134211,334.865385 256.62996,322.384615 C236.091093,304.826923 217.987247,275.740385 218.198988,260.403846 L218.304858,250.673077 L222.222065,263.048077 C231.221053,291.076923 245.725304,290.125 242.54919,261.778846 L241.067004,249.086538 L246.784008,253.634615 C261.5,265.163462 266.687652,245.701923 252.924494,230.471154 C248.477935,225.605769 249.113158,224.230769 255.677126,224.230769 C265.734818,224.230769 274.839676,216.826923 269.228543,213.336538 C266.687652,211.75 264.676113,209.423077 264.676113,208.153846 C264.676113,206.778846 262.770445,205.192308 260.441296,204.557692 C258.112146,203.923077 256.206478,201.913462 256.206478,200.115385 C256.206478,194.192308 262.558704,196.519231 267.111134,204.134615 C269.440283,208.153846 272.404656,211.009615 273.46336,210.269231 C274.733806,209.528846 274.204453,207.519231 272.192915,205.298077 C268.59332,201.278846 267.640486,190.384615 271.02834,190.384615 C272.192915,190.384615 273.145749,193.240385 273.145749,196.730769 C273.145749,200.221154 274.204453,203.076923 275.474899,203.076923 C276.957085,203.076923 277.274696,205.086538 276.427733,208.576923 C275.474899,212.596154 275.79251,213.759615 277.804049,213.125 C281.191903,211.961538 280.874291,206.461538 277.062955,196.942308 C274.839676,191.230769 274.733806,189.538462 276.851215,188.798077 C280.027328,187.740385 280.45081,176.423077 277.380567,174.519231 C276.215992,173.778846 275.263158,171.875 275.263158,170.182692 C275.263158,168.490385 276.215992,167.115385 277.380567,167.115385 C278.545142,167.115385 279.497976,168.490385 279.497976,170.182692 C279.497976,171.875 280.45081,173.778846 281.615385,174.519231 C282.77996,175.259615 283.203441,174.307692 282.674089,172.509615 C282.038866,170.711538 281.191903,167.75 280.55668,165.951923 C279.709717,163.201923 278.756883,163.096154 274.733806,165.317308 C272.087045,166.798077 268.805061,167.75 267.322874,167.432692 C265.840688,167.115385 264.040891,168.384615 263.405668,170.182692 C261.60587,174.836538 254.618421,174.201923 251.97166,169.230769 C248.795547,163.307692 247.31336,163.836538 239.478947,173.567308 C232.068016,182.769231 233.232591,189.75 241.913968,187.528846 C244.666599,186.788462 245.619433,187.317308 244.87834,189.326923 C242.337449,195.884615 249.324899,193.451923 256.524089,185.413462 C262.770445,178.326923 264.887854,177.163462 267.005263,179.278846 C271.663563,183.721154 266.899393,193.451923 259.700202,194.298077 C254.618421,194.826923 253.771457,195.673077 254.618421,200.115385 C255.147773,202.865385 255.465385,205.192308 255.253644,205.192308 C255.041903,205.192308 250.383603,203.605769 244.77247,201.807692 C239.267206,199.903846 234.291296,198.951923 233.550202,199.586538 C232.173887,200.961538 239.690688,204.346154 248.160324,206.144231 C265.840688,209.846154 267.958097,222.115385 250.912955,221.903846 C243.713765,221.903846 243.184413,221.586538 247.20749,219.894231 C252.712753,217.778846 253.347976,213.230769 248.795547,209.423077 C246.784008,207.730769 245.619433,207.625 245.619433,209 C245.619433,210.269231 246.572267,211.855769 247.736842,212.596154 C252.501012,215.557692 249.53664,218.307692 242.44332,217.461538 C233.232591,216.403846 233.232591,216.298077 243.078543,225.182692 C262.770445,242.951923 263.723279,263.259615 244.031377,246.442308 C233.02085,236.923077 232.809109,237.028846 236.408704,249.509615 C239.796559,260.826923 239.584818,280.394231 236.091093,280.076923 C231.538664,279.759615 224.551215,260.826923 222.645547,243.798077 C220.845749,227.509615 209.623482,202.336538 205.918016,206.144231 C205.282794,206.673077 206.341498,209.528846 208.141296,212.278846 C211.317409,217.038462 211.317409,217.461538 207.823684,218.413462 C204.965182,219.153846 203.377126,223.278846 201.259717,235.019231 C197.130769,258.182692 187.7083,285.471154 175.744939,308.423077 C169.922065,319.634615 165.157895,331.163462 165.157895,334.125 C165.052024,353.057692 126.515182,394.942308 121.433401,381.615385 Z M152.559312,349.567308 C153.829757,345.865385 154.46498,340.576923 154.041498,337.932692 C153.406275,334.336538 152.665182,335.394231 150.653644,342.692308 C149.277328,347.980769 146.948178,354.644231 145.571862,357.5 C141.337045,366.490385 141.337045,367.230769 145.889474,361.730769 C148.324494,358.875 151.288866,353.375 152.559312,349.567308 Z M111.905061,286.211538 C119.951215,283.567308 121.539271,283.567308 126.0917,286.528846 C132.973279,291.076923 134.773077,290.653846 130.220648,285.576923 C125.668219,280.605769 130.114777,279.442308 137.94919,283.673077 C144.724899,287.269231 145.04251,284.201923 138.372672,280.394231 L132.338057,276.903846 L138.690283,277.855769 C142.184008,278.384615 147.47753,279.548077 150.336032,280.394231 C155.523684,281.875 155.523684,281.769231 151.394737,278.278846 C147.159919,274.682692 147.159919,274.682692 151.924089,275.740385 C154.57085,276.269231 156.688259,275.740385 156.688259,274.576923 C156.688259,273.413462 152.02996,272.778846 145.571862,273.201923 C136.572874,273.836538 134.561336,273.307692 135.196559,270.769231 C140.17247,248.769231 123.65668,235.971154 105.764575,248.028846 C96.3421053,254.375 90.2016194,265.375 89.6722672,277.009615 C89.2487854,286.740385 87.1313765,288.115385 80.9908907,283.038462 C77.497166,280.076923 77.6030364,276.163462 81.6261134,268.548077 C83.3200405,265.163462 83.9552632,262.307692 82.8965587,262.307692 C80.7791498,262.307692 74.1093117,277.432692 74.1093117,282.298077 C74.1093117,292.346154 89.142915,293.826923 111.905061,286.211538 Z" id="Shape"></path>
                <path d="M92.4248988,284.201923 C88.190081,279.865385 96.765587,255.961538 102.588462,255.961538 C106.611538,255.961538 106.611538,255.538462 102.694332,266.538462 C101.000405,271.509615 99.5182186,277.75 99.5182186,280.605769 C99.5182186,285.259615 95.6010121,287.269231 92.4248988,284.201923 Z" id="Shape"></path>
                <path d="M110.105263,280.394231 C110.105263,276.375 122.068623,270.028846 126.515182,271.721154 C130.85587,273.413462 128.209109,275.951923 118.045547,280.182692 C111.058097,283.144231 110.105263,283.144231 110.105263,280.394231 Z" id="Shape"></path>
                <path d="M130.64413,259.451923 C128.209109,253 116.669231,249.403846 114.12834,254.269231 C112.010931,258.182692 111.481579,258.288462 108.411336,255.115385 C105.552834,252.365385 105.446964,251.307692 107.776113,249.086538 C110.105263,246.971154 110.846356,246.971154 111.69332,249.192308 C112.434413,251.307692 113.598988,251.201923 116.669231,248.346154 C121.962753,243.586538 130.538259,247.182692 132.549798,254.903846 C134.031984,260.826923 132.549798,264.423077 130.64413,259.451923 Z" id="Shape"></path>
                <path d="M234.608907,372.307692 C228.574291,362.153846 220.316397,338.673077 215.869838,318.788462 C211.846761,300.701923 210.682186,302.5 210.576316,327.567308 C210.364575,364.163462 203.588866,366.913462 198.612955,332.432692 C196.283806,316.778846 196.495547,314.557692 202.212551,293.826923 C206.659109,277.538462 208.458907,265.375 209.2,246.971154 C210.152834,222.115385 211.52915,218.096154 216.187449,226.663462 C217.987247,230.048077 217.987247,235.019231 215.975709,246.971154 C212.799595,267.067308 214.281781,274.894231 224.551215,292.028846 C232.385628,304.932692 233.126721,308 237.255668,338.25 C242.866802,379.923077 242.44332,385.423077 234.608907,372.307692 Z" id="Shape"></path>
                <path d="M82.8965587,367.759615 L73.5799595,365.644231 L80.7791498,359.403846 C91.2603239,350.201923 117.516194,353.903846 116.034008,364.375 C115.292915,369.980769 99.5182186,371.567308 82.8965587,367.759615 Z" id="Shape"></path>
                <path d="M46.4771255,351.048077 C36.6311741,345.230769 24.9854251,337.403846 20.5388664,333.596154 L12.3868421,326.826923 L33.5609312,326.932692 L54.7350202,327.144231 L64.1574899,335.817308 C69.3451417,340.576923 76.7560729,346.076923 80.5674089,348.086538 L87.5548583,351.682692 L79.2969636,356.653846 C67.9688259,363.423077 66.9101215,363.317308 46.4771255,351.048077 Z" id="Shape"></path>
                <path d="M169.498583,334.019231 C169.392713,328.836538 171.404251,323.653846 175.744939,317.625 C183.579352,306.836538 184.320445,306.730769 184.002834,316.778846 C183.685223,324.605769 183.685223,324.605769 182.203036,318.365385 L180.826721,312.019231 L179.026923,319.423077 C178.074089,323.548077 175.639069,330.211538 173.415789,334.230769 L169.604453,341.634615 L169.498583,334.019231 Z" id="Shape"></path>
                <path d="M20.1153846,322.913462 C11.1163968,320.163462 2.11740891,309.586538 2.11740891,301.759615 C2.11740891,297.740385 2.43502024,297.740385 7.9402834,302.923077 C16.1981781,310.538462 29.6437247,318.894231 36.5253036,320.586538 C39.701417,321.326923 42.3481781,322.807692 42.3481781,323.865385 C42.3481781,326.509615 30.2789474,325.980769 20.1153846,322.913462 Z" id="Shape"></path>
                <path d="M37.9016194,317.519231 C-12.9161943,297.634615 -11.8574899,276.057692 43.0892713,220.211538 C74.8504049,187.951923 84.6963563,173.673077 84.6963563,160.346154 C84.6963563,157.067308 97.0831984,169.019231 98.5653846,173.778846 C101.106275,181.711538 93.2718623,190.278846 69.0275304,206.144231 C43.4068826,222.961538 32.5022267,234.701923 26.4676113,251.730769 C20.432996,268.865385 24.4560729,284.413462 35.4665992,286.740385 C38.6427126,287.480769 42.3481781,288.326923 43.6186235,288.75 C44.8890688,289.173077 46.582996,294.567308 47.2182186,300.701923 C47.9593117,306.942308 49.1238866,314.134615 49.9708502,316.778846 C51.5589069,322.384615 50.6060729,322.490385 37.9016194,317.519231 Z" id="Shape"></path>
                <path d="M186.437854,308 C186.331984,299.115385 194.166397,275 197.23664,275 C198.189474,275 199.036437,271.192308 199.036437,266.538462 C199.036437,261.884615 199.989271,258.076923 201.153846,258.076923 C202.318421,258.076923 203.271255,261.884615 203.271255,266.538462 C203.271255,271.192308 202.318421,275 201.153846,275 C199.989271,275 199.036437,277.221154 199.036437,279.971154 C199.036437,285.153846 192.366599,306.201923 188.661134,312.548077 C186.861336,315.509615 186.437854,314.663462 186.437854,308 Z" id="Shape"></path>
                <path d="M31.6552632,281.240385 C22.8680162,272.461538 29.1143725,243.903846 43.0892713,228.778846 C45.6301619,226.028846 58.4404858,216.721154 71.5684211,208.153846 C85.2257085,199.163462 96.4479757,190.173077 97.8242915,187.211538 C102.16498,177.586538 107.987854,187.528846 107.987854,204.663462 L107.987854,211.538462 L96.765587,211.538462 C71.2508097,211.538462 58.5463563,218.942308 64.4751012,230.259615 C69.5568826,240.307692 68.4981781,246.125 59.2874494,257.230769 C54.6291498,262.836538 49.5473684,271.298077 48.0651822,275.951923 C44.6773279,286.105769 38.5368421,288.115385 31.6552632,281.240385 Z" id="Shape"></path>
                <path d="M203.482996,248.134615 C204.012348,232.163462 206.976721,226.134615 207.294332,240.519231 C207.400202,247.711538 206.553239,254.163462 205.388664,254.903846 C204.118219,255.644231 203.377126,253 203.482996,248.134615 Z" id="Shape"></path>
                <path d="M341.432186,240.201923 C326.927935,236.923077 307.236032,227.192308 296.225506,217.990385 C286.803036,210.057692 289.132186,208.259615 301.624899,213.865385 C352.125101,236.076923 417.023684,200.75 417.129555,150.932692 C417.129555,125.653846 409.612753,113.596154 375.416599,84.5096154 C341.008704,55.1057692 337.197368,47.8076923 349.47834,35.5384615 C357.206883,27.8173077 359.112551,28.875 355.512955,38.8173077 C349.37247,56.0576923 359.747773,69.5961538 393.838057,88.4230769 C443.808907,116.028846 462.865587,147.336538 451.219838,182.451923 C435.339271,229.836538 393.414575,251.942308 341.432186,240.201923 Z" id="Shape"></path>
                <path d="M45.8419028,210.163462 C74.3210526,182.451923 78.9793522,169.865385 65.6396761,156.538462 C52.3,143.211538 30.1730769,153.048077 35.7842105,169.759615 C37.9016194,176.105769 37.795749,176.317308 34.8313765,172.403846 C23.291498,157.278846 34.937247,140.038462 54.9467611,142.365385 C92.1072874,146.807692 87.1313765,177.586538 42.9834008,216.932692 C19.2684211,238.086538 20.6447368,234.807692 45.8419028,210.163462 Z" id="Shape"></path>
                <path d="M313.058907,214.923077 C303.636437,212.384615 291.037854,205.721154 292.625911,204.028846 C293.049393,203.605769 297.390081,204.346154 302.260121,205.509615 C323.116599,210.798077 350.007692,200.644231 362.712146,182.769231 C380.710121,157.278846 378.804453,143.211538 351.489879,101.432692 C329.362955,67.5865385 325.869231,52.7788462 336.668016,39.7692308 L340.796964,34.9038462 L340.796964,44 C340.902834,57.75 344.925911,63.25 371.393522,85.3557692 C406.119028,114.442308 416.811943,131.894231 414.376923,155.692308 C410.142105,196.836538 358.265587,227.086538 313.058907,214.923077 Z" id="Shape"></path>
                <path d="M140.913563,206.144231 C139.113765,202.019231 129.797166,187 120.057085,172.826923 C110.317004,158.653846 99.6240891,142.365385 96.3421053,136.653846 L90.3074899,126.288462 L110.105263,141.942308 C141.125304,166.375 146.101215,173.884615 146.101215,195.884615 C146.101215,215.663462 145.465992,217.038462 140.913563,206.144231 Z" id="Shape"></path>
                <path d="M247.736842,187.423077 C247.736842,183.403846 254.089069,175.576923 257.371053,175.576923 C261.923482,175.576923 261.182389,177.480769 254.089069,184.038462 C250.595344,187.317308 247.736842,188.798077 247.736842,187.423077 Z" id="Shape"></path>
                <path d="M236.091093,181.923077 C235.35,180.759615 237.255668,178.855769 240.22004,177.692308 C243.184413,176.634615 245.619433,174.307692 245.619433,172.615385 C245.619433,170.923077 246.572267,168.913462 247.736842,168.173077 C251.654049,165.740385 249.854251,175.576923 245.619433,179.807692 C240.961134,184.461538 238.102632,185.096154 236.091093,181.923077 Z" id="Shape"></path>
                <path d="M269.440283,178.326923 C268.063968,175.259615 267.322874,172.298077 267.852227,171.769231 C269.652024,169.865385 275.263158,176.105769 275.263158,180.019231 C275.263158,185.730769 272.510526,184.990385 269.440283,178.326923 Z" id="Shape"></path>
                <path d="M133.290891,159.076923 C125.562348,151.25 112.434413,138.769231 103.964777,131.153846 C90.9427126,119.413462 88.5076923,116.134615 87.5548583,108.942308 L86.3902834,100.480769 L91.8955466,108.307692 C99.2006073,118.673077 112.010931,125.865385 130.326518,129.990385 C158.805668,136.442308 164.205061,144.163462 154.359109,164.365385 C148.853846,175.682692 149.912551,175.894231 133.290891,159.076923 Z" id="Shape"></path>
                <path d="M163.252227,149.663462 C163.358097,148.182692 164.09919,144.692308 164.946154,141.730769 L166.42834,136.442308 L169.180972,141.413462 C170.663158,144.057692 171.298381,147.653846 170.663158,149.346154 C169.286842,153.048077 162.934615,153.365385 163.252227,149.663462 Z" id="Shape"></path>
                <path d="M239.267206,146.807692 C239.267206,146.067308 242.54919,140.144231 246.572267,133.586538 C260.123684,111.586538 263.299798,78.0576923 254.089069,53.8365385 C252.501012,49.8173077 252.712753,48.2307692 255.041903,47.3846154 C272.192915,40.7211538 276.110121,88.9519231 260.970648,121.105769 C253.030364,138.134615 239.267206,154.317308 239.267206,146.807692 Z" id="Shape"></path>
                <path d="M447.408502,130.307692 C437.35081,114.653846 416.706073,96.6730769 396.273077,85.9903846 C367.476316,70.8653846 357.842105,60.5 357.842105,44.7403846 C357.842105,25.8076923 373.828543,23.375 428.775304,33.8461538 C446.98502,37.3365385 464.771255,40.1923077 468.26498,40.1923077 C471.758704,40.1923077 473.981984,41.0384615 473.346761,42.0961538 C471.335223,45.4807692 460.854049,46.8557692 427.293117,48.3365385 C382.404049,50.2403846 380.180769,53.3076923 407.177733,75.625 C437.562551,100.798077 448.573077,114.125 454.07834,132.105769 C458.313158,146.278846 457.466194,146.067308 447.408502,130.307692 Z" id="Shape"></path>
                <path d="M150.124291,133.057692 C145.889474,130.836538 136.043522,127.557692 128.209109,125.971154 C87.1313765,117.403846 76.6502024,81.7596154 111.269838,68.6442308 C126.726923,62.7211538 144.724899,74.3557692 137.94919,85.9903846 C135.937652,89.4807692 135.62004,89.2692308 135.62004,84.0865385 C135.51417,77.7403846 128.950202,69.8076923 123.868421,69.8076923 C118.78664,69.8076923 112.222672,77.8461538 112.222672,84.0865385 C112.222672,95.6153846 118.257287,102.384615 147.689271,123.644231 C164.840283,136.125 166.32247,141.836538 150.124291,133.057692 Z" id="Shape"></path>
                <path d="M193.848785,114.548077 C192.260729,109.576923 195.330972,101.326923 200.201012,97.3076923 C203.588866,94.4519231 203.694737,94.7692308 202.212551,101.538462 C198.824696,117.298077 196.072065,121.528846 193.848785,114.548077 Z" id="Shape"></path>
                <path d="M163.040486,66.1057692 C163.040486,63.7788462 162.405263,57.5384615 161.66417,52.1442308 L160.393725,42.3076652 L171.19251,42.3076923 C184.002834,42.3076923 184.002834,42.2019231 175.639069,55.2115385 C167.275304,68.2211538 163.040486,71.9230769 163.040486,66.1057692 Z" id="Shape"></path>
                <path d="M467.947368,47.4903846 C483.192713,41.4615385 497.696964,37.4423077 499.073279,38.9230769 C502.143522,41.8846154 478.852024,51.6153846 466.994534,52.25 L454.184211,52.9903846 L467.947368,47.4903846 Z" id="Shape"></path>
                <path d="M501.5083,39.2403846 C515.165587,24.4326923 515.694939,13.5384615 503.308097,7.08653846 C493.462146,2.00961538 479.381377,2.75 473.02915,8.67307692 C470.276518,11.3173077 467.947368,12.375 467.947368,11 C467.947368,-1.58653846 510.930769,-1.26923077 519.294534,11.4230769 C524.376316,19.1442308 517.388866,34.0576923 504.366802,43.0480769 C492.615182,51.1923077 491.662348,49.9230769 501.5083,39.2403846 Z" id="Shape"></path>
            </g>
        </g>
    </g>
</svg>