<?xml version="1.0" standalone="no"?>
<!DOCTYPE svg PUBLIC "-//W3C//DTD SVG 20010904//EN"
 "http://www.w3.org/TR/2001/REC-SVG-20010904/DTD/svg10.dtd">
<svg version="1.0" xmlns="http://www.w3.org/2000/svg"
 width="300.000000pt" height="306.000000pt" viewBox="0 0 300.000000 306.000000"
 preserveAspectRatio="xMidYMid meet">
<metadata>
Created by potrace 1.10, written by Peter Selinger 2001-2011
</metadata>
<g transform="translate(0.000000,306.000000) scale(0.050000,-0.050000)"
fill="#000000" stroke="none">
<path d="M4391 5653 c-28 -47 -51 -109 -51 -137 0 -28 -19 -94 -42 -146 -28
-64 -35 -101 -21 -115 13 -13 13 -35 -1 -67 -16 -35 -15 -55 4 -78 21 -25 20
-37 -9 -69 -19 -21 -40 -77 -46 -124 -31 -235 -197 -336 -324 -198 -41 44 -93
81 -116 81 -24 0 -82 45 -142 110 -77 85 -113 110 -158 110 -33 0 -74 16 -92
37 -36 39 -45 143 -13 143 11 0 20 26 20 57 0 41 14 63 50 79 28 13 50 40 50
61 0 21 20 51 44 67 l44 29 -46 65 c-33 45 -56 60 -79 51 -120 -50 -179 -53
-274 -11 -53 24 -112 37 -132 31 -22 -7 -62 6 -97 31 -84 60 -132 46 -124 -34
7 -77 1 -81 -166 -105 -147 -20 -225 -68 -188 -114 26 -31 8 -95 -22 -77 -64
39 -123 -132 -67 -193 39 -43 29 -48 -127 -66 -104 -12 -105 -12 -133 55 -52
124 -238 144 -268 29 -11 -42 -14 -42 -64 -11 -53 33 -105 -11 -89 -76 10 -39
4 -48 -27 -48 -42 0 -93 -46 -73 -65 32 -33 -18 -95 -76 -95 -58 0 -60 -2 -47
-70 14 -74 -48 -103 -103 -48 -16 16 -33 15 -64 -1 -47 -25 -61 -167 -19 -193
17 -10 15 -20 -6 -36 -17 -12 -61 -71 -100 -132 -75 -117 -201 -200 -303 -200
-35 0 -80 -27 -132 -80 -71 -72 -89 -80 -178 -80 -91 0 -101 -5 -124 -60 -14
-33 -55 -79 -93 -102 -98 -61 -127 -94 -127 -149 0 -60 -31 -64 -60 -8 -37 68
-66 23 -51 -79 15 -105 15 -117 -1 -247 -12 -93 -9 -98 70 -171 107 -98 105
-124 -8 -124 -112 0 -112 -1 10 -134 69 -76 100 -126 100 -164 0 -40 26 -80
92 -142 78 -72 90 -94 81 -141 -9 -44 8 -86 80 -192 76 -113 89 -147 80 -203
-6 -37 -3 -89 7 -115 24 -63 6 -109 -42 -109 -64 0 -48 -88 27 -144 192 -144
349 -164 413 -53 18 32 49 57 72 57 25 0 56 29 85 79 46 81 124 110 265 98
226 -19 278 5 308 145 9 43 20 50 67 43 46 -7 67 6 121 73 44 55 80 80 110 78
46 -3 290 78 323 107 10 9 51 17 90 17 39 1 110 10 157 21 73 17 95 14 140
-17 71 -49 120 -66 133 -45 6 9 44 4 86 -10 41 -15 91 -28 110 -28 38 -1 49
-70 14 -92 -29 -17 16 -69 60 -69 38 0 101 -117 101 -189 0 -98 75 -86 132 20
20 38 45 69 55 69 9 0 43 28 76 63 75 80 91 63 38 -40 -22 -45 -41 -92 -41
-104 0 -12 -20 -38 -43 -58 -29 -23 -39 -46 -30 -70 18 -48 123 -28 173 34 46
56 78 6 41 -64 -30 -55 -14 -78 46 -67 65 13 138 -102 121 -188 -13 -68 70
-186 131 -186 20 0 47 -13 61 -30 14 -16 47 -30 74 -30 26 0 81 -23 122 -50
92 -63 114 -62 173 0 50 55 114 48 169 -18 41 -49 124 -38 229 28 66 42 126
63 194 67 123 7 164 44 198 175 15 60 51 129 84 164 31 33 57 78 57 99 0 22
23 66 50 99 28 32 50 71 50 85 0 29 149 171 180 171 33 0 81 116 119 292 21
93 52 191 69 218 25 38 31 95 27 264 -5 205 -2 221 52 312 63 108 48 174 -30
132 -62 -33 -100 -14 -124 62 -15 45 -50 87 -100 120 -73 47 -77 53 -66 132
15 110 -19 159 -101 142 -67 -13 -135 157 -86 216 22 27 7 90 -22 90 -10 0
-18 23 -18 50 0 28 -12 50 -26 50 -14 0 -62 26 -106 59 -43 32 -102 64 -131
71 -73 18 -140 157 -124 257 10 59 -1 100 -53 203 -64 126 -65 130 -31 182 35
52 35 53 -51 140 -70 71 -90 82 -103 58 -44 -78 -115 43 -115 196 0 36 -13 84
-29 105 -17 22 -30 71 -30 110 -2 158 -78 195 -150 72z m118 -108 c2 -48 13
-94 25 -102 11 -7 27 -58 35 -113 8 -55 19 -134 25 -175 13 -94 30 -104 103
-67 86 45 186 -48 115 -107 -34 -28 6 -172 73 -263 33 -45 35 -63 16 -134 -32
-120 49 -304 134 -304 34 0 84 -24 126 -59 38 -33 80 -60 94 -60 29 -1 71 -94
59 -129 -5 -12 4 -62 19 -112 14 -49 27 -115 27 -145 0 -61 12 -65 91 -34 71
27 77 19 71 -110 -4 -109 -4 -109 76 -150 63 -32 83 -55 93 -109 16 -85 107
-135 163 -89 30 24 32 23 17 -13 -85 -206 -110 -295 -91 -330 41 -77 26 -100
-69 -100 -69 0 -94 -9 -111 -40 -27 -50 -52 -50 -150 0 -95 48 -224 52 -273 8
-34 -31 -579 -7 -1002 44 l-95 12 13 218 13 218 -216 0 -216 0 13 453 c7 250
13 583 13 742 l0 288 45 -13 c25 -7 80 -49 123 -94 128 -133 332 -101 332 52
0 14 19 43 41 63 33 30 39 52 29 106 -10 54 -3 77 33 116 40 42 42 54 20 90
-21 33 -21 53 -1 101 20 48 19 63 -2 76 -20 13 -17 31 17 85 24 38 43 94 43
123 0 191 121 244 129 57z m-1550 72 c38 -28 74 -38 105 -30 30 7 69 -3 107
-28 70 -46 189 -50 268 -9 50 25 58 25 68 0 7 -17 -6 -39 -30 -51 -27 -15 -37
-36 -31 -61 8 -29 -6 -47 -53 -71 -83 -42 -83 -41 -53 -77 19 -23 21 -43 5
-76 -48 -99 -47 -120 8 -177 30 -31 75 -57 100 -57 25 0 77 -28 116 -62 l71
-62 0 -778 0 -778 -628 0 -627 0 -13 365 c-8 201 -22 482 -32 625 -10 143 -23
370 -29 505 l-11 245 49 0 c106 0 149 64 81 120 -54 45 -7 118 77 119 29 1 35
15 31 77 -8 105 10 124 120 124 174 0 260 53 231 143 -15 48 0 47 70 -6z
m-888 -466 c30 -30 49 -72 49 -109 l0 -60 72 30 c94 39 80 121 119 -742 72
-1627 79 -1856 59 -1882 -26 -33 -218 -88 -309 -88 -60 -1 -80 -13 -128 -81
-50 -72 -63 -79 -120 -69 -61 12 -64 9 -93 -84 -29 -92 -33 -96 -100 -92 -38
3 -83 -1 -100 -9 -58 -25 -219 -17 -230 12 -15 39 -62 -3 -112 -101 -32 -62
-49 -76 -98 -76 -45 0 -60 -9 -60 -37 0 -80 -171 -152 -221 -92 -13 16 -33 29
-45 29 -12 0 -51 20 -88 45 -69 47 -87 95 -36 95 40 0 75 93 56 148 -8 23 -12
79 -9 125 5 71 -6 100 -85 207 -79 106 -92 138 -92 218 0 89 -5 98 -90 157
-78 56 -88 71 -78 120 10 49 -2 69 -83 144 l-95 87 83 -13 c116 -19 121 65 9
159 -76 64 -87 112 -67 278 2 22 -2 76 -10 120 -15 79 -15 80 26 44 45 -40 54
-33 73 57 9 41 35 72 79 96 35 19 86 69 112 112 45 73 54 77 166 85 103 8 124
17 166 70 26 33 75 66 107 73 118 23 280 133 334 225 29 49 76 107 105 130 49
38 50 43 18 67 -49 35 -48 151 1 151 20 0 45 -9 56 -20 33 -33 154 17 138 57
-24 61 -20 72 24 79 42 6 75 60 76 124 0 18 23 33 57 37 49 5 55 12 44 55 -18
71 4 94 55 58 54 -38 74 -38 74 -1 0 93 121 132 191 62z m1982 -2126 c-25
-446 -72 -1435 -72 -1520 -1 -50 -10 -85 -24 -85 -39 0 -74 68 -64 121 13 65
-103 261 -145 245 -33 -12 -35 3 -9 53 15 27 8 46 -29 81 l-49 46 -58 -63
c-33 -35 -76 -63 -96 -62 -36 0 -7 36 51 63 7 3 32 56 57 116 82 201 41 326
-55 170 -24 -39 -60 -70 -80 -70 -23 0 -52 -32 -80 -90 -46 -95 -80 -116 -80
-51 0 62 -63 179 -104 192 -25 8 -36 31 -36 77 0 79 -243 199 -278 137 -14
-26 -32 -20 -110 34 -68 46 -101 59 -119 44 -13 -12 -74 -24 -134 -27 l-109
-6 -13 180 c-7 99 -17 286 -21 415 l-9 235 840 0 839 0 -13 -235z m477 -256
c198 -16 420 -35 493 -42 105 -10 143 -5 179 20 70 49 298 12 298 -49 0 -34
57 -18 116 32 110 92 268 34 163 -61 -20 -18 -42 -70 -49 -116 -38 -246 -97
-364 -213 -424 -77 -40 -117 -86 -117 -133 0 -22 -22 -67 -50 -100 -27 -32
-50 -80 -50 -105 0 -27 -20 -60 -49 -79 -33 -21 -61 -70 -82 -142 -17 -61 -35
-110 -39 -110 -41 0 -112 56 -127 100 -30 86 -101 140 -184 140 -40 0 -103 10
-139 23 -57 20 -70 18 -92 -12 -14 -19 -34 -32 -45 -28 -23 8 -183 219 -183
241 0 9 -17 16 -37 16 -21 0 -60 17 -86 38 -27 21 -81 45 -120 52 l-70 13 6
104 c4 56 12 227 19 378 12 264 14 275 55 274 24 0 205 -13 403 -30z m-320
-849 c20 -22 51 -40 68 -40 34 0 108 -85 173 -197 36 -60 45 -65 109 -53 201
36 364 -1 392 -90 13 -39 46 -83 75 -100 75 -43 66 -60 -32 -61 -62 0 -114
-19 -194 -70 -131 -83 -141 -83 -219 -18 -84 71 -202 90 -202 33 0 -67 -35
-70 -133 -15 -51 28 -112 51 -136 51 -89 0 -120 201 -78 507 14 107 104 134
177 53z"/>
<path d="M4453 1026 c-28 -28 -10 -144 30 -195 35 -44 38 -62 20 -97 -80 -153
143 -408 261 -301 25 23 72 48 103 55 48 12 55 21 45 61 -15 60 4 111 40 111
21 0 28 32 28 128 0 184 -18 194 -235 129 -80 -24 -87 -22 -140 27 -67 62
-135 99 -152 82z m125 -125 l75 -58 125 31 c145 37 161 27 162 -99 0 -51 -9
-75 -28 -75 -32 0 -52 -43 -52 -112 0 -37 -11 -48 -47 -48 -30 0 -55 -17 -69
-50 -63 -138 -223 56 -193 233 10 60 4 88 -29 129 -84 107 -52 135 56 49z"/>
</g>
</svg>
