<?xml version="1.0" standalone="no"?>
<!DOCTYPE svg PUBLIC "-//W3C//DTD SVG 20010904//EN"
 "http://www.w3.org/TR/2001/REC-SVG-20010904/DTD/svg10.dtd">
<svg version="1.0" xmlns="http://www.w3.org/2000/svg"
 width="300.000000pt" height="306.000000pt" viewBox="0 0 300.000000 306.000000"
 preserveAspectRatio="xMidYMid meet">
<metadata>
Created by potrace 1.10, written by Peter Selinger 2001-2011
</metadata>
<g transform="translate(0.000000,306.000000) scale(0.050000,-0.050000)"
fill="#ffffff" stroke="none">
<path d="M4422 5624 c-23 -45 -42 -106 -42 -136 0 -29 -19 -85 -43 -123 -34
-54 -37 -72 -17 -85 21 -13 22 -28 2 -76 -20 -48 -20 -68 1 -101 22 -36 20
-48 -20 -90 -36 -39 -43 -62 -33 -116 10 -54 4 -76 -29 -106 -22 -20 -41 -49
-41 -63 0 -153 -204 -185 -332 -52 -43 45 -98 87 -123 94 l-45 13 0 -288 c0
-159 -6 -492 -13 -742 l-13 -453 216 0 216 0 -13 -218 -13 -218 95 -12 c423
-51 968 -75 1002 -44 49 44 178 40 273 -8 98 -50 123 -50 150 0 17 31 42 40
111 40 95 0 110 23 69 100 -19 35 6 124 91 330 15 36 13 37 -17 13 -56 -46
-147 4 -163 89 -10 54 -30 77 -93 109 -80 41 -80 41 -76 150 6 129 0 137 -71
110 -79 -31 -91 -27 -91 34 0 30 -13 96 -27 145 -15 50 -24 100 -19 112 12 35
-30 128 -59 129 -14 0 -56 27 -94 60 -42 35 -92 59 -126 59 -85 0 -166 184
-134 304 19 71 17 89 -16 134 -67 91 -107 235 -73 263 71 59 -29 152 -115 107
-73 -37 -90 -27 -103 67 -6 41 -17 120 -25 175 -8 55 -24 106 -35 113 -12 8
-23 54 -25 102 -6 150 -36 178 -87 79z"/>
<path d="M2889 5623 c29 -90 -57 -143 -231 -143 -110 0 -128 -19 -120 -124 4
-62 -2 -76 -31 -77 -84 -1 -131 -74 -77 -119 68 -56 25 -120 -82 -120 l-48 0
11 -235 c6 -129 19 -365 29 -525 11 -159 25 -445 32 -635 l13 -345 628 0 627
0 0 778 0 778 -71 62 c-39 34 -91 62 -116 62 -25 0 -70 26 -100 57 -55 57 -56
78 -8 177 16 33 14 53 -5 76 -30 36 -30 35 53 77 47 24 61 42 53 71 -6 25 4
46 31 61 24 12 37 34 30 51 -10 25 -18 25 -68 0 -79 -41 -198 -37 -268 9 -38
25 -77 35 -107 28 -31 -8 -67 2 -105 30 -70 53 -85 54 -70 6z"/>
<path d="M1924 5159 c-24 -22 -44 -54 -44 -70 0 -37 -20 -37 -74 1 -51 36 -73
13 -55 -58 11 -43 5 -50 -44 -55 -34 -4 -57 -19 -57 -37 -1 -64 -34 -118 -76
-124 -44 -7 -48 -18 -24 -79 16 -40 -105 -90 -138 -57 -11 11 -36 20 -56 20
-49 0 -50 -116 -1 -151 32 -24 31 -29 -18 -67 -29 -23 -76 -81 -105 -130 -54
-92 -216 -202 -334 -225 -32 -7 -81 -40 -107 -73 -42 -53 -63 -62 -166 -70
-112 -8 -121 -12 -166 -85 -26 -43 -77 -93 -112 -112 -44 -24 -70 -55 -79 -96
-19 -90 -28 -97 -73 -57 -41 36 -41 35 -26 -44 8 -44 12 -98 10 -120 -20 -166
-9 -214 67 -278 112 -94 107 -178 -9 -159 l-83 13 95 -87 c81 -75 93 -95 83
-144 -10 -49 0 -64 78 -120 85 -59 90 -68 90 -157 0 -80 13 -112 92 -218 79
-107 90 -136 85 -207 -3 -46 1 -102 9 -125 20 -56 -16 -148 -57 -148 -61 0
-20 -67 71 -114 49 -27 98 -56 108 -66 47 -47 212 32 212 103 0 28 15 37 59
37 47 0 67 14 93 65 46 90 105 145 119 111 10 -28 173 -35 229 -11 17 8 62 12
100 9 67 -4 71 0 100 92 29 93 32 96 93 84 57 -10 70 -3 120 69 48 68 68 80
128 81 91 0 283 55 309 88 20 26 13 255 -59 1882 -39 863 -25 781 -119 742
l-72 -30 0 60 c0 120 -118 190 -196 117z"/>
<path d="M2396 3025 c4 -129 14 -316 21 -415 l13 -180 109 6 c60 3 121 15 134
27 18 15 51 2 119 -44 78 -54 96 -60 110 -34 35 62 278 -58 278 -137 0 -46 11
-69 36 -77 41 -13 104 -130 104 -192 0 -65 34 -44 80 51 29 61 56 90 82 90 24
0 56 28 81 70 93 158 133 29 52 -170 -25 -60 -50 -113 -57 -116 -58 -27 -87
-63 -51 -63 20 -1 63 27 96 62 l58 63 49 -46 c37 -35 44 -54 29 -81 -26 -50
-24 -65 9 -53 42 16 158 -180 145 -245 -10 -53 25 -121 64 -121 14 0 23 35 24
85 0 85 47 1074 72 1520 l13 235 -839 0 -840 0 9 -235z"/>
<path d="M4072 2525 c-7 -151 -15 -322 -19 -378 l-6 -104 70 -13 c39 -7 93
-31 120 -52 26 -21 65 -38 86 -38 20 0 37 -7 37 -16 0 -22 160 -233 183 -241
11 -4 31 9 45 28 22 30 35 32 92 12 36 -13 99 -23 139 -23 83 0 154 -54 184
-140 15 -44 86 -100 127 -100 4 0 22 49 39 110 21 72 49 121 82 142 29 19 49
52 49 79 0 25 23 73 50 105 28 33 50 78 50 100 0 47 40 93 117 133 116 60 175
178 213 424 7 46 29 98 49 116 105 95 -53 153 -163 61 -59 -50 -116 -66 -116
-32 0 61 -228 98 -298 49 -36 -25 -74 -30 -179 -20 -219 21 -850 72 -896 72
-41 1 -43 -10 -55 -274z"/>
<path d="M4033 1867 c-42 -306 -11 -507 78 -507 24 0 85 -23 136 -51 98 -55
133 -52 133 15 0 57 118 38 202 -33 78 -65 88 -65 219 18 80 51 132 70 194 70
98 1 107 18 32 64 -30 18 -63 63 -75 99 -28 86 -194 123 -392 88 -64 -12 -73
-7 -109 53 -65 112 -139 197 -173 197 -17 0 -48 18 -68 40 -73 81 -163 54
-177 -53z"/>
<path d="M4480 933 c0 -15 19 -51 42 -81 33 -41 39 -69 29 -129 -30 -177 130
-371 193 -233 14 33 39 50 69 50 36 0 47 11 47 48 0 69 20 112 52 112 19 0 28
24 28 75 -1 126 -17 136 -162 99 l-125 -31 -75 58 c-83 66 -98 71 -98 32z"/>
</g>
</svg>
